G04 #@! TF.GenerationSoftware,KiCad,Pcbnew,8.0.4*
G04 #@! TF.CreationDate,2025-03-13T03:49:55-05:00*
G04 #@! TF.ProjectId,Unify_1,556e6966-795f-4312-9e6b-696361645f70,rev?*
G04 #@! TF.SameCoordinates,Original*
G04 #@! TF.FileFunction,Paste,Top*
G04 #@! TF.FilePolarity,Positive*
%FSLAX46Y46*%
G04 Gerber Fmt 4.6, Leading zero omitted, Abs format (unit mm)*
G04 Created by KiCad (PCBNEW 8.0.4) date 2025-03-13 03:49:55*
%MOMM*%
%LPD*%
G01*
G04 APERTURE LIST*
G04 Aperture macros list*
%AMRoundRect*
0 Rectangle with rounded corners*
0 $1 Rounding radius*
0 $2 $3 $4 $5 $6 $7 $8 $9 X,Y pos of 4 corners*
0 Add a 4 corners polygon primitive as box body*
4,1,4,$2,$3,$4,$5,$6,$7,$8,$9,$2,$3,0*
0 Add four circle primitives for the rounded corners*
1,1,$1+$1,$2,$3*
1,1,$1+$1,$4,$5*
1,1,$1+$1,$6,$7*
1,1,$1+$1,$8,$9*
0 Add four rect primitives between the rounded corners*
20,1,$1+$1,$2,$3,$4,$5,0*
20,1,$1+$1,$4,$5,$6,$7,0*
20,1,$1+$1,$6,$7,$8,$9,0*
20,1,$1+$1,$8,$9,$2,$3,0*%
G04 Aperture macros list end*
%ADD10R,0.900000X1.500000*%
%ADD11R,1.500000X0.900000*%
%ADD12R,0.900000X0.900000*%
%ADD13RoundRect,0.200000X-0.275000X0.200000X-0.275000X-0.200000X0.275000X-0.200000X0.275000X0.200000X0*%
%ADD14R,2.006600X5.994400*%
%ADD15R,5.994400X2.006600*%
%ADD16RoundRect,0.060000X-0.060000X-0.240000X0.060000X-0.240000X0.060000X0.240000X-0.060000X0.240000X0*%
%ADD17RoundRect,0.060000X0.240000X-0.060000X0.240000X0.060000X-0.240000X0.060000X-0.240000X-0.060000X0*%
%ADD18RoundRect,0.060000X-0.240000X0.060000X-0.240000X-0.060000X0.240000X-0.060000X0.240000X0.060000X0*%
%ADD19RoundRect,0.170000X-0.170000X-0.170000X0.170000X-0.170000X0.170000X0.170000X-0.170000X0.170000X0*%
%ADD20RoundRect,0.225000X0.250000X-0.225000X0.250000X0.225000X-0.250000X0.225000X-0.250000X-0.225000X0*%
%ADD21RoundRect,0.225000X0.225000X0.250000X-0.225000X0.250000X-0.225000X-0.250000X0.225000X-0.250000X0*%
%ADD22RoundRect,0.225000X-0.250000X0.225000X-0.250000X-0.225000X0.250000X-0.225000X0.250000X0.225000X0*%
%ADD23RoundRect,0.225000X-0.225000X-0.250000X0.225000X-0.250000X0.225000X0.250000X-0.225000X0.250000X0*%
%ADD24RoundRect,0.200000X0.275000X-0.200000X0.275000X0.200000X-0.275000X0.200000X-0.275000X-0.200000X0*%
%ADD25R,7.460000X6.470000*%
%ADD26RoundRect,0.112500X0.112500X-0.587500X0.112500X0.587500X-0.112500X0.587500X-0.112500X-0.587500X0*%
%ADD27RoundRect,0.150000X0.512500X0.150000X-0.512500X0.150000X-0.512500X-0.150000X0.512500X-0.150000X0*%
%ADD28RoundRect,0.200000X0.200000X0.275000X-0.200000X0.275000X-0.200000X-0.275000X0.200000X-0.275000X0*%
%ADD29RoundRect,0.250000X-0.375000X-1.075000X0.375000X-1.075000X0.375000X1.075000X-0.375000X1.075000X0*%
%ADD30RoundRect,0.112500X-0.112500X0.187500X-0.112500X-0.187500X0.112500X-0.187500X0.112500X0.187500X0*%
%ADD31R,0.711200X0.990600*%
%ADD32R,1.143000X1.193800*%
%ADD33R,1.447800X1.193800*%
%ADD34R,0.990600X0.711200*%
%ADD35R,1.397000X0.889000*%
%ADD36RoundRect,0.085000X-0.265000X-0.085000X0.265000X-0.085000X0.265000X0.085000X-0.265000X0.085000X0*%
%ADD37RoundRect,0.100000X-0.637500X-0.100000X0.637500X-0.100000X0.637500X0.100000X-0.637500X0.100000X0*%
%ADD38RoundRect,0.062500X0.062500X-0.350000X0.062500X0.350000X-0.062500X0.350000X-0.062500X-0.350000X0*%
%ADD39RoundRect,0.160000X0.315000X-0.160000X0.315000X0.160000X-0.315000X0.160000X-0.315000X-0.160000X0*%
%ADD40RoundRect,0.200000X-0.200000X-0.275000X0.200000X-0.275000X0.200000X0.275000X-0.200000X0.275000X0*%
%ADD41RoundRect,0.150000X-0.587500X-0.150000X0.587500X-0.150000X0.587500X0.150000X-0.587500X0.150000X0*%
%ADD42RoundRect,0.150000X0.150000X-0.587500X0.150000X0.587500X-0.150000X0.587500X-0.150000X-0.587500X0*%
%ADD43RoundRect,0.150000X0.587500X0.150000X-0.587500X0.150000X-0.587500X-0.150000X0.587500X-0.150000X0*%
%ADD44RoundRect,0.150000X-0.150000X0.587500X-0.150000X-0.587500X0.150000X-0.587500X0.150000X0.587500X0*%
%ADD45RoundRect,0.250000X0.625000X-0.375000X0.625000X0.375000X-0.625000X0.375000X-0.625000X-0.375000X0*%
%ADD46RoundRect,0.250000X0.650000X-1.000000X0.650000X1.000000X-0.650000X1.000000X-0.650000X-1.000000X0*%
%ADD47RoundRect,0.218750X-0.218750X-0.256250X0.218750X-0.256250X0.218750X0.256250X-0.218750X0.256250X0*%
%ADD48O,1.000000X1.800000*%
%ADD49O,1.000000X2.100000*%
%ADD50RoundRect,0.150000X0.150000X0.425000X-0.150000X0.425000X-0.150000X-0.425000X0.150000X-0.425000X0*%
%ADD51RoundRect,0.075000X0.075000X0.500000X-0.075000X0.500000X-0.075000X-0.500000X0.075000X-0.500000X0*%
%ADD52RoundRect,0.250000X0.375000X0.625000X-0.375000X0.625000X-0.375000X-0.625000X0.375000X-0.625000X0*%
%ADD53RoundRect,0.218750X-0.218750X-0.381250X0.218750X-0.381250X0.218750X0.381250X-0.218750X0.381250X0*%
%ADD54RoundRect,0.150000X0.150000X-0.825000X0.150000X0.825000X-0.150000X0.825000X-0.150000X-0.825000X0*%
%ADD55RoundRect,0.150000X-0.825000X-0.150000X0.825000X-0.150000X0.825000X0.150000X-0.825000X0.150000X0*%
%ADD56RoundRect,0.150000X-0.150000X0.512500X-0.150000X-0.512500X0.150000X-0.512500X0.150000X0.512500X0*%
%ADD57RoundRect,0.150000X0.150000X-0.512500X0.150000X0.512500X-0.150000X0.512500X-0.150000X-0.512500X0*%
%ADD58RoundRect,0.218750X0.218750X0.256250X-0.218750X0.256250X-0.218750X-0.256250X0.218750X-0.256250X0*%
%ADD59RoundRect,0.175000X-0.325000X-0.175000X0.325000X-0.175000X0.325000X0.175000X-0.325000X0.175000X0*%
G04 APERTURE END LIST*
D10*
X228520000Y-85050000D03*
X227250000Y-85050000D03*
X225980000Y-85050000D03*
X224710000Y-85050000D03*
X223440000Y-85050000D03*
X222170000Y-85050000D03*
X220900000Y-85050000D03*
X219630000Y-85050000D03*
X218360000Y-85050000D03*
X217090000Y-85050000D03*
X215820000Y-85050000D03*
X214550000Y-85050000D03*
X213280000Y-85050000D03*
X212010000Y-85050000D03*
D11*
X210760000Y-83285000D03*
X210760000Y-82015000D03*
X210760000Y-80745000D03*
X210760000Y-79475000D03*
X210760000Y-78205000D03*
X210760000Y-76935000D03*
X210760000Y-75665000D03*
X210760000Y-74395000D03*
X210760000Y-73125000D03*
X210760000Y-71855000D03*
X210760000Y-70585000D03*
X210760000Y-69315000D03*
D10*
X212010000Y-67550000D03*
X213280000Y-67550000D03*
X214550000Y-67550000D03*
X215820000Y-67550000D03*
X217090000Y-67550000D03*
X218360000Y-67550000D03*
X219630000Y-67550000D03*
X220900000Y-67550000D03*
X222170000Y-67550000D03*
X223440000Y-67550000D03*
X224710000Y-67550000D03*
X225980000Y-67550000D03*
X227250000Y-67550000D03*
X228520000Y-67550000D03*
D12*
X220800000Y-76200000D03*
X222200000Y-76200000D03*
X219400000Y-76195606D03*
X220800000Y-74800000D03*
X222200000Y-74800000D03*
X219400000Y-74795606D03*
X220800000Y-73400000D03*
X222200000Y-73400000D03*
X219400000Y-73395606D03*
D13*
X218800000Y-91375000D03*
X218800000Y-93025000D03*
X220300000Y-91375000D03*
X220300000Y-93025000D03*
D14*
X163209000Y-80450000D03*
X158891000Y-80450000D03*
D15*
X163846500Y-93918000D03*
X163846500Y-89600000D03*
D16*
X207855000Y-123080000D03*
X208355000Y-123080000D03*
X208855000Y-123080000D03*
X209355000Y-123080000D03*
D17*
X210005000Y-123730000D03*
X210005000Y-124230000D03*
X210005000Y-124730000D03*
X210005000Y-125230000D03*
D16*
X209355000Y-125880000D03*
X208855000Y-125880000D03*
X208355000Y-125880000D03*
X207855000Y-125880000D03*
D17*
X207205000Y-125230000D03*
X207205000Y-124730000D03*
D18*
X207205000Y-124230000D03*
D17*
X207205000Y-123730000D03*
D19*
X209025000Y-124900000D03*
X209025000Y-124060000D03*
X208185000Y-124900000D03*
X208185000Y-124060000D03*
D20*
X154500000Y-124475000D03*
X154500000Y-122925000D03*
D21*
X143756250Y-94100000D03*
X142206250Y-94100000D03*
D22*
X208100000Y-127920000D03*
X208100000Y-129470000D03*
D23*
X151106250Y-89300000D03*
X152656250Y-89300000D03*
D20*
X159446500Y-87884000D03*
X159446500Y-89434000D03*
X162846500Y-87434000D03*
X162846500Y-85884000D03*
X161246500Y-87434000D03*
X161246500Y-85884000D03*
D23*
X151106250Y-90900000D03*
X152656250Y-90900000D03*
D22*
X164900000Y-74675000D03*
X164900000Y-76225000D03*
X163300000Y-74675000D03*
X163300000Y-76225000D03*
X134600000Y-81225000D03*
X134600000Y-82775000D03*
D20*
X143900000Y-76175000D03*
X143900000Y-74625000D03*
X145400000Y-76175000D03*
X145400000Y-74625000D03*
D24*
X201400000Y-74225000D03*
X201400000Y-72575000D03*
D25*
X215670000Y-108000000D03*
X136330000Y-108000000D03*
D26*
X195925000Y-129412500D03*
X196575000Y-129412500D03*
X197225000Y-129412500D03*
X197875000Y-129412500D03*
X197875000Y-125012500D03*
X197225000Y-125012500D03*
X196575000Y-125012500D03*
X195925000Y-125012500D03*
X190650000Y-129387500D03*
X191300000Y-129387500D03*
X191950000Y-129387500D03*
X192600000Y-129387500D03*
X192600000Y-124987500D03*
X191950000Y-124987500D03*
X191300000Y-124987500D03*
X190650000Y-124987500D03*
X185387500Y-129420000D03*
X186037500Y-129420000D03*
X186687500Y-129420000D03*
X187337500Y-129420000D03*
X187337500Y-125020000D03*
X186687500Y-125020000D03*
X186037500Y-125020000D03*
X185387500Y-125020000D03*
D27*
X145537500Y-90743750D03*
X145537500Y-88843750D03*
X147812500Y-88843750D03*
X147812500Y-89793750D03*
X147812500Y-90743750D03*
D28*
X149906250Y-87300000D03*
X148256250Y-87300000D03*
D24*
X149581250Y-89168750D03*
X149581250Y-90818750D03*
D29*
X148281250Y-93193750D03*
X145481250Y-93193750D03*
D30*
X150381250Y-94350000D03*
X150381250Y-92250000D03*
D31*
X210449999Y-55484000D03*
X211550000Y-55484000D03*
X212650000Y-55484000D03*
X213750000Y-55484000D03*
X214850001Y-55484000D03*
X215950001Y-55484000D03*
X217050002Y-55484000D03*
X218149999Y-55484000D03*
D32*
X219225001Y-51844000D03*
X219225001Y-54434000D03*
D33*
X208824999Y-53994001D03*
D34*
X208600001Y-52844000D03*
D35*
X208800000Y-51694000D03*
D36*
X160300000Y-75300000D03*
X160300000Y-75800000D03*
X160300000Y-76300000D03*
X161800000Y-76300000D03*
X161800000Y-75800000D03*
X161800000Y-75300000D03*
D37*
X191525000Y-90225000D03*
X191525000Y-90875000D03*
X191525000Y-91525000D03*
X191525000Y-92175000D03*
X191525000Y-92825000D03*
X191525000Y-93475000D03*
X191525000Y-94125000D03*
X191525000Y-94775000D03*
X197250000Y-94775000D03*
X197250000Y-94125000D03*
X197250000Y-93475000D03*
X197250000Y-92825000D03*
X197250000Y-92175000D03*
X197250000Y-91525000D03*
X197250000Y-90875000D03*
X197250000Y-90225000D03*
D27*
X159284000Y-92909000D03*
X159284000Y-91959000D03*
X159284000Y-91009000D03*
X157009000Y-91009000D03*
X157009000Y-91959000D03*
X157009000Y-92909000D03*
D38*
X134310000Y-89867500D03*
X134810000Y-89867500D03*
X135310000Y-89867500D03*
X135810000Y-89867500D03*
X136310000Y-89867500D03*
X136310000Y-92742500D03*
X135810000Y-92742500D03*
X135310000Y-92742500D03*
X134810000Y-92742500D03*
X134310000Y-92742500D03*
D39*
X135900000Y-90910000D03*
X134720000Y-90910000D03*
X135900000Y-91700000D03*
X134720000Y-91700000D03*
D28*
X140425000Y-125200000D03*
X138775000Y-125200000D03*
D40*
X146045000Y-123615000D03*
X147695000Y-123615000D03*
D24*
X144500000Y-129225000D03*
X144500000Y-127575000D03*
D28*
X147695000Y-122115000D03*
X146045000Y-122115000D03*
D40*
X149975000Y-120600000D03*
X151625000Y-120600000D03*
D13*
X146000000Y-127575000D03*
X146000000Y-129225000D03*
X227500000Y-91675000D03*
X227500000Y-93325000D03*
D24*
X226000000Y-93325000D03*
X226000000Y-91675000D03*
D28*
X224425000Y-62900000D03*
X222775000Y-62900000D03*
X171825000Y-90700000D03*
X170175000Y-90700000D03*
X158825000Y-74700000D03*
X157175000Y-74700000D03*
D40*
X177275000Y-120200000D03*
X178925000Y-120200000D03*
D28*
X161825000Y-73800000D03*
X160175000Y-73800000D03*
X175825000Y-121400000D03*
X174175000Y-121400000D03*
D40*
X208075000Y-64300000D03*
X209725000Y-64300000D03*
D13*
X139781250Y-88725000D03*
X139781250Y-87075000D03*
X155146500Y-90934000D03*
X155146500Y-92584000D03*
D24*
X214600000Y-64525000D03*
X214600000Y-62875000D03*
D28*
X221325000Y-64500000D03*
X219675000Y-64500000D03*
D24*
X139781250Y-90075000D03*
X139781250Y-91725000D03*
D13*
X155146500Y-87834000D03*
X155146500Y-89484000D03*
X139781250Y-94725000D03*
X139781250Y-93075000D03*
D24*
X135800000Y-88425000D03*
X135800000Y-86775000D03*
X137300000Y-88425000D03*
X137300000Y-86775000D03*
D28*
X151525000Y-78800000D03*
X149875000Y-78800000D03*
D24*
X150400000Y-76425000D03*
X150400000Y-74775000D03*
D13*
X134400000Y-78175000D03*
X134400000Y-79825000D03*
X153000000Y-77175000D03*
X153000000Y-78825000D03*
D24*
X135800000Y-95725000D03*
X135800000Y-94075000D03*
X152900000Y-75825000D03*
X152900000Y-74175000D03*
D40*
X146875000Y-78800000D03*
X148525000Y-78800000D03*
X143875000Y-82800000D03*
X145525000Y-82800000D03*
D13*
X142400000Y-81175000D03*
X142400000Y-82825000D03*
D40*
X208075000Y-62075000D03*
X209725000Y-62075000D03*
D24*
X185700000Y-79375000D03*
X185700000Y-81025000D03*
X189100000Y-78225000D03*
X189100000Y-76575000D03*
D40*
X192275000Y-78200000D03*
X193925000Y-78200000D03*
D13*
X190700000Y-76575000D03*
X190700000Y-78225000D03*
D40*
X192275000Y-76600000D03*
X193925000Y-76600000D03*
D13*
X155100000Y-64950000D03*
X155100000Y-66600000D03*
D41*
X140825000Y-127250000D03*
X140825000Y-129150000D03*
X142700000Y-128200000D03*
X149462500Y-122150000D03*
X149462500Y-124050000D03*
X151337500Y-123100000D03*
D42*
X147650000Y-128837500D03*
X149550000Y-128837500D03*
X148600000Y-126962500D03*
D43*
X191162500Y-87900000D03*
X193037500Y-86950000D03*
X193037500Y-88850000D03*
D44*
X172075000Y-92462500D03*
X170175000Y-92462500D03*
X171125000Y-94337500D03*
X176150000Y-123125000D03*
X174250000Y-123125000D03*
X175200000Y-125000000D03*
D41*
X143481250Y-88100000D03*
X141606250Y-89050000D03*
X141606250Y-87150000D03*
D42*
X216250000Y-64237500D03*
X218150000Y-64237500D03*
X217200000Y-62362500D03*
D41*
X143481250Y-91600000D03*
X141606250Y-92550000D03*
X141606250Y-90650000D03*
D44*
X148850000Y-75125000D03*
X146950000Y-75125000D03*
X147900000Y-77000000D03*
X148950000Y-80562500D03*
X147050000Y-80562500D03*
X148000000Y-82437500D03*
D42*
X135950000Y-79437500D03*
X137850000Y-79437500D03*
X136900000Y-77562500D03*
D41*
X143300000Y-77700000D03*
X143300000Y-79600000D03*
X145175000Y-78650000D03*
D43*
X193637500Y-74950000D03*
X193637500Y-73050000D03*
X191762500Y-74000000D03*
D45*
X151600000Y-129000000D03*
X151600000Y-126200000D03*
D46*
X140400000Y-78900000D03*
X140400000Y-74900000D03*
D23*
X199112500Y-90500000D03*
X200662500Y-90500000D03*
D21*
X158775000Y-76200000D03*
X157225000Y-76200000D03*
D20*
X164446500Y-87434000D03*
X164446500Y-85884000D03*
D23*
X219725000Y-62900000D03*
X221275000Y-62900000D03*
D21*
X159521500Y-94459000D03*
X157971500Y-94459000D03*
D20*
X157846500Y-87884000D03*
X157846500Y-89434000D03*
D21*
X137875000Y-75700000D03*
X136325000Y-75700000D03*
D22*
X134300000Y-94125000D03*
X134300000Y-95675000D03*
D20*
X134300000Y-88375000D03*
X134300000Y-86825000D03*
D23*
X143925000Y-81200000D03*
X145475000Y-81200000D03*
D22*
X140800000Y-81225000D03*
X140800000Y-82775000D03*
X172200000Y-125275000D03*
X172200000Y-123725000D03*
D20*
X196125000Y-123275000D03*
X196125000Y-121725000D03*
D28*
X194775000Y-88800000D03*
X196425000Y-88800000D03*
D23*
X227025000Y-63604394D03*
X228575000Y-63604394D03*
D13*
X198100000Y-59175000D03*
X198100000Y-60825000D03*
D40*
X138775000Y-123700000D03*
X140425000Y-123700000D03*
D47*
X205100000Y-70500000D03*
X206675000Y-70500000D03*
D40*
X181825000Y-124950000D03*
X183475000Y-124950000D03*
D24*
X219500000Y-60500000D03*
X219500000Y-58850000D03*
D48*
X195680000Y-51925000D03*
D49*
X195680000Y-56105000D03*
D48*
X204320000Y-51925000D03*
D49*
X204320000Y-56105000D03*
D50*
X203200000Y-56680000D03*
X202400000Y-56680000D03*
D51*
X201750000Y-56680000D03*
X200750000Y-56680000D03*
X199250000Y-56680000D03*
X198250000Y-56680000D03*
D50*
X197600000Y-56680000D03*
X196800000Y-56680000D03*
X196800000Y-56680000D03*
X197600000Y-56680000D03*
D51*
X198750000Y-56680000D03*
X199750000Y-56680000D03*
X200250000Y-56680000D03*
X201250000Y-56680000D03*
D50*
X202400000Y-56680000D03*
X203200000Y-56680000D03*
D28*
X203100000Y-124900000D03*
X201450000Y-124900000D03*
D24*
X220300000Y-87575000D03*
X220300000Y-89225000D03*
D52*
X139100000Y-81600000D03*
X136300000Y-81600000D03*
D20*
X156800000Y-63450000D03*
X156800000Y-61900000D03*
D24*
X208300000Y-83125000D03*
X208300000Y-81475000D03*
D13*
X199900000Y-63275000D03*
X199900000Y-64925000D03*
D24*
X217000000Y-87575000D03*
X217000000Y-89225000D03*
D13*
X201400000Y-63275000D03*
X201400000Y-64925000D03*
D40*
X151256250Y-87300000D03*
X152906250Y-87300000D03*
D20*
X185825000Y-123175000D03*
X185825000Y-121625000D03*
D23*
X227025000Y-65200000D03*
X228575000Y-65200000D03*
D13*
X133500000Y-144575000D03*
X133500000Y-146225000D03*
D23*
X192475000Y-121700000D03*
X194025000Y-121700000D03*
D22*
X211300000Y-127925000D03*
X211300000Y-129475000D03*
D13*
X163625000Y-125810000D03*
X163625000Y-127460000D03*
D23*
X199212500Y-81400000D03*
X200762500Y-81400000D03*
D40*
X205075000Y-73500000D03*
X206725000Y-73500000D03*
X160375000Y-121900000D03*
X162025000Y-121900000D03*
D13*
X148700000Y-61850000D03*
X148700000Y-63500000D03*
D23*
X181875000Y-126450000D03*
X183425000Y-126450000D03*
D22*
X214600000Y-58900000D03*
X214600000Y-60450000D03*
D28*
X135625000Y-123000000D03*
X133975000Y-123000000D03*
D22*
X212125000Y-124625000D03*
X212125000Y-126175000D03*
D13*
X226800000Y-139375000D03*
X226800000Y-141025000D03*
D24*
X209800000Y-60500000D03*
X209800000Y-58850000D03*
D23*
X187350000Y-121700000D03*
X188900000Y-121700000D03*
D24*
X217900000Y-60500000D03*
X217900000Y-58850000D03*
D13*
X184120000Y-81025000D03*
X184120000Y-79375000D03*
X176200000Y-127575000D03*
X176200000Y-129225000D03*
D21*
X161700000Y-128935000D03*
X160150000Y-128935000D03*
D22*
X179600000Y-125275000D03*
X179600000Y-123725000D03*
D53*
X179862500Y-122100000D03*
X177737500Y-122100000D03*
D28*
X217000000Y-126862500D03*
X215350000Y-126862500D03*
D54*
X195860000Y-77455552D03*
X197130000Y-77455552D03*
X198400000Y-77455552D03*
X199670000Y-77455552D03*
X199670000Y-72505552D03*
X198400000Y-72505552D03*
X197130000Y-72505552D03*
X195860000Y-72505552D03*
D22*
X213500000Y-92625000D03*
X213500000Y-94175000D03*
D24*
X226400000Y-89525000D03*
X226400000Y-87875000D03*
D28*
X206725000Y-69000000D03*
X205075000Y-69000000D03*
D23*
X197650000Y-121800000D03*
X199200000Y-121800000D03*
D22*
X178100000Y-125275000D03*
X178100000Y-123725000D03*
D13*
X201400000Y-75675000D03*
X201400000Y-77325000D03*
D55*
X156550000Y-123530000D03*
X156550000Y-124800000D03*
X156550000Y-126070000D03*
X156550000Y-127340000D03*
X161500000Y-127340000D03*
X161500000Y-126070000D03*
X161500000Y-124800000D03*
X161500000Y-123530000D03*
D20*
X190950000Y-123250000D03*
X190950000Y-121700000D03*
D21*
X203025000Y-129400000D03*
X201475000Y-129400000D03*
D24*
X156800000Y-66600000D03*
X156800000Y-64950000D03*
D21*
X203025000Y-123400000D03*
X201475000Y-123400000D03*
D40*
X187325000Y-123200000D03*
X188975000Y-123200000D03*
D13*
X150400000Y-61850000D03*
X150400000Y-63500000D03*
D28*
X211825000Y-120900000D03*
X210175000Y-120900000D03*
D24*
X206300000Y-79025000D03*
X206300000Y-77375000D03*
D22*
X170700000Y-125275000D03*
X170700000Y-123725000D03*
D23*
X194930001Y-60800000D03*
X196480001Y-60800000D03*
D28*
X203075000Y-121900000D03*
X201425000Y-121900000D03*
D24*
X211400000Y-60500000D03*
X211400000Y-58850000D03*
X215000000Y-94225000D03*
X215000000Y-92575000D03*
D41*
X150762500Y-80350000D03*
X150762500Y-82250000D03*
X152637500Y-81300000D03*
D56*
X201550000Y-59425000D03*
X200600000Y-59425000D03*
X199650000Y-59425000D03*
X199650000Y-61700000D03*
X200600000Y-61700000D03*
X201550000Y-61700000D03*
D24*
X193100000Y-70325000D03*
X193100000Y-68675000D03*
X215400000Y-89225000D03*
X215400000Y-87575000D03*
D57*
X215025000Y-125200000D03*
X215975000Y-125200000D03*
X216925000Y-125200000D03*
X216925000Y-122925000D03*
X215025000Y-122925000D03*
D28*
X203100000Y-127900000D03*
X201450000Y-127900000D03*
D22*
X209700000Y-127925000D03*
X209700000Y-129475000D03*
D13*
X206900000Y-53975000D03*
X206900000Y-55625000D03*
D40*
X197600000Y-123300000D03*
X199250000Y-123300000D03*
D24*
X188925000Y-126425000D03*
X188925000Y-124775000D03*
X226800000Y-137725000D03*
X226800000Y-136075000D03*
D21*
X203050000Y-126400000D03*
X201500000Y-126400000D03*
D53*
X172562500Y-122100000D03*
X170437500Y-122100000D03*
D58*
X196487500Y-59300000D03*
X194912500Y-59300000D03*
D24*
X227100000Y-132825000D03*
X227100000Y-131175000D03*
X208200000Y-60500000D03*
X208200000Y-58850000D03*
D28*
X134955000Y-58210000D03*
X133305000Y-58210000D03*
D24*
X194250000Y-126325000D03*
X194250000Y-124675000D03*
X216300000Y-60500000D03*
X216300000Y-58850000D03*
D59*
X208200000Y-92400000D03*
X212200000Y-92400000D03*
X208200000Y-94550000D03*
X212200000Y-94550000D03*
D13*
X201400000Y-69475000D03*
X201400000Y-71125000D03*
D37*
X191525000Y-81125000D03*
X191525000Y-81775000D03*
X191525000Y-82425000D03*
X191525000Y-83075000D03*
X191525000Y-83725000D03*
X191525000Y-84375000D03*
X191525000Y-85025000D03*
X191525000Y-85675000D03*
X197250000Y-85675000D03*
X197250000Y-85025000D03*
X197250000Y-84375000D03*
X197250000Y-83725000D03*
X197250000Y-83075000D03*
X197250000Y-82425000D03*
X197250000Y-81775000D03*
X197250000Y-81125000D03*
D24*
X204600000Y-60825000D03*
X204600000Y-59175000D03*
X222000000Y-54825000D03*
X222000000Y-53175000D03*
D56*
X223850000Y-90762500D03*
X222900000Y-90762500D03*
X221950000Y-90762500D03*
X221950000Y-93037500D03*
X222900000Y-93037500D03*
X223850000Y-93037500D03*
D24*
X218700000Y-87575000D03*
X218700000Y-89225000D03*
D22*
X154425000Y-125960000D03*
X154425000Y-127510000D03*
D23*
X146850000Y-87293750D03*
X145300000Y-87293750D03*
D22*
X213800000Y-87625000D03*
X213800000Y-89175000D03*
D13*
X155100000Y-61850000D03*
X155100000Y-63500000D03*
X203100000Y-59175000D03*
X203100000Y-60825000D03*
D40*
X215350000Y-128362500D03*
X217000000Y-128362500D03*
D13*
X228000000Y-87875000D03*
X228000000Y-89525000D03*
D23*
X181875000Y-123450000D03*
X183425000Y-123450000D03*
D40*
X205925000Y-75100000D03*
X204275000Y-75100000D03*
D24*
X199525000Y-126425000D03*
X199525000Y-124775000D03*
D13*
X194700000Y-68675000D03*
X194700000Y-70325000D03*
X199000000Y-68675000D03*
X199000000Y-70325000D03*
D24*
X213000000Y-60500000D03*
X213000000Y-58850000D03*
D40*
X192425000Y-123200000D03*
X194075000Y-123200000D03*
D13*
X197400000Y-68675000D03*
X197400000Y-70325000D03*
X153400000Y-61850000D03*
X153400000Y-63500000D03*
D40*
X181825000Y-121950000D03*
X183475000Y-121950000D03*
D13*
X174300000Y-127575000D03*
X174300000Y-129225000D03*
D40*
X205075000Y-72000000D03*
X206725000Y-72000000D03*
D59*
X208200000Y-87400000D03*
X212200000Y-87400000D03*
X208200000Y-89550000D03*
X212200000Y-89550000D03*
D13*
X134400000Y-75175000D03*
X134400000Y-76825000D03*
D44*
X213050000Y-62225000D03*
X211150000Y-62225000D03*
X212100000Y-64100000D03*
M02*
