G04 #@! TF.GenerationSoftware,KiCad,Pcbnew,8.0.4*
G04 #@! TF.CreationDate,2025-03-13T03:49:55-05:00*
G04 #@! TF.ProjectId,Unify_1,556e6966-795f-4312-9e6b-696361645f70,rev?*
G04 #@! TF.SameCoordinates,Original*
G04 #@! TF.FileFunction,Legend,Top*
G04 #@! TF.FilePolarity,Positive*
%FSLAX46Y46*%
G04 Gerber Fmt 4.6, Leading zero omitted, Abs format (unit mm)*
G04 Created by KiCad (PCBNEW 8.0.4) date 2025-03-13 03:49:55*
%MOMM*%
%LPD*%
G01*
G04 APERTURE LIST*
G04 Aperture macros list*
%AMRoundRect*
0 Rectangle with rounded corners*
0 $1 Rounding radius*
0 $2 $3 $4 $5 $6 $7 $8 $9 X,Y pos of 4 corners*
0 Add a 4 corners polygon primitive as box body*
4,1,4,$2,$3,$4,$5,$6,$7,$8,$9,$2,$3,0*
0 Add four circle primitives for the rounded corners*
1,1,$1+$1,$2,$3*
1,1,$1+$1,$4,$5*
1,1,$1+$1,$6,$7*
1,1,$1+$1,$8,$9*
0 Add four rect primitives between the rounded corners*
20,1,$1+$1,$2,$3,$4,$5,0*
20,1,$1+$1,$4,$5,$6,$7,0*
20,1,$1+$1,$6,$7,$8,$9,0*
20,1,$1+$1,$8,$9,$2,$3,0*%
G04 Aperture macros list end*
%ADD10C,0.100000*%
%ADD11C,0.300000*%
%ADD12C,0.150000*%
%ADD13C,0.120000*%
%ADD14C,0.152400*%
%ADD15C,0.127000*%
%ADD16C,0.508000*%
%ADD17C,1.800000*%
%ADD18C,2.200000*%
%ADD19R,3.900000X3.900000*%
%ADD20R,0.900000X1.500000*%
%ADD21R,1.500000X0.900000*%
%ADD22RoundRect,0.200000X-0.275000X0.200000X-0.275000X-0.200000X0.275000X-0.200000X0.275000X0.200000X0*%
%ADD23R,2.006600X5.994400*%
%ADD24R,5.994400X2.006600*%
%ADD25R,1.680000X1.680000*%
%ADD26RoundRect,0.060000X-0.060000X-0.240000X0.060000X-0.240000X0.060000X0.240000X-0.060000X0.240000X0*%
%ADD27RoundRect,0.060000X0.240000X-0.060000X0.240000X0.060000X-0.240000X0.060000X-0.240000X-0.060000X0*%
%ADD28RoundRect,0.060000X-0.240000X0.060000X-0.240000X-0.060000X0.240000X-0.060000X0.240000X0.060000X0*%
%ADD29RoundRect,0.225000X0.250000X-0.225000X0.250000X0.225000X-0.250000X0.225000X-0.250000X-0.225000X0*%
%ADD30RoundRect,0.225000X0.225000X0.250000X-0.225000X0.250000X-0.225000X-0.250000X0.225000X-0.250000X0*%
%ADD31RoundRect,0.225000X-0.250000X0.225000X-0.250000X-0.225000X0.250000X-0.225000X0.250000X0.225000X0*%
%ADD32RoundRect,0.225000X-0.225000X-0.250000X0.225000X-0.250000X0.225000X0.250000X-0.225000X0.250000X0*%
%ADD33RoundRect,0.200000X0.275000X-0.200000X0.275000X0.200000X-0.275000X0.200000X-0.275000X-0.200000X0*%
%ADD34C,1.400000*%
%ADD35RoundRect,0.102000X3.730000X3.235000X-3.730000X3.235000X-3.730000X-3.235000X3.730000X-3.235000X0*%
%ADD36C,2.390000*%
%ADD37C,3.450000*%
%ADD38RoundRect,0.112500X0.112500X-0.587500X0.112500X0.587500X-0.112500X0.587500X-0.112500X-0.587500X0*%
%ADD39RoundRect,0.150000X0.512500X0.150000X-0.512500X0.150000X-0.512500X-0.150000X0.512500X-0.150000X0*%
%ADD40RoundRect,0.200000X0.200000X0.275000X-0.200000X0.275000X-0.200000X-0.275000X0.200000X-0.275000X0*%
%ADD41RoundRect,0.250000X-0.375000X-1.075000X0.375000X-1.075000X0.375000X1.075000X-0.375000X1.075000X0*%
%ADD42RoundRect,0.112500X-0.112500X0.187500X-0.112500X-0.187500X0.112500X-0.187500X0.112500X0.187500X0*%
%ADD43R,0.711200X0.990600*%
%ADD44R,1.143000X1.193800*%
%ADD45R,1.447800X1.193800*%
%ADD46R,0.990600X0.711200*%
%ADD47R,1.397000X0.889000*%
%ADD48RoundRect,0.085000X-0.265000X-0.085000X0.265000X-0.085000X0.265000X0.085000X-0.265000X0.085000X0*%
%ADD49RoundRect,0.100000X-0.637500X-0.100000X0.637500X-0.100000X0.637500X0.100000X-0.637500X0.100000X0*%
%ADD50R,2.350000X1.580000*%
%ADD51RoundRect,0.062500X0.062500X-0.350000X0.062500X0.350000X-0.062500X0.350000X-0.062500X-0.350000X0*%
%ADD52RoundRect,0.200000X-0.200000X-0.275000X0.200000X-0.275000X0.200000X0.275000X-0.200000X0.275000X0*%
%ADD53RoundRect,0.150000X-0.587500X-0.150000X0.587500X-0.150000X0.587500X0.150000X-0.587500X0.150000X0*%
%ADD54RoundRect,0.150000X0.150000X-0.587500X0.150000X0.587500X-0.150000X0.587500X-0.150000X-0.587500X0*%
%ADD55RoundRect,0.150000X0.587500X0.150000X-0.587500X0.150000X-0.587500X-0.150000X0.587500X-0.150000X0*%
%ADD56RoundRect,0.150000X-0.150000X0.587500X-0.150000X-0.587500X0.150000X-0.587500X0.150000X0.587500X0*%
%ADD57R,1.700000X1.700000*%
%ADD58O,1.700000X1.700000*%
%ADD59RoundRect,0.250000X0.625000X-0.375000X0.625000X0.375000X-0.625000X0.375000X-0.625000X-0.375000X0*%
%ADD60RoundRect,0.250000X0.650000X-1.000000X0.650000X1.000000X-0.650000X1.000000X-0.650000X-1.000000X0*%
%ADD61C,2.000000*%
%ADD62R,2.000000X2.000000*%
%ADD63RoundRect,0.218750X-0.218750X-0.256250X0.218750X-0.256250X0.218750X0.256250X-0.218750X0.256250X0*%
%ADD64C,1.600000*%
%ADD65C,3.300000*%
%ADD66O,1.000000X1.800000*%
%ADD67O,1.000000X2.100000*%
%ADD68RoundRect,0.150000X0.150000X0.425000X-0.150000X0.425000X-0.150000X-0.425000X0.150000X-0.425000X0*%
%ADD69RoundRect,0.075000X0.075000X0.500000X-0.075000X0.500000X-0.075000X-0.500000X0.075000X-0.500000X0*%
%ADD70C,0.650000*%
%ADD71RoundRect,0.250000X0.375000X0.625000X-0.375000X0.625000X-0.375000X-0.625000X0.375000X-0.625000X0*%
%ADD72O,1.200000X1.750000*%
%ADD73RoundRect,0.250000X0.350000X0.625000X-0.350000X0.625000X-0.350000X-0.625000X0.350000X-0.625000X0*%
%ADD74C,5.400000*%
%ADD75RoundRect,0.218750X-0.218750X-0.381250X0.218750X-0.381250X0.218750X0.381250X-0.218750X0.381250X0*%
%ADD76RoundRect,0.150000X0.150000X-0.825000X0.150000X0.825000X-0.150000X0.825000X-0.150000X-0.825000X0*%
%ADD77RoundRect,0.150000X-0.825000X-0.150000X0.825000X-0.150000X0.825000X0.150000X-0.825000X0.150000X0*%
%ADD78RoundRect,0.150000X-0.150000X0.512500X-0.150000X-0.512500X0.150000X-0.512500X0.150000X0.512500X0*%
%ADD79RoundRect,0.150000X0.150000X-0.512500X0.150000X0.512500X-0.150000X0.512500X-0.150000X-0.512500X0*%
%ADD80RoundRect,0.218750X0.218750X0.256250X-0.218750X0.256250X-0.218750X-0.256250X0.218750X-0.256250X0*%
%ADD81RoundRect,0.175000X-0.325000X-0.175000X0.325000X-0.175000X0.325000X0.175000X-0.325000X0.175000X0*%
G04 APERTURE END LIST*
D10*
X132100000Y-60800000D02*
X140100000Y-60800000D01*
X140100000Y-68800000D01*
X132100000Y-68800000D01*
X132100000Y-60800000D01*
G36*
X132100000Y-60800000D02*
G01*
X140100000Y-60800000D01*
X140100000Y-68800000D01*
X132100000Y-68800000D01*
X132100000Y-60800000D01*
G37*
D11*
X222568796Y-61100828D02*
X222568796Y-61457971D01*
X222211653Y-61315114D02*
X222568796Y-61457971D01*
X222568796Y-61457971D02*
X222925939Y-61315114D01*
X222354510Y-61743685D02*
X222568796Y-61457971D01*
X222568796Y-61457971D02*
X222783082Y-61743685D01*
X169168796Y-127100828D02*
X169168796Y-127457971D01*
X168811653Y-127315114D02*
X169168796Y-127457971D01*
X169168796Y-127457971D02*
X169525939Y-127315114D01*
X168954510Y-127743685D02*
X169168796Y-127457971D01*
X169168796Y-127457971D02*
X169383082Y-127743685D01*
X181768796Y-81700828D02*
X181768796Y-82057971D01*
X181411653Y-81915114D02*
X181768796Y-82057971D01*
X181768796Y-82057971D02*
X182125939Y-81915114D01*
X181554510Y-82343685D02*
X181768796Y-82057971D01*
X181768796Y-82057971D02*
X181983082Y-82343685D01*
X192468796Y-65300828D02*
X191754510Y-65300828D01*
X191754510Y-65300828D02*
X191683082Y-66015114D01*
X191683082Y-66015114D02*
X191754510Y-65943685D01*
X191754510Y-65943685D02*
X191897368Y-65872257D01*
X191897368Y-65872257D02*
X192254510Y-65872257D01*
X192254510Y-65872257D02*
X192397368Y-65943685D01*
X192397368Y-65943685D02*
X192468796Y-66015114D01*
X192468796Y-66015114D02*
X192540225Y-66157971D01*
X192540225Y-66157971D02*
X192540225Y-66515114D01*
X192540225Y-66515114D02*
X192468796Y-66657971D01*
X192468796Y-66657971D02*
X192397368Y-66729400D01*
X192397368Y-66729400D02*
X192254510Y-66800828D01*
X192254510Y-66800828D02*
X191897368Y-66800828D01*
X191897368Y-66800828D02*
X191754510Y-66729400D01*
X191754510Y-66729400D02*
X191683082Y-66657971D01*
X192968796Y-65300828D02*
X193468796Y-66800828D01*
X193468796Y-66800828D02*
X193968796Y-65300828D01*
X194540224Y-66729400D02*
X194540224Y-66800828D01*
X194540224Y-66800828D02*
X194468795Y-66943685D01*
X194468795Y-66943685D02*
X194397367Y-67015114D01*
X196183081Y-65300828D02*
X197111653Y-65300828D01*
X197111653Y-65300828D02*
X196611653Y-65872257D01*
X196611653Y-65872257D02*
X196825938Y-65872257D01*
X196825938Y-65872257D02*
X196968796Y-65943685D01*
X196968796Y-65943685D02*
X197040224Y-66015114D01*
X197040224Y-66015114D02*
X197111653Y-66157971D01*
X197111653Y-66157971D02*
X197111653Y-66515114D01*
X197111653Y-66515114D02*
X197040224Y-66657971D01*
X197040224Y-66657971D02*
X196968796Y-66729400D01*
X196968796Y-66729400D02*
X196825938Y-66800828D01*
X196825938Y-66800828D02*
X196397367Y-66800828D01*
X196397367Y-66800828D02*
X196254510Y-66729400D01*
X196254510Y-66729400D02*
X196183081Y-66657971D01*
X197683081Y-66372257D02*
X198397367Y-66372257D01*
X197540224Y-66800828D02*
X198040224Y-65300828D01*
X198040224Y-65300828D02*
X198540224Y-66800828D01*
X147354510Y-58185912D02*
X147354510Y-56685912D01*
X147354510Y-56685912D02*
X147925939Y-56685912D01*
X147925939Y-56685912D02*
X148068796Y-56757341D01*
X148068796Y-56757341D02*
X148140225Y-56828769D01*
X148140225Y-56828769D02*
X148211653Y-56971626D01*
X148211653Y-56971626D02*
X148211653Y-57185912D01*
X148211653Y-57185912D02*
X148140225Y-57328769D01*
X148140225Y-57328769D02*
X148068796Y-57400198D01*
X148068796Y-57400198D02*
X147925939Y-57471626D01*
X147925939Y-57471626D02*
X147354510Y-57471626D01*
X148711653Y-56685912D02*
X149068796Y-58185912D01*
X149068796Y-58185912D02*
X149354510Y-57114484D01*
X149354510Y-57114484D02*
X149640225Y-58185912D01*
X149640225Y-58185912D02*
X149997368Y-56685912D01*
X151425939Y-58185912D02*
X150925939Y-57471626D01*
X150568796Y-58185912D02*
X150568796Y-56685912D01*
X150568796Y-56685912D02*
X151140225Y-56685912D01*
X151140225Y-56685912D02*
X151283082Y-56757341D01*
X151283082Y-56757341D02*
X151354511Y-56828769D01*
X151354511Y-56828769D02*
X151425939Y-56971626D01*
X151425939Y-56971626D02*
X151425939Y-57185912D01*
X151425939Y-57185912D02*
X151354511Y-57328769D01*
X151354511Y-57328769D02*
X151283082Y-57400198D01*
X151283082Y-57400198D02*
X151140225Y-57471626D01*
X151140225Y-57471626D02*
X150568796Y-57471626D01*
X153140225Y-58114484D02*
X153354511Y-58185912D01*
X153354511Y-58185912D02*
X153711653Y-58185912D01*
X153711653Y-58185912D02*
X153854511Y-58114484D01*
X153854511Y-58114484D02*
X153925939Y-58043055D01*
X153925939Y-58043055D02*
X153997368Y-57900198D01*
X153997368Y-57900198D02*
X153997368Y-57757341D01*
X153997368Y-57757341D02*
X153925939Y-57614484D01*
X153925939Y-57614484D02*
X153854511Y-57543055D01*
X153854511Y-57543055D02*
X153711653Y-57471626D01*
X153711653Y-57471626D02*
X153425939Y-57400198D01*
X153425939Y-57400198D02*
X153283082Y-57328769D01*
X153283082Y-57328769D02*
X153211653Y-57257341D01*
X153211653Y-57257341D02*
X153140225Y-57114484D01*
X153140225Y-57114484D02*
X153140225Y-56971626D01*
X153140225Y-56971626D02*
X153211653Y-56828769D01*
X153211653Y-56828769D02*
X153283082Y-56757341D01*
X153283082Y-56757341D02*
X153425939Y-56685912D01*
X153425939Y-56685912D02*
X153783082Y-56685912D01*
X153783082Y-56685912D02*
X153997368Y-56757341D01*
X154425939Y-56685912D02*
X155283082Y-56685912D01*
X154854510Y-58185912D02*
X154854510Y-56685912D01*
X155711653Y-57757341D02*
X156425939Y-57757341D01*
X155568796Y-58185912D02*
X156068796Y-56685912D01*
X156068796Y-56685912D02*
X156568796Y-58185912D01*
X156854510Y-56685912D02*
X157711653Y-56685912D01*
X157283081Y-58185912D02*
X157283081Y-56685912D01*
X148211653Y-60457971D02*
X148140225Y-60529400D01*
X148140225Y-60529400D02*
X147925939Y-60600828D01*
X147925939Y-60600828D02*
X147783082Y-60600828D01*
X147783082Y-60600828D02*
X147568796Y-60529400D01*
X147568796Y-60529400D02*
X147425939Y-60386542D01*
X147425939Y-60386542D02*
X147354510Y-60243685D01*
X147354510Y-60243685D02*
X147283082Y-59957971D01*
X147283082Y-59957971D02*
X147283082Y-59743685D01*
X147283082Y-59743685D02*
X147354510Y-59457971D01*
X147354510Y-59457971D02*
X147425939Y-59315114D01*
X147425939Y-59315114D02*
X147568796Y-59172257D01*
X147568796Y-59172257D02*
X147783082Y-59100828D01*
X147783082Y-59100828D02*
X147925939Y-59100828D01*
X147925939Y-59100828D02*
X148140225Y-59172257D01*
X148140225Y-59172257D02*
X148211653Y-59243685D01*
X148854510Y-60600828D02*
X148854510Y-59100828D01*
X148854510Y-59815114D02*
X149711653Y-59815114D01*
X149711653Y-60600828D02*
X149711653Y-59100828D01*
X151211654Y-59172257D02*
X151068797Y-59100828D01*
X151068797Y-59100828D02*
X150854511Y-59100828D01*
X150854511Y-59100828D02*
X150640225Y-59172257D01*
X150640225Y-59172257D02*
X150497368Y-59315114D01*
X150497368Y-59315114D02*
X150425939Y-59457971D01*
X150425939Y-59457971D02*
X150354511Y-59743685D01*
X150354511Y-59743685D02*
X150354511Y-59957971D01*
X150354511Y-59957971D02*
X150425939Y-60243685D01*
X150425939Y-60243685D02*
X150497368Y-60386542D01*
X150497368Y-60386542D02*
X150640225Y-60529400D01*
X150640225Y-60529400D02*
X150854511Y-60600828D01*
X150854511Y-60600828D02*
X150997368Y-60600828D01*
X150997368Y-60600828D02*
X151211654Y-60529400D01*
X151211654Y-60529400D02*
X151283082Y-60457971D01*
X151283082Y-60457971D02*
X151283082Y-59957971D01*
X151283082Y-59957971D02*
X150997368Y-59957971D01*
X153068796Y-59815114D02*
X153568796Y-59815114D01*
X153783082Y-60600828D02*
X153068796Y-60600828D01*
X153068796Y-60600828D02*
X153068796Y-59100828D01*
X153068796Y-59100828D02*
X153783082Y-59100828D01*
X155283082Y-60600828D02*
X154783082Y-59886542D01*
X154425939Y-60600828D02*
X154425939Y-59100828D01*
X154425939Y-59100828D02*
X154997368Y-59100828D01*
X154997368Y-59100828D02*
X155140225Y-59172257D01*
X155140225Y-59172257D02*
X155211654Y-59243685D01*
X155211654Y-59243685D02*
X155283082Y-59386542D01*
X155283082Y-59386542D02*
X155283082Y-59600828D01*
X155283082Y-59600828D02*
X155211654Y-59743685D01*
X155211654Y-59743685D02*
X155140225Y-59815114D01*
X155140225Y-59815114D02*
X154997368Y-59886542D01*
X154997368Y-59886542D02*
X154425939Y-59886542D01*
X156783082Y-60600828D02*
X156283082Y-59886542D01*
X155925939Y-60600828D02*
X155925939Y-59100828D01*
X155925939Y-59100828D02*
X156497368Y-59100828D01*
X156497368Y-59100828D02*
X156640225Y-59172257D01*
X156640225Y-59172257D02*
X156711654Y-59243685D01*
X156711654Y-59243685D02*
X156783082Y-59386542D01*
X156783082Y-59386542D02*
X156783082Y-59600828D01*
X156783082Y-59600828D02*
X156711654Y-59743685D01*
X156711654Y-59743685D02*
X156640225Y-59815114D01*
X156640225Y-59815114D02*
X156497368Y-59886542D01*
X156497368Y-59886542D02*
X155925939Y-59886542D01*
X201511653Y-94200828D02*
X201011653Y-93486542D01*
X200654510Y-94200828D02*
X200654510Y-92700828D01*
X200654510Y-92700828D02*
X201225939Y-92700828D01*
X201225939Y-92700828D02*
X201368796Y-92772257D01*
X201368796Y-92772257D02*
X201440225Y-92843685D01*
X201440225Y-92843685D02*
X201511653Y-92986542D01*
X201511653Y-92986542D02*
X201511653Y-93200828D01*
X201511653Y-93200828D02*
X201440225Y-93343685D01*
X201440225Y-93343685D02*
X201368796Y-93415114D01*
X201368796Y-93415114D02*
X201225939Y-93486542D01*
X201225939Y-93486542D02*
X200654510Y-93486542D01*
X202154510Y-93415114D02*
X202654510Y-93415114D01*
X202868796Y-94200828D02*
X202154510Y-94200828D01*
X202154510Y-94200828D02*
X202154510Y-92700828D01*
X202154510Y-92700828D02*
X202868796Y-92700828D01*
X203440225Y-94129400D02*
X203654511Y-94200828D01*
X203654511Y-94200828D02*
X204011653Y-94200828D01*
X204011653Y-94200828D02*
X204154511Y-94129400D01*
X204154511Y-94129400D02*
X204225939Y-94057971D01*
X204225939Y-94057971D02*
X204297368Y-93915114D01*
X204297368Y-93915114D02*
X204297368Y-93772257D01*
X204297368Y-93772257D02*
X204225939Y-93629400D01*
X204225939Y-93629400D02*
X204154511Y-93557971D01*
X204154511Y-93557971D02*
X204011653Y-93486542D01*
X204011653Y-93486542D02*
X203725939Y-93415114D01*
X203725939Y-93415114D02*
X203583082Y-93343685D01*
X203583082Y-93343685D02*
X203511653Y-93272257D01*
X203511653Y-93272257D02*
X203440225Y-93129400D01*
X203440225Y-93129400D02*
X203440225Y-92986542D01*
X203440225Y-92986542D02*
X203511653Y-92843685D01*
X203511653Y-92843685D02*
X203583082Y-92772257D01*
X203583082Y-92772257D02*
X203725939Y-92700828D01*
X203725939Y-92700828D02*
X204083082Y-92700828D01*
X204083082Y-92700828D02*
X204297368Y-92772257D01*
X204940224Y-93415114D02*
X205440224Y-93415114D01*
X205654510Y-94200828D02*
X204940224Y-94200828D01*
X204940224Y-94200828D02*
X204940224Y-92700828D01*
X204940224Y-92700828D02*
X205654510Y-92700828D01*
X206083082Y-92700828D02*
X206940225Y-92700828D01*
X206511653Y-94200828D02*
X206511653Y-92700828D01*
X202654510Y-88415114D02*
X202868796Y-88486542D01*
X202868796Y-88486542D02*
X202940225Y-88557971D01*
X202940225Y-88557971D02*
X203011653Y-88700828D01*
X203011653Y-88700828D02*
X203011653Y-88915114D01*
X203011653Y-88915114D02*
X202940225Y-89057971D01*
X202940225Y-89057971D02*
X202868796Y-89129400D01*
X202868796Y-89129400D02*
X202725939Y-89200828D01*
X202725939Y-89200828D02*
X202154510Y-89200828D01*
X202154510Y-89200828D02*
X202154510Y-87700828D01*
X202154510Y-87700828D02*
X202654510Y-87700828D01*
X202654510Y-87700828D02*
X202797368Y-87772257D01*
X202797368Y-87772257D02*
X202868796Y-87843685D01*
X202868796Y-87843685D02*
X202940225Y-87986542D01*
X202940225Y-87986542D02*
X202940225Y-88129400D01*
X202940225Y-88129400D02*
X202868796Y-88272257D01*
X202868796Y-88272257D02*
X202797368Y-88343685D01*
X202797368Y-88343685D02*
X202654510Y-88415114D01*
X202654510Y-88415114D02*
X202154510Y-88415114D01*
X203940225Y-87700828D02*
X204225939Y-87700828D01*
X204225939Y-87700828D02*
X204368796Y-87772257D01*
X204368796Y-87772257D02*
X204511653Y-87915114D01*
X204511653Y-87915114D02*
X204583082Y-88200828D01*
X204583082Y-88200828D02*
X204583082Y-88700828D01*
X204583082Y-88700828D02*
X204511653Y-88986542D01*
X204511653Y-88986542D02*
X204368796Y-89129400D01*
X204368796Y-89129400D02*
X204225939Y-89200828D01*
X204225939Y-89200828D02*
X203940225Y-89200828D01*
X203940225Y-89200828D02*
X203797368Y-89129400D01*
X203797368Y-89129400D02*
X203654510Y-88986542D01*
X203654510Y-88986542D02*
X203583082Y-88700828D01*
X203583082Y-88700828D02*
X203583082Y-88200828D01*
X203583082Y-88200828D02*
X203654510Y-87915114D01*
X203654510Y-87915114D02*
X203797368Y-87772257D01*
X203797368Y-87772257D02*
X203940225Y-87700828D01*
X205511654Y-87700828D02*
X205797368Y-87700828D01*
X205797368Y-87700828D02*
X205940225Y-87772257D01*
X205940225Y-87772257D02*
X206083082Y-87915114D01*
X206083082Y-87915114D02*
X206154511Y-88200828D01*
X206154511Y-88200828D02*
X206154511Y-88700828D01*
X206154511Y-88700828D02*
X206083082Y-88986542D01*
X206083082Y-88986542D02*
X205940225Y-89129400D01*
X205940225Y-89129400D02*
X205797368Y-89200828D01*
X205797368Y-89200828D02*
X205511654Y-89200828D01*
X205511654Y-89200828D02*
X205368797Y-89129400D01*
X205368797Y-89129400D02*
X205225939Y-88986542D01*
X205225939Y-88986542D02*
X205154511Y-88700828D01*
X205154511Y-88700828D02*
X205154511Y-88200828D01*
X205154511Y-88200828D02*
X205225939Y-87915114D01*
X205225939Y-87915114D02*
X205368797Y-87772257D01*
X205368797Y-87772257D02*
X205511654Y-87700828D01*
X206583083Y-87700828D02*
X207440226Y-87700828D01*
X207011654Y-89200828D02*
X207011654Y-87700828D01*
X157054510Y-71015114D02*
X156554510Y-71015114D01*
X156554510Y-71800828D02*
X156554510Y-70300828D01*
X156554510Y-70300828D02*
X157268796Y-70300828D01*
X157840224Y-71800828D02*
X157840224Y-70300828D01*
X159411653Y-71800828D02*
X158911653Y-71086542D01*
X158554510Y-71800828D02*
X158554510Y-70300828D01*
X158554510Y-70300828D02*
X159125939Y-70300828D01*
X159125939Y-70300828D02*
X159268796Y-70372257D01*
X159268796Y-70372257D02*
X159340225Y-70443685D01*
X159340225Y-70443685D02*
X159411653Y-70586542D01*
X159411653Y-70586542D02*
X159411653Y-70800828D01*
X159411653Y-70800828D02*
X159340225Y-70943685D01*
X159340225Y-70943685D02*
X159268796Y-71015114D01*
X159268796Y-71015114D02*
X159125939Y-71086542D01*
X159125939Y-71086542D02*
X158554510Y-71086542D01*
X160054510Y-71015114D02*
X160554510Y-71015114D01*
X160768796Y-71800828D02*
X160054510Y-71800828D01*
X160054510Y-71800828D02*
X160054510Y-70300828D01*
X160054510Y-70300828D02*
X160768796Y-70300828D01*
X172054510Y-76100828D02*
X172054510Y-74600828D01*
X172911653Y-76100828D02*
X172268796Y-75243685D01*
X172911653Y-74600828D02*
X172054510Y-75457971D01*
X173554510Y-75315114D02*
X174054510Y-75315114D01*
X174268796Y-76100828D02*
X173554510Y-76100828D01*
X173554510Y-76100828D02*
X173554510Y-74600828D01*
X173554510Y-74600828D02*
X174268796Y-74600828D01*
X175197368Y-75386542D02*
X175197368Y-76100828D01*
X174697368Y-74600828D02*
X175197368Y-75386542D01*
X175197368Y-75386542D02*
X175697368Y-74600828D01*
X133940225Y-70600828D02*
X134225939Y-70600828D01*
X134225939Y-70600828D02*
X134368796Y-70672257D01*
X134368796Y-70672257D02*
X134511653Y-70815114D01*
X134511653Y-70815114D02*
X134583082Y-71100828D01*
X134583082Y-71100828D02*
X134583082Y-71600828D01*
X134583082Y-71600828D02*
X134511653Y-71886542D01*
X134511653Y-71886542D02*
X134368796Y-72029400D01*
X134368796Y-72029400D02*
X134225939Y-72100828D01*
X134225939Y-72100828D02*
X133940225Y-72100828D01*
X133940225Y-72100828D02*
X133797368Y-72029400D01*
X133797368Y-72029400D02*
X133654510Y-71886542D01*
X133654510Y-71886542D02*
X133583082Y-71600828D01*
X133583082Y-71600828D02*
X133583082Y-71100828D01*
X133583082Y-71100828D02*
X133654510Y-70815114D01*
X133654510Y-70815114D02*
X133797368Y-70672257D01*
X133797368Y-70672257D02*
X133940225Y-70600828D01*
X135225939Y-72100828D02*
X135225939Y-70600828D01*
X135225939Y-70600828D02*
X136083082Y-72100828D01*
X136083082Y-72100828D02*
X136083082Y-70600828D01*
X137868797Y-70529400D02*
X136583083Y-72457971D01*
X138654512Y-70600828D02*
X138940226Y-70600828D01*
X138940226Y-70600828D02*
X139083083Y-70672257D01*
X139083083Y-70672257D02*
X139225940Y-70815114D01*
X139225940Y-70815114D02*
X139297369Y-71100828D01*
X139297369Y-71100828D02*
X139297369Y-71600828D01*
X139297369Y-71600828D02*
X139225940Y-71886542D01*
X139225940Y-71886542D02*
X139083083Y-72029400D01*
X139083083Y-72029400D02*
X138940226Y-72100828D01*
X138940226Y-72100828D02*
X138654512Y-72100828D01*
X138654512Y-72100828D02*
X138511655Y-72029400D01*
X138511655Y-72029400D02*
X138368797Y-71886542D01*
X138368797Y-71886542D02*
X138297369Y-71600828D01*
X138297369Y-71600828D02*
X138297369Y-71100828D01*
X138297369Y-71100828D02*
X138368797Y-70815114D01*
X138368797Y-70815114D02*
X138511655Y-70672257D01*
X138511655Y-70672257D02*
X138654512Y-70600828D01*
X140440226Y-71315114D02*
X139940226Y-71315114D01*
X139940226Y-72100828D02*
X139940226Y-70600828D01*
X139940226Y-70600828D02*
X140654512Y-70600828D01*
X141725940Y-71315114D02*
X141225940Y-71315114D01*
X141225940Y-72100828D02*
X141225940Y-70600828D01*
X141225940Y-70600828D02*
X141940226Y-70600828D01*
D12*
X156935200Y-79904819D02*
X156935200Y-80142914D01*
X156697105Y-80047676D02*
X156935200Y-80142914D01*
X156935200Y-80142914D02*
X157173295Y-80047676D01*
X156792343Y-80333390D02*
X156935200Y-80142914D01*
X156935200Y-80142914D02*
X157078057Y-80333390D01*
X156935200Y-79904819D02*
X156935200Y-80142914D01*
X156697105Y-80047676D02*
X156935200Y-80142914D01*
X156935200Y-80142914D02*
X157173295Y-80047676D01*
X156792343Y-80333390D02*
X156935200Y-80142914D01*
X156935200Y-80142914D02*
X157078057Y-80333390D01*
X163301319Y-95873799D02*
X163539414Y-95873799D01*
X163444176Y-96111894D02*
X163539414Y-95873799D01*
X163539414Y-95873799D02*
X163444176Y-95635704D01*
X163729890Y-96016656D02*
X163539414Y-95873799D01*
X163539414Y-95873799D02*
X163729890Y-95730942D01*
X163301319Y-95873799D02*
X163539414Y-95873799D01*
X163444176Y-96111894D02*
X163539414Y-95873799D01*
X163539414Y-95873799D02*
X163444176Y-95635704D01*
X163729890Y-96016656D02*
X163539414Y-95873799D01*
X163539414Y-95873799D02*
X163729890Y-95730942D01*
X185988866Y-87963220D02*
X185988866Y-87201316D01*
X178388866Y-88163220D02*
X178388866Y-87401316D01*
X178769819Y-87782268D02*
X178007914Y-87782268D01*
D10*
X140900000Y-56700000D02*
X145500000Y-55700000D01*
X140900000Y-55500000D02*
X145500000Y-54500000D01*
X140900000Y-54000000D02*
X145500000Y-53000000D01*
X140900000Y-52700000D02*
X145500000Y-51700000D01*
X140700000Y-69500000D02*
X145700000Y-69500000D01*
X145700000Y-57500000D01*
X140700000Y-57500000D01*
X140700000Y-69500000D01*
X140900000Y-57500000D02*
X145500000Y-57500000D01*
X145500000Y-51500000D01*
X140900000Y-51500000D01*
X140900000Y-57500000D01*
X142200000Y-51500000D02*
X144200000Y-51500000D01*
X144200000Y-49500000D01*
X142200000Y-49500000D01*
X142200000Y-51500000D01*
X141800000Y-49500000D02*
X144600000Y-49500000D01*
X144600000Y-49000000D01*
X141800000Y-49000000D01*
X141800000Y-49500000D01*
X140100000Y-49000000D02*
X146300000Y-49000000D01*
X146300000Y-40000000D01*
X140100000Y-40000000D01*
X140100000Y-49000000D01*
X159700000Y-56550000D02*
X164300000Y-55550000D01*
X159700000Y-55350000D02*
X164300000Y-54350000D01*
X159700000Y-53850000D02*
X164300000Y-52850000D01*
X159700000Y-52550000D02*
X164300000Y-51550000D01*
X159500000Y-69350000D02*
X164500000Y-69350000D01*
X164500000Y-57350000D01*
X159500000Y-57350000D01*
X159500000Y-69350000D01*
X159700000Y-57350000D02*
X164300000Y-57350000D01*
X164300000Y-51350000D01*
X159700000Y-51350000D01*
X159700000Y-57350000D01*
X161000000Y-51350000D02*
X163000000Y-51350000D01*
X163000000Y-49350000D01*
X161000000Y-49350000D01*
X161000000Y-51350000D01*
X160600000Y-49350000D02*
X163400000Y-49350000D01*
X163400000Y-48850000D01*
X160600000Y-48850000D01*
X160600000Y-49350000D01*
X158900000Y-48850000D02*
X165100000Y-48850000D01*
X165100000Y-39850000D01*
X158900000Y-39850000D01*
X158900000Y-48850000D01*
D13*
X229660000Y-67100000D02*
X229160000Y-67100000D01*
X229160000Y-66600000D01*
X229660000Y-67100000D01*
G36*
X229660000Y-67100000D02*
G01*
X229160000Y-67100000D01*
X229160000Y-66600000D01*
X229660000Y-67100000D01*
G37*
X229910000Y-85500000D02*
X229210000Y-85500000D01*
X229910000Y-67100000D02*
X229910000Y-85500000D01*
X211310000Y-67100000D02*
X210310000Y-67100000D01*
X210310000Y-85500000D02*
X211310000Y-85500000D01*
X210310000Y-85500000D02*
X210310000Y-84000000D01*
X210310000Y-67100000D02*
X210310000Y-68600000D01*
X219322500Y-91962742D02*
X219322500Y-92437258D01*
X218277500Y-91962742D02*
X218277500Y-92437258D01*
X220822500Y-91962742D02*
X220822500Y-92437258D01*
X219777500Y-91962742D02*
X219777500Y-92437258D01*
D14*
X161963919Y-77224200D02*
X160136081Y-77224200D01*
X160136081Y-83675800D02*
X161963919Y-83675800D01*
X167072300Y-92672919D02*
X167072300Y-90845081D01*
X160620700Y-90845081D02*
X160620700Y-92672919D01*
D13*
X206995000Y-122870000D02*
X206755000Y-122540000D01*
X207235000Y-122540000D01*
X206995000Y-122870000D01*
G36*
X206995000Y-122870000D02*
G01*
X206755000Y-122540000D01*
X207235000Y-122540000D01*
X206995000Y-122870000D01*
G37*
X210215000Y-126090000D02*
X210215000Y-125615000D01*
X210215000Y-122870000D02*
X210215000Y-123345000D01*
X209740000Y-126090000D02*
X210215000Y-126090000D01*
X209740000Y-122870000D02*
X210215000Y-122870000D01*
X207470000Y-126090000D02*
X206995000Y-126090000D01*
X207470000Y-122870000D02*
X207295000Y-122870000D01*
X206995000Y-126090000D02*
X206995000Y-125615000D01*
X206995000Y-123345000D02*
X206995000Y-123110000D01*
X153990000Y-123840580D02*
X153990000Y-123559420D01*
X155010000Y-123840580D02*
X155010000Y-123559420D01*
X143121830Y-94610000D02*
X142840670Y-94610000D01*
X143121830Y-93590000D02*
X142840670Y-93590000D01*
X208610000Y-128554420D02*
X208610000Y-128835580D01*
X207590000Y-128554420D02*
X207590000Y-128835580D01*
X151740670Y-88790000D02*
X152021830Y-88790000D01*
X151740670Y-89810000D02*
X152021830Y-89810000D01*
X159956500Y-88799580D02*
X159956500Y-88518420D01*
X158936500Y-88799580D02*
X158936500Y-88518420D01*
X162336500Y-86799580D02*
X162336500Y-86518420D01*
X163356500Y-86799580D02*
X163356500Y-86518420D01*
X160736500Y-86799580D02*
X160736500Y-86518420D01*
X161756500Y-86799580D02*
X161756500Y-86518420D01*
X151740670Y-90390000D02*
X152021830Y-90390000D01*
X151740670Y-91410000D02*
X152021830Y-91410000D01*
X165410000Y-75309420D02*
X165410000Y-75590580D01*
X164390000Y-75309420D02*
X164390000Y-75590580D01*
X163810000Y-75309420D02*
X163810000Y-75590580D01*
X162790000Y-75309420D02*
X162790000Y-75590580D01*
X135110000Y-81859420D02*
X135110000Y-82140580D01*
X134090000Y-81859420D02*
X134090000Y-82140580D01*
X143390000Y-75540580D02*
X143390000Y-75259420D01*
X144410000Y-75540580D02*
X144410000Y-75259420D01*
X144890000Y-75540580D02*
X144890000Y-75259420D01*
X145910000Y-75540580D02*
X145910000Y-75259420D01*
X200877500Y-73637258D02*
X200877500Y-73162742D01*
X201922500Y-73637258D02*
X201922500Y-73162742D01*
D10*
X157170000Y-56095816D02*
X152850000Y-56095816D01*
X152850000Y-47965816D01*
X157170000Y-47965816D01*
X157170000Y-56095816D01*
X153500000Y-47947439D02*
G75*
G02*
X156499460Y-47936699I1500000J-70000D01*
G01*
X152170000Y-56095816D02*
X147850000Y-56095816D01*
X147850000Y-47965816D01*
X152170000Y-47965816D01*
X152170000Y-56095816D01*
X148500000Y-47947439D02*
G75*
G02*
X151499460Y-47936699I1500000J-70000D01*
G01*
D15*
X133250000Y-104000000D02*
X133250000Y-103000000D01*
X133750000Y-103500000D02*
X132750000Y-103500000D01*
X137475000Y-97675000D02*
X214525000Y-97675000D01*
X137475000Y-104450000D02*
X137475000Y-97675000D01*
X137475000Y-118325000D02*
X137475000Y-111550000D01*
X214525000Y-97675000D02*
X214525000Y-104450000D01*
X214525000Y-111550000D02*
X214525000Y-118325000D01*
X214525000Y-118325000D02*
X137475000Y-118325000D01*
X219250000Y-104000000D02*
X218250000Y-104000000D01*
D13*
X195315000Y-127237500D02*
X195315000Y-128737500D01*
X195315000Y-127237500D02*
X195315000Y-125737500D01*
X198535000Y-127237500D02*
X198535000Y-128737500D01*
X198535000Y-127237500D02*
X198535000Y-125737500D01*
X195490000Y-129505000D02*
X195160000Y-129745000D01*
X195160000Y-129265000D01*
X195490000Y-129505000D01*
G36*
X195490000Y-129505000D02*
G01*
X195160000Y-129745000D01*
X195160000Y-129265000D01*
X195490000Y-129505000D01*
G37*
X190040000Y-127212500D02*
X190040000Y-128712500D01*
X190040000Y-127212500D02*
X190040000Y-125712500D01*
X193260000Y-127212500D02*
X193260000Y-128712500D01*
X193260000Y-127212500D02*
X193260000Y-125712500D01*
X190215000Y-129480000D02*
X189885000Y-129720000D01*
X189885000Y-129240000D01*
X190215000Y-129480000D01*
G36*
X190215000Y-129480000D02*
G01*
X189885000Y-129720000D01*
X189885000Y-129240000D01*
X190215000Y-129480000D01*
G37*
X184777500Y-127245000D02*
X184777500Y-128745000D01*
X184777500Y-127245000D02*
X184777500Y-125745000D01*
X187997500Y-127245000D02*
X187997500Y-128745000D01*
X187997500Y-127245000D02*
X187997500Y-125745000D01*
X184952500Y-129512500D02*
X184622500Y-129752500D01*
X184622500Y-129272500D01*
X184952500Y-129512500D01*
G36*
X184952500Y-129512500D02*
G01*
X184622500Y-129752500D01*
X184622500Y-129272500D01*
X184952500Y-129512500D01*
G37*
X148215000Y-91633750D02*
X147735000Y-91633750D01*
X147975000Y-91303750D01*
X148215000Y-91633750D01*
G36*
X148215000Y-91633750D02*
G01*
X147735000Y-91633750D01*
X147975000Y-91303750D01*
X148215000Y-91633750D01*
G37*
X146675000Y-88233750D02*
X145875000Y-88233750D01*
X146675000Y-88233750D02*
X147475000Y-88233750D01*
X146675000Y-91353750D02*
X145875000Y-91353750D01*
X146675000Y-91353750D02*
X147475000Y-91353750D01*
X149318508Y-87822500D02*
X148843992Y-87822500D01*
X149318508Y-86777500D02*
X148843992Y-86777500D01*
X150103750Y-90231008D02*
X150103750Y-89756492D01*
X149058750Y-90231008D02*
X149058750Y-89756492D01*
X146279186Y-94553750D02*
X147483314Y-94553750D01*
X146279186Y-91833750D02*
X147483314Y-91833750D01*
X149531250Y-91690000D02*
X149531250Y-94350000D01*
X151231250Y-91690000D02*
X151231250Y-94350000D01*
X151231250Y-91690000D02*
X149531250Y-91690000D01*
D14*
X219905500Y-56921000D02*
X219905500Y-55345280D01*
X219905500Y-53522719D02*
X219905500Y-52755280D01*
X218366345Y-51079000D02*
X209784237Y-51079000D01*
X208094500Y-56921000D02*
X219905500Y-56921000D01*
X208094500Y-54923575D02*
X208094500Y-56921000D01*
D16*
X207840500Y-55484000D02*
G75*
G02*
X207078500Y-55484000I-381000J0D01*
G01*
X207078500Y-55484000D02*
G75*
G02*
X207840500Y-55484000I381000J0D01*
G01*
D13*
X161700000Y-74900000D02*
X160600000Y-74900000D01*
X161700000Y-76700000D02*
X160400000Y-76700000D01*
X160350000Y-74900000D02*
X160070000Y-74900000D01*
X160350000Y-74620000D01*
X160350000Y-74900000D01*
G36*
X160350000Y-74900000D02*
G01*
X160070000Y-74900000D01*
X160350000Y-74620000D01*
X160350000Y-74900000D01*
G37*
X194387500Y-89765000D02*
X192187500Y-89765000D01*
X194387500Y-89765000D02*
X196587500Y-89765000D01*
X194387500Y-95235000D02*
X192187500Y-95235000D01*
X194387500Y-95235000D02*
X196587500Y-95235000D01*
X190527500Y-90225000D02*
X190197500Y-90465000D01*
X190197500Y-89985000D01*
X190527500Y-90225000D01*
G36*
X190527500Y-90225000D02*
G01*
X190197500Y-90465000D01*
X190197500Y-89985000D01*
X190527500Y-90225000D01*
G37*
X158146500Y-93519000D02*
X158946500Y-93519000D01*
X158146500Y-93519000D02*
X157346500Y-93519000D01*
X158146500Y-90399000D02*
X158946500Y-90399000D01*
X158146500Y-90399000D02*
X157346500Y-90399000D01*
X159686500Y-93799000D02*
X159206500Y-93799000D01*
X159446500Y-93469000D01*
X159686500Y-93799000D01*
G36*
X159686500Y-93799000D02*
G01*
X159206500Y-93799000D01*
X159446500Y-93469000D01*
X159686500Y-93799000D01*
G37*
X134010000Y-93805000D02*
X133530000Y-93325000D01*
X134010000Y-93325000D01*
X134010000Y-93805000D01*
G36*
X134010000Y-93805000D02*
G01*
X133530000Y-93325000D01*
X134010000Y-93325000D01*
X134010000Y-93805000D01*
G37*
X136920000Y-92805000D02*
X136920000Y-89805000D01*
X133700000Y-92805000D02*
X133700000Y-89805000D01*
X139837258Y-125722500D02*
X139362742Y-125722500D01*
X139837258Y-124677500D02*
X139362742Y-124677500D01*
X146632742Y-123092500D02*
X147107258Y-123092500D01*
X146632742Y-124137500D02*
X147107258Y-124137500D01*
X143977500Y-128637258D02*
X143977500Y-128162742D01*
X145022500Y-128637258D02*
X145022500Y-128162742D01*
X147107258Y-122637500D02*
X146632742Y-122637500D01*
X147107258Y-121592500D02*
X146632742Y-121592500D01*
X150562742Y-120077500D02*
X151037258Y-120077500D01*
X150562742Y-121122500D02*
X151037258Y-121122500D01*
X146522500Y-128162742D02*
X146522500Y-128637258D01*
X145477500Y-128162742D02*
X145477500Y-128637258D01*
X228022500Y-92262742D02*
X228022500Y-92737258D01*
X226977500Y-92262742D02*
X226977500Y-92737258D01*
X225477500Y-92737258D02*
X225477500Y-92262742D01*
X226522500Y-92737258D02*
X226522500Y-92262742D01*
X223837258Y-63422500D02*
X223362742Y-63422500D01*
X223837258Y-62377500D02*
X223362742Y-62377500D01*
X171237258Y-91222500D02*
X170762742Y-91222500D01*
X171237258Y-90177500D02*
X170762742Y-90177500D01*
X158237258Y-75222500D02*
X157762742Y-75222500D01*
X158237258Y-74177500D02*
X157762742Y-74177500D01*
X177862742Y-119677500D02*
X178337258Y-119677500D01*
X177862742Y-120722500D02*
X178337258Y-120722500D01*
X161237258Y-74322500D02*
X160762742Y-74322500D01*
X161237258Y-73277500D02*
X160762742Y-73277500D01*
X175237258Y-121922500D02*
X174762742Y-121922500D01*
X175237258Y-120877500D02*
X174762742Y-120877500D01*
X208662742Y-63777500D02*
X209137258Y-63777500D01*
X208662742Y-64822500D02*
X209137258Y-64822500D01*
X139258750Y-87662742D02*
X139258750Y-88137258D01*
X140303750Y-87662742D02*
X140303750Y-88137258D01*
X155669000Y-91521742D02*
X155669000Y-91996258D01*
X154624000Y-91521742D02*
X154624000Y-91996258D01*
X214077500Y-63937258D02*
X214077500Y-63462742D01*
X215122500Y-63937258D02*
X215122500Y-63462742D01*
X220737258Y-65022500D02*
X220262742Y-65022500D01*
X220737258Y-63977500D02*
X220262742Y-63977500D01*
X140303750Y-91137258D02*
X140303750Y-90662742D01*
X139258750Y-91137258D02*
X139258750Y-90662742D01*
X155669000Y-88421742D02*
X155669000Y-88896258D01*
X154624000Y-88421742D02*
X154624000Y-88896258D01*
X139258750Y-93662742D02*
X139258750Y-94137258D01*
X140303750Y-93662742D02*
X140303750Y-94137258D01*
X135277500Y-87837258D02*
X135277500Y-87362742D01*
X136322500Y-87837258D02*
X136322500Y-87362742D01*
X136777500Y-87837258D02*
X136777500Y-87362742D01*
X137822500Y-87837258D02*
X137822500Y-87362742D01*
X150937258Y-79322500D02*
X150462742Y-79322500D01*
X150937258Y-78277500D02*
X150462742Y-78277500D01*
X149877500Y-75837258D02*
X149877500Y-75362742D01*
X150922500Y-75837258D02*
X150922500Y-75362742D01*
X134922500Y-78762742D02*
X134922500Y-79237258D01*
X133877500Y-78762742D02*
X133877500Y-79237258D01*
X153522500Y-77762742D02*
X153522500Y-78237258D01*
X152477500Y-77762742D02*
X152477500Y-78237258D01*
X135277500Y-95137258D02*
X135277500Y-94662742D01*
X136322500Y-95137258D02*
X136322500Y-94662742D01*
X152377500Y-75237258D02*
X152377500Y-74762742D01*
X153422500Y-75237258D02*
X153422500Y-74762742D01*
X147462742Y-78277500D02*
X147937258Y-78277500D01*
X147462742Y-79322500D02*
X147937258Y-79322500D01*
X144462742Y-82277500D02*
X144937258Y-82277500D01*
X144462742Y-83322500D02*
X144937258Y-83322500D01*
X142922500Y-81762742D02*
X142922500Y-82237258D01*
X141877500Y-81762742D02*
X141877500Y-82237258D01*
X208662742Y-61552500D02*
X209137258Y-61552500D01*
X208662742Y-62597500D02*
X209137258Y-62597500D01*
X186222500Y-80437258D02*
X186222500Y-79962742D01*
X185177500Y-80437258D02*
X185177500Y-79962742D01*
X188577500Y-77637258D02*
X188577500Y-77162742D01*
X189622500Y-77637258D02*
X189622500Y-77162742D01*
X192862742Y-77677500D02*
X193337258Y-77677500D01*
X192862742Y-78722500D02*
X193337258Y-78722500D01*
X191222500Y-77162742D02*
X191222500Y-77637258D01*
X190177500Y-77162742D02*
X190177500Y-77637258D01*
X192862742Y-76077500D02*
X193337258Y-76077500D01*
X192862742Y-77122500D02*
X193337258Y-77122500D01*
X155622500Y-65537742D02*
X155622500Y-66012258D01*
X154577500Y-65537742D02*
X154577500Y-66012258D01*
X141762500Y-126640000D02*
X141112500Y-126640000D01*
X141762500Y-126640000D02*
X142412500Y-126640000D01*
X141762500Y-129760000D02*
X141112500Y-129760000D01*
X141762500Y-129760000D02*
X142412500Y-129760000D01*
X140600000Y-126690000D02*
X140360000Y-126360000D01*
X140840000Y-126360000D01*
X140600000Y-126690000D01*
G36*
X140600000Y-126690000D02*
G01*
X140360000Y-126360000D01*
X140840000Y-126360000D01*
X140600000Y-126690000D01*
G37*
X150400000Y-121540000D02*
X149750000Y-121540000D01*
X150400000Y-121540000D02*
X151050000Y-121540000D01*
X150400000Y-124660000D02*
X149750000Y-124660000D01*
X150400000Y-124660000D02*
X151050000Y-124660000D01*
X149237500Y-121590000D02*
X148997500Y-121260000D01*
X149477500Y-121260000D01*
X149237500Y-121590000D01*
G36*
X149237500Y-121590000D02*
G01*
X148997500Y-121260000D01*
X149477500Y-121260000D01*
X149237500Y-121590000D01*
G37*
X147040000Y-127900000D02*
X147040000Y-128550000D01*
X147040000Y-127900000D02*
X147040000Y-127250000D01*
X150160000Y-127900000D02*
X150160000Y-128550000D01*
X150160000Y-127900000D02*
X150160000Y-127250000D01*
X147090000Y-129062500D02*
X146760000Y-129302500D01*
X146760000Y-128822500D01*
X147090000Y-129062500D01*
G36*
X147090000Y-129062500D02*
G01*
X146760000Y-129302500D01*
X146760000Y-128822500D01*
X147090000Y-129062500D01*
G37*
X193502500Y-89740000D02*
X193022500Y-89740000D01*
X193262500Y-89410000D01*
X193502500Y-89740000D01*
G36*
X193502500Y-89740000D02*
G01*
X193022500Y-89740000D01*
X193262500Y-89410000D01*
X193502500Y-89740000D01*
G37*
X192100000Y-86340000D02*
X191450000Y-86340000D01*
X192100000Y-86340000D02*
X192750000Y-86340000D01*
X192100000Y-89460000D02*
X191450000Y-89460000D01*
X192100000Y-89460000D02*
X192750000Y-89460000D01*
X172685000Y-93400000D02*
X172685000Y-92750000D01*
X172685000Y-93400000D02*
X172685000Y-94050000D01*
X169565000Y-93400000D02*
X169565000Y-92750000D01*
X169565000Y-93400000D02*
X169565000Y-94050000D01*
X172965000Y-92477500D02*
X172635000Y-92237500D01*
X172965000Y-91997500D01*
X172965000Y-92477500D01*
G36*
X172965000Y-92477500D02*
G01*
X172635000Y-92237500D01*
X172965000Y-91997500D01*
X172965000Y-92477500D01*
G37*
X176760000Y-124062500D02*
X176760000Y-123412500D01*
X176760000Y-124062500D02*
X176760000Y-124712500D01*
X173640000Y-124062500D02*
X173640000Y-123412500D01*
X173640000Y-124062500D02*
X173640000Y-124712500D01*
X177040000Y-123140000D02*
X176710000Y-122900000D01*
X177040000Y-122660000D01*
X177040000Y-123140000D01*
G36*
X177040000Y-123140000D02*
G01*
X176710000Y-122900000D01*
X177040000Y-122660000D01*
X177040000Y-123140000D01*
G37*
X141381250Y-86590000D02*
X141141250Y-86260000D01*
X141621250Y-86260000D01*
X141381250Y-86590000D01*
G36*
X141381250Y-86590000D02*
G01*
X141141250Y-86260000D01*
X141621250Y-86260000D01*
X141381250Y-86590000D01*
G37*
X142543750Y-89660000D02*
X143193750Y-89660000D01*
X142543750Y-89660000D02*
X141893750Y-89660000D01*
X142543750Y-86540000D02*
X143193750Y-86540000D01*
X142543750Y-86540000D02*
X141893750Y-86540000D01*
X215640000Y-63300000D02*
X215640000Y-63950000D01*
X215640000Y-63300000D02*
X215640000Y-62650000D01*
X218760000Y-63300000D02*
X218760000Y-63950000D01*
X218760000Y-63300000D02*
X218760000Y-62650000D01*
X215690000Y-64462500D02*
X215360000Y-64702500D01*
X215360000Y-64222500D01*
X215690000Y-64462500D01*
G36*
X215690000Y-64462500D02*
G01*
X215360000Y-64702500D01*
X215360000Y-64222500D01*
X215690000Y-64462500D01*
G37*
X141381250Y-90090000D02*
X141141250Y-89760000D01*
X141621250Y-89760000D01*
X141381250Y-90090000D01*
G36*
X141381250Y-90090000D02*
G01*
X141141250Y-89760000D01*
X141621250Y-89760000D01*
X141381250Y-90090000D01*
G37*
X142543750Y-93160000D02*
X143193750Y-93160000D01*
X142543750Y-93160000D02*
X141893750Y-93160000D01*
X142543750Y-90040000D02*
X143193750Y-90040000D01*
X142543750Y-90040000D02*
X141893750Y-90040000D01*
X149460000Y-76062500D02*
X149460000Y-75412500D01*
X149460000Y-76062500D02*
X149460000Y-76712500D01*
X146340000Y-76062500D02*
X146340000Y-75412500D01*
X146340000Y-76062500D02*
X146340000Y-76712500D01*
X149740000Y-75140000D02*
X149410000Y-74900000D01*
X149740000Y-74660000D01*
X149740000Y-75140000D01*
G36*
X149740000Y-75140000D02*
G01*
X149410000Y-74900000D01*
X149740000Y-74660000D01*
X149740000Y-75140000D01*
G37*
X149560000Y-81500000D02*
X149560000Y-80850000D01*
X149560000Y-81500000D02*
X149560000Y-82150000D01*
X146440000Y-81500000D02*
X146440000Y-80850000D01*
X146440000Y-81500000D02*
X146440000Y-82150000D01*
X149840000Y-80577500D02*
X149510000Y-80337500D01*
X149840000Y-80097500D01*
X149840000Y-80577500D01*
G36*
X149840000Y-80577500D02*
G01*
X149510000Y-80337500D01*
X149840000Y-80097500D01*
X149840000Y-80577500D01*
G37*
X135340000Y-78500000D02*
X135340000Y-79150000D01*
X135340000Y-78500000D02*
X135340000Y-77850000D01*
X138460000Y-78500000D02*
X138460000Y-79150000D01*
X138460000Y-78500000D02*
X138460000Y-77850000D01*
X135390000Y-79662500D02*
X135060000Y-79902500D01*
X135060000Y-79422500D01*
X135390000Y-79662500D01*
G36*
X135390000Y-79662500D02*
G01*
X135060000Y-79902500D01*
X135060000Y-79422500D01*
X135390000Y-79662500D01*
G37*
X144237500Y-77090000D02*
X143587500Y-77090000D01*
X144237500Y-77090000D02*
X144887500Y-77090000D01*
X144237500Y-80210000D02*
X143587500Y-80210000D01*
X144237500Y-80210000D02*
X144887500Y-80210000D01*
X143075000Y-77140000D02*
X142835000Y-76810000D01*
X143315000Y-76810000D01*
X143075000Y-77140000D01*
G36*
X143075000Y-77140000D02*
G01*
X142835000Y-76810000D01*
X143315000Y-76810000D01*
X143075000Y-77140000D01*
G37*
X192700000Y-75560000D02*
X193350000Y-75560000D01*
X192700000Y-75560000D02*
X192050000Y-75560000D01*
X192700000Y-72440000D02*
X193350000Y-72440000D01*
X192700000Y-72440000D02*
X192050000Y-72440000D01*
X194102500Y-75840000D02*
X193622500Y-75840000D01*
X193862500Y-75510000D01*
X194102500Y-75840000D01*
G36*
X194102500Y-75840000D02*
G01*
X193622500Y-75840000D01*
X193862500Y-75510000D01*
X194102500Y-75840000D01*
G37*
X144530000Y-125605000D02*
X143200000Y-125605000D01*
X144530000Y-124275000D02*
X144530000Y-125605000D01*
X144530000Y-123005000D02*
X144530000Y-120405000D01*
X144530000Y-123005000D02*
X141870000Y-123005000D01*
X144530000Y-120405000D02*
X141870000Y-120405000D01*
X141870000Y-123005000D02*
X141870000Y-120405000D01*
X226330000Y-97550000D02*
X226330000Y-117990000D01*
X223730000Y-100150000D02*
X223730000Y-97550000D01*
X223730000Y-97550000D02*
X226330000Y-97550000D01*
X221130000Y-117990000D02*
X226330000Y-117990000D01*
X221130000Y-100150000D02*
X223730000Y-100150000D01*
X221130000Y-100150000D02*
X221130000Y-117990000D01*
X221130000Y-98880000D02*
X221130000Y-97550000D01*
X221130000Y-97550000D02*
X222460000Y-97550000D01*
X221270000Y-60730000D02*
X221270000Y-59400000D01*
X222600000Y-60730000D02*
X221270000Y-60730000D01*
X223870000Y-60730000D02*
X229010000Y-60730000D01*
X223870000Y-60730000D02*
X223870000Y-58070000D01*
X229010000Y-60730000D02*
X229010000Y-58070000D01*
X223870000Y-58070000D02*
X229010000Y-58070000D01*
X150690000Y-128202064D02*
X150690000Y-126997936D01*
X152510000Y-128202064D02*
X152510000Y-126997936D01*
X138750000Y-80410000D02*
X142050000Y-80410000D01*
X138750000Y-80410000D02*
X138750000Y-74900000D01*
X142050000Y-80410000D02*
X142050000Y-74900000D01*
X199746920Y-89990000D02*
X200028080Y-89990000D01*
X199746920Y-91010000D02*
X200028080Y-91010000D01*
X158140580Y-76710000D02*
X157859420Y-76710000D01*
X158140580Y-75690000D02*
X157859420Y-75690000D01*
X163936500Y-86799580D02*
X163936500Y-86518420D01*
X164956500Y-86799580D02*
X164956500Y-86518420D01*
X220359420Y-62390000D02*
X220640580Y-62390000D01*
X220359420Y-63410000D02*
X220640580Y-63410000D01*
X158887080Y-94969000D02*
X158605920Y-94969000D01*
X158887080Y-93949000D02*
X158605920Y-93949000D01*
X158356500Y-88799580D02*
X158356500Y-88518420D01*
X157336500Y-88799580D02*
X157336500Y-88518420D01*
X137240580Y-76210000D02*
X136959420Y-76210000D01*
X137240580Y-75190000D02*
X136959420Y-75190000D01*
X134810000Y-94759420D02*
X134810000Y-95040580D01*
X133790000Y-94759420D02*
X133790000Y-95040580D01*
X133790000Y-87740580D02*
X133790000Y-87459420D01*
X134810000Y-87740580D02*
X134810000Y-87459420D01*
X144559420Y-80690000D02*
X144840580Y-80690000D01*
X144559420Y-81710000D02*
X144840580Y-81710000D01*
X141310000Y-81859420D02*
X141310000Y-82140580D01*
X140290000Y-81859420D02*
X140290000Y-82140580D01*
X172710000Y-124359420D02*
X172710000Y-124640580D01*
X171690000Y-124359420D02*
X171690000Y-124640580D01*
X195615000Y-122640580D02*
X195615000Y-122359420D01*
X196635000Y-122640580D02*
X196635000Y-122359420D01*
X195837258Y-88277500D02*
X195362742Y-88277500D01*
X195837258Y-89322500D02*
X195362742Y-89322500D01*
X168130000Y-128655000D02*
X166800000Y-128655000D01*
X168130000Y-127325000D02*
X168130000Y-128655000D01*
X165470000Y-126055000D02*
X165470000Y-120915000D01*
X168130000Y-126055000D02*
X165470000Y-126055000D01*
X168130000Y-126055000D02*
X168130000Y-120915000D01*
X168130000Y-120915000D02*
X165470000Y-120915000D01*
D10*
X188200000Y-89500000D02*
G75*
G02*
X176200000Y-89500000I-6000000J0D01*
G01*
X176200000Y-89500000D02*
G75*
G02*
X188200000Y-89500000I6000000J0D01*
G01*
D13*
X227659420Y-63094394D02*
X227940580Y-63094394D01*
X227659420Y-64114394D02*
X227940580Y-64114394D01*
X197577500Y-59762742D02*
X197577500Y-60237258D01*
X198622500Y-59762742D02*
X198622500Y-60237258D01*
X139362742Y-124222500D02*
X139837258Y-124222500D01*
X139362742Y-123177500D02*
X139837258Y-123177500D01*
X204402500Y-69765000D02*
X204402500Y-71235000D01*
X204402500Y-71235000D02*
X206687500Y-71235000D01*
X206687500Y-69765000D02*
X204402500Y-69765000D01*
X182412742Y-124427500D02*
X182887258Y-124427500D01*
X182412742Y-125472500D02*
X182887258Y-125472500D01*
D10*
X137000000Y-131700000D02*
X151000000Y-131700000D01*
X151000000Y-151700000D01*
X137000000Y-151700000D01*
X137000000Y-131700000D01*
D13*
X218977500Y-59912258D02*
X218977500Y-59437742D01*
X220022500Y-59912258D02*
X220022500Y-59437742D01*
X204670000Y-53100000D02*
X204670000Y-54800000D01*
X195330000Y-53100000D02*
X195330000Y-54800000D01*
X202512258Y-124377500D02*
X202037742Y-124377500D01*
X202512258Y-125422500D02*
X202037742Y-125422500D01*
X220822500Y-88637258D02*
X220822500Y-88162742D01*
X219777500Y-88637258D02*
X219777500Y-88162742D01*
X138302064Y-82510000D02*
X137097936Y-82510000D01*
X138302064Y-80690000D02*
X137097936Y-80690000D01*
X156290000Y-62815580D02*
X156290000Y-62534420D01*
X157310000Y-62815580D02*
X157310000Y-62534420D01*
X208822500Y-82537258D02*
X208822500Y-82062742D01*
X207777500Y-82537258D02*
X207777500Y-82062742D01*
X199377500Y-63862742D02*
X199377500Y-64337258D01*
X200422500Y-63862742D02*
X200422500Y-64337258D01*
X217522500Y-88637258D02*
X217522500Y-88162742D01*
X216477500Y-88637258D02*
X216477500Y-88162742D01*
X200877500Y-63862742D02*
X200877500Y-64337258D01*
X201922500Y-63862742D02*
X201922500Y-64337258D01*
X151843992Y-86777500D02*
X152318508Y-86777500D01*
X151843992Y-87822500D02*
X152318508Y-87822500D01*
X185315000Y-122540580D02*
X185315000Y-122259420D01*
X186335000Y-122540580D02*
X186335000Y-122259420D01*
D10*
X173000000Y-131700000D02*
X187000000Y-131700000D01*
X187000000Y-151700000D01*
X173000000Y-151700000D01*
X173000000Y-131700000D01*
D13*
X183360000Y-77760000D02*
X183360000Y-76510000D01*
X183060000Y-77460000D02*
X183060000Y-72740000D01*
X183060000Y-76150000D02*
X182450000Y-76150000D01*
X183060000Y-74850000D02*
X182450000Y-74850000D01*
X183060000Y-72740000D02*
X176940000Y-72740000D01*
X182450000Y-76850000D02*
X182450000Y-73350000D01*
X182450000Y-73350000D02*
X177550000Y-73350000D01*
X182110000Y-77760000D02*
X183360000Y-77760000D01*
X181600000Y-77660000D02*
X181600000Y-77460000D01*
X181300000Y-77660000D02*
X181600000Y-77660000D01*
X181300000Y-77560000D02*
X181600000Y-77560000D01*
X181300000Y-77460000D02*
X181300000Y-77660000D01*
X180500000Y-77460000D02*
X180500000Y-76850000D01*
X180500000Y-76850000D02*
X182450000Y-76850000D01*
X180100000Y-73850000D02*
X179900000Y-73850000D01*
X180100000Y-73350000D02*
X180100000Y-73850000D01*
X180000000Y-73350000D02*
X180000000Y-73850000D01*
X179900000Y-73850000D02*
X179900000Y-73350000D01*
X179500000Y-76850000D02*
X179500000Y-77460000D01*
X177550000Y-76850000D02*
X179500000Y-76850000D01*
X177550000Y-73350000D02*
X177550000Y-76850000D01*
X176940000Y-77460000D02*
X183060000Y-77460000D01*
X176940000Y-76150000D02*
X177550000Y-76150000D01*
X176940000Y-74850000D02*
X177550000Y-74850000D01*
X176940000Y-72740000D02*
X176940000Y-77460000D01*
X182830000Y-78620000D02*
X182830000Y-79950000D01*
X181500000Y-78620000D02*
X182830000Y-78620000D01*
X180230000Y-81280000D02*
X175090000Y-81280000D01*
X180230000Y-78620000D02*
X180230000Y-81280000D01*
X180230000Y-78620000D02*
X175090000Y-78620000D01*
X175090000Y-78620000D02*
X175090000Y-81280000D01*
X227659420Y-64690000D02*
X227940580Y-64690000D01*
X227659420Y-65710000D02*
X227940580Y-65710000D01*
X132977500Y-145162742D02*
X132977500Y-145637258D01*
X134022500Y-145162742D02*
X134022500Y-145637258D01*
X193109420Y-121190000D02*
X193390580Y-121190000D01*
X193109420Y-122210000D02*
X193390580Y-122210000D01*
X210790000Y-128559420D02*
X210790000Y-128840580D01*
X211810000Y-128559420D02*
X211810000Y-128840580D01*
X163102500Y-126397742D02*
X163102500Y-126872258D01*
X164147500Y-126397742D02*
X164147500Y-126872258D01*
X199846920Y-81910000D02*
X200128080Y-81910000D01*
X199846920Y-80890000D02*
X200128080Y-80890000D01*
X205662742Y-72977500D02*
X206137258Y-72977500D01*
X205662742Y-74022500D02*
X206137258Y-74022500D01*
X160962742Y-122422500D02*
X161437258Y-122422500D01*
X160962742Y-121377500D02*
X161437258Y-121377500D01*
X148177500Y-62437742D02*
X148177500Y-62912258D01*
X149222500Y-62437742D02*
X149222500Y-62912258D01*
X182509420Y-125940000D02*
X182790580Y-125940000D01*
X182509420Y-126960000D02*
X182790580Y-126960000D01*
X214090000Y-59534420D02*
X214090000Y-59815580D01*
X215110000Y-59534420D02*
X215110000Y-59815580D01*
D10*
X209000000Y-131700000D02*
X223000000Y-131700000D01*
X223000000Y-151700000D01*
X209000000Y-151700000D01*
X209000000Y-131700000D01*
D13*
X135037258Y-122477500D02*
X134562742Y-122477500D01*
X135037258Y-123522500D02*
X134562742Y-123522500D01*
X211615000Y-125259420D02*
X211615000Y-125540580D01*
X212635000Y-125259420D02*
X212635000Y-125540580D01*
X226277500Y-139962742D02*
X226277500Y-140437258D01*
X227322500Y-139962742D02*
X227322500Y-140437258D01*
D10*
X155000000Y-131700000D02*
X169000000Y-131700000D01*
X169000000Y-151700000D01*
X155000000Y-151700000D01*
X155000000Y-131700000D01*
D13*
X209277500Y-59912258D02*
X209277500Y-59437742D01*
X210322500Y-59912258D02*
X210322500Y-59437742D01*
X187984420Y-121190000D02*
X188265580Y-121190000D01*
X187984420Y-122210000D02*
X188265580Y-122210000D01*
X217377500Y-59912258D02*
X217377500Y-59437742D01*
X218422500Y-59912258D02*
X218422500Y-59437742D01*
X184642500Y-79962742D02*
X184642500Y-80437258D01*
X183597500Y-79962742D02*
X183597500Y-80437258D01*
X175677500Y-128162742D02*
X175677500Y-128637258D01*
X176722500Y-128162742D02*
X176722500Y-128637258D01*
X161065580Y-128425000D02*
X160784420Y-128425000D01*
X161065580Y-129445000D02*
X160784420Y-129445000D01*
X180110000Y-124359420D02*
X180110000Y-124640580D01*
X179090000Y-124359420D02*
X179090000Y-124640580D01*
X178400378Y-122660000D02*
X179199622Y-122660000D01*
X178400378Y-121540000D02*
X179199622Y-121540000D01*
X216412258Y-126340000D02*
X215937742Y-126340000D01*
X216412258Y-127385000D02*
X215937742Y-127385000D01*
X195205000Y-74980552D02*
X195205000Y-73030552D01*
X195205000Y-74980552D02*
X195205000Y-76930552D01*
X200325000Y-74980552D02*
X200325000Y-73030552D01*
X200325000Y-74980552D02*
X200325000Y-76930552D01*
X195300000Y-77680552D02*
X194970000Y-77920552D01*
X194970000Y-77440552D01*
X195300000Y-77680552D01*
G36*
X195300000Y-77680552D02*
G01*
X194970000Y-77920552D01*
X194970000Y-77440552D01*
X195300000Y-77680552D01*
G37*
X212990000Y-93259420D02*
X212990000Y-93540580D01*
X214010000Y-93259420D02*
X214010000Y-93540580D01*
X225877500Y-88937258D02*
X225877500Y-88462742D01*
X226922500Y-88937258D02*
X226922500Y-88462742D01*
X206137258Y-68477500D02*
X205662742Y-68477500D01*
X206137258Y-69522500D02*
X205662742Y-69522500D01*
X198284420Y-121290000D02*
X198565580Y-121290000D01*
X198284420Y-122310000D02*
X198565580Y-122310000D01*
X178610000Y-124359420D02*
X178610000Y-124640580D01*
X177590000Y-124359420D02*
X177590000Y-124640580D01*
X200877500Y-76262742D02*
X200877500Y-76737258D01*
X201922500Y-76262742D02*
X201922500Y-76737258D01*
X159025000Y-122875000D02*
X157075000Y-122875000D01*
X159025000Y-122875000D02*
X160975000Y-122875000D01*
X159025000Y-127995000D02*
X157075000Y-127995000D01*
X159025000Y-127995000D02*
X160975000Y-127995000D01*
X156325000Y-122970000D02*
X156085000Y-122640000D01*
X156565000Y-122640000D01*
X156325000Y-122970000D01*
G36*
X156325000Y-122970000D02*
G01*
X156085000Y-122640000D01*
X156565000Y-122640000D01*
X156325000Y-122970000D01*
G37*
X190440000Y-122615580D02*
X190440000Y-122334420D01*
X191460000Y-122615580D02*
X191460000Y-122334420D01*
X202390580Y-128890000D02*
X202109420Y-128890000D01*
X202390580Y-129910000D02*
X202109420Y-129910000D01*
X156277500Y-66012258D02*
X156277500Y-65537742D01*
X157322500Y-66012258D02*
X157322500Y-65537742D01*
X202390580Y-122890000D02*
X202109420Y-122890000D01*
X202390580Y-123910000D02*
X202109420Y-123910000D01*
X187912742Y-122677500D02*
X188387258Y-122677500D01*
X187912742Y-123722500D02*
X188387258Y-123722500D01*
X149877500Y-62437742D02*
X149877500Y-62912258D01*
X150922500Y-62437742D02*
X150922500Y-62912258D01*
X211237258Y-120377500D02*
X210762742Y-120377500D01*
X211237258Y-121422500D02*
X210762742Y-121422500D01*
X205777500Y-78437258D02*
X205777500Y-77962742D01*
X206822500Y-78437258D02*
X206822500Y-77962742D01*
X171210000Y-124359420D02*
X171210000Y-124640580D01*
X170190000Y-124359420D02*
X170190000Y-124640580D01*
X195564421Y-60290000D02*
X195845581Y-60290000D01*
X195564421Y-61310000D02*
X195845581Y-61310000D01*
X202487258Y-121377500D02*
X202012742Y-121377500D01*
X202487258Y-122422500D02*
X202012742Y-122422500D01*
X210877500Y-59912258D02*
X210877500Y-59437742D01*
X211922500Y-59912258D02*
X211922500Y-59437742D01*
X214477500Y-93637258D02*
X214477500Y-93162742D01*
X215522500Y-93637258D02*
X215522500Y-93162742D01*
X151700000Y-79740000D02*
X152350000Y-79740000D01*
X151700000Y-79740000D02*
X151050000Y-79740000D01*
X151700000Y-82860000D02*
X152350000Y-82860000D01*
X151700000Y-82860000D02*
X151050000Y-82860000D01*
X150537500Y-79790000D02*
X150297500Y-79460000D01*
X150777500Y-79460000D01*
X150537500Y-79790000D01*
G36*
X150537500Y-79790000D02*
G01*
X150297500Y-79460000D01*
X150777500Y-79460000D01*
X150537500Y-79790000D01*
G37*
X199040000Y-60562500D02*
X199040000Y-59762500D01*
X199040000Y-60562500D02*
X199040000Y-61362500D01*
X202160000Y-60562500D02*
X202160000Y-59762500D01*
X202160000Y-60562500D02*
X202160000Y-61362500D01*
X202440000Y-59502500D02*
X202110000Y-59262500D01*
X202440000Y-59022500D01*
X202440000Y-59502500D01*
G36*
X202440000Y-59502500D02*
G01*
X202110000Y-59262500D01*
X202440000Y-59022500D01*
X202440000Y-59502500D01*
G37*
X192577500Y-69737258D02*
X192577500Y-69262742D01*
X193622500Y-69737258D02*
X193622500Y-69262742D01*
X214877500Y-88637258D02*
X214877500Y-88162742D01*
X215922500Y-88637258D02*
X215922500Y-88162742D01*
X214415000Y-124062500D02*
X214415000Y-123262500D01*
X214415000Y-124062500D02*
X214415000Y-124862500D01*
X217535000Y-124062500D02*
X217535000Y-123262500D01*
X217535000Y-124062500D02*
X217535000Y-124862500D01*
X214465000Y-125362500D02*
X214135000Y-125602500D01*
X214135000Y-125122500D01*
X214465000Y-125362500D01*
G36*
X214465000Y-125362500D02*
G01*
X214135000Y-125602500D01*
X214135000Y-125122500D01*
X214465000Y-125362500D01*
G37*
X202512258Y-127377500D02*
X202037742Y-127377500D01*
X202512258Y-128422500D02*
X202037742Y-128422500D01*
X209190000Y-128559420D02*
X209190000Y-128840580D01*
X210210000Y-128559420D02*
X210210000Y-128840580D01*
X206377500Y-54562742D02*
X206377500Y-55037258D01*
X207422500Y-54562742D02*
X207422500Y-55037258D01*
X198187742Y-122777500D02*
X198662258Y-122777500D01*
X198187742Y-123822500D02*
X198662258Y-123822500D01*
X188402500Y-125837258D02*
X188402500Y-125362742D01*
X189447500Y-125837258D02*
X189447500Y-125362742D01*
X226277500Y-137137258D02*
X226277500Y-136662742D01*
X227322500Y-137137258D02*
X227322500Y-136662742D01*
X202415580Y-125890000D02*
X202134420Y-125890000D01*
X202415580Y-126910000D02*
X202134420Y-126910000D01*
X171100378Y-122660000D02*
X171899622Y-122660000D01*
X171100378Y-121540000D02*
X171899622Y-121540000D01*
X195862779Y-58790000D02*
X195537221Y-58790000D01*
X195862779Y-59810000D02*
X195537221Y-59810000D01*
X226577500Y-132237258D02*
X226577500Y-131762742D01*
X227622500Y-132237258D02*
X227622500Y-131762742D01*
X207677500Y-59912258D02*
X207677500Y-59437742D01*
X208722500Y-59912258D02*
X208722500Y-59437742D01*
X134367258Y-57687500D02*
X133892742Y-57687500D01*
X134367258Y-58732500D02*
X133892742Y-58732500D01*
X193727500Y-125737258D02*
X193727500Y-125262742D01*
X194772500Y-125737258D02*
X194772500Y-125262742D01*
X215777500Y-59912258D02*
X215777500Y-59437742D01*
X216822500Y-59912258D02*
X216822500Y-59437742D01*
D10*
X208100000Y-91900000D02*
X212300000Y-91900000D01*
X212300000Y-95100000D01*
X208100000Y-95100000D01*
X208100000Y-91900000D01*
D13*
X200877500Y-70062742D02*
X200877500Y-70537258D01*
X201922500Y-70062742D02*
X201922500Y-70537258D01*
D10*
X191000000Y-131700000D02*
X205000000Y-131700000D01*
X205000000Y-151700000D01*
X191000000Y-151700000D01*
X191000000Y-131700000D01*
D13*
X194387500Y-80665000D02*
X192187500Y-80665000D01*
X194387500Y-80665000D02*
X196587500Y-80665000D01*
X194387500Y-86135000D02*
X192187500Y-86135000D01*
X194387500Y-86135000D02*
X196587500Y-86135000D01*
X190527500Y-81125000D02*
X190197500Y-81365000D01*
X190197500Y-80885000D01*
X190527500Y-81125000D01*
G36*
X190527500Y-81125000D02*
G01*
X190197500Y-81365000D01*
X190197500Y-80885000D01*
X190527500Y-81125000D01*
G37*
X204077500Y-60237258D02*
X204077500Y-59762742D01*
X205122500Y-60237258D02*
X205122500Y-59762742D01*
X221477500Y-54237258D02*
X221477500Y-53762742D01*
X222522500Y-54237258D02*
X222522500Y-53762742D01*
X221340000Y-91900000D02*
X221340000Y-91100000D01*
X221340000Y-91900000D02*
X221340000Y-92700000D01*
X224460000Y-91900000D02*
X224460000Y-91100000D01*
X224460000Y-91900000D02*
X224460000Y-92700000D01*
X224740000Y-90840000D02*
X224410000Y-90600000D01*
X224740000Y-90360000D01*
X224740000Y-90840000D01*
G36*
X224740000Y-90840000D02*
G01*
X224410000Y-90600000D01*
X224740000Y-90360000D01*
X224740000Y-90840000D01*
G37*
X219222500Y-88637258D02*
X219222500Y-88162742D01*
X218177500Y-88637258D02*
X218177500Y-88162742D01*
X153915000Y-126594420D02*
X153915000Y-126875580D01*
X154935000Y-126594420D02*
X154935000Y-126875580D01*
X145934420Y-87803750D02*
X146215580Y-87803750D01*
X145934420Y-86783750D02*
X146215580Y-86783750D01*
X213290000Y-88259420D02*
X213290000Y-88540580D01*
X214310000Y-88259420D02*
X214310000Y-88540580D01*
X154577500Y-62437742D02*
X154577500Y-62912258D01*
X155622500Y-62437742D02*
X155622500Y-62912258D01*
X202577500Y-59762742D02*
X202577500Y-60237258D01*
X203622500Y-59762742D02*
X203622500Y-60237258D01*
X215937742Y-127840000D02*
X216412258Y-127840000D01*
X215937742Y-128885000D02*
X216412258Y-128885000D01*
X227477500Y-88462742D02*
X227477500Y-88937258D01*
X228522500Y-88462742D02*
X228522500Y-88937258D01*
X182509420Y-122940000D02*
X182790580Y-122940000D01*
X182509420Y-123960000D02*
X182790580Y-123960000D01*
X204862742Y-75622500D02*
X205337258Y-75622500D01*
X204862742Y-74577500D02*
X205337258Y-74577500D01*
X199002500Y-125837258D02*
X199002500Y-125362742D01*
X200047500Y-125837258D02*
X200047500Y-125362742D01*
X194177500Y-69262742D02*
X194177500Y-69737258D01*
X195222500Y-69262742D02*
X195222500Y-69737258D01*
X199522500Y-69262742D02*
X199522500Y-69737258D01*
X198477500Y-69262742D02*
X198477500Y-69737258D01*
X212477500Y-59912258D02*
X212477500Y-59437742D01*
X213522500Y-59912258D02*
X213522500Y-59437742D01*
X193012742Y-122677500D02*
X193487258Y-122677500D01*
X193012742Y-123722500D02*
X193487258Y-123722500D01*
X196877500Y-69262742D02*
X196877500Y-69737258D01*
X197922500Y-69262742D02*
X197922500Y-69737258D01*
X152877500Y-62437742D02*
X152877500Y-62912258D01*
X153922500Y-62437742D02*
X153922500Y-62912258D01*
X182412742Y-121427500D02*
X182887258Y-121427500D01*
X182412742Y-122472500D02*
X182887258Y-122472500D01*
X173777500Y-128162742D02*
X173777500Y-128637258D01*
X174822500Y-128162742D02*
X174822500Y-128637258D01*
X205662742Y-71477500D02*
X206137258Y-71477500D01*
X205662742Y-72522500D02*
X206137258Y-72522500D01*
D10*
X208100000Y-86900000D02*
X212300000Y-86900000D01*
X212300000Y-90100000D01*
X208100000Y-90100000D01*
X208100000Y-86900000D01*
D13*
X134922500Y-75762742D02*
X134922500Y-76237258D01*
X133877500Y-75762742D02*
X133877500Y-76237258D01*
X213660000Y-63162500D02*
X213660000Y-62512500D01*
X213660000Y-63162500D02*
X213660000Y-63812500D01*
X210540000Y-63162500D02*
X210540000Y-62512500D01*
X210540000Y-63162500D02*
X210540000Y-63812500D01*
X213940000Y-62240000D02*
X213610000Y-62000000D01*
X213940000Y-61760000D01*
X213940000Y-62240000D01*
G36*
X213940000Y-62240000D02*
G01*
X213610000Y-62000000D01*
X213940000Y-61760000D01*
X213940000Y-62240000D01*
G37*
%LPC*%
D17*
X143200000Y-66000000D03*
X143200000Y-63500000D03*
X143200000Y-61000000D03*
D18*
X144400000Y-69200000D03*
X141000000Y-57900000D03*
D17*
X162000000Y-65850000D03*
X162000000Y-63350000D03*
X162000000Y-60850000D03*
D18*
X163200000Y-69050000D03*
X159800000Y-57750000D03*
D19*
X220800000Y-74800000D03*
D20*
X228520000Y-85050000D03*
X227250000Y-85050000D03*
X225980000Y-85050000D03*
X224710000Y-85050000D03*
X223440000Y-85050000D03*
X222170000Y-85050000D03*
X220900000Y-85050000D03*
X219630000Y-85050000D03*
X218360000Y-85050000D03*
X217090000Y-85050000D03*
X215820000Y-85050000D03*
X214550000Y-85050000D03*
X213280000Y-85050000D03*
X212010000Y-85050000D03*
D21*
X210760000Y-83285000D03*
X210760000Y-82015000D03*
X210760000Y-80745000D03*
X210760000Y-79475000D03*
X210760000Y-78205000D03*
X210760000Y-76935000D03*
X210760000Y-75665000D03*
X210760000Y-74395000D03*
X210760000Y-73125000D03*
X210760000Y-71855000D03*
X210760000Y-70585000D03*
X210760000Y-69315000D03*
D20*
X212010000Y-67550000D03*
X213280000Y-67550000D03*
X214550000Y-67550000D03*
X215820000Y-67550000D03*
X217090000Y-67550000D03*
X218360000Y-67550000D03*
X219630000Y-67550000D03*
X220900000Y-67550000D03*
X222170000Y-67550000D03*
X223440000Y-67550000D03*
X224710000Y-67550000D03*
X225980000Y-67550000D03*
X227250000Y-67550000D03*
X228520000Y-67550000D03*
D22*
X218800000Y-91375000D03*
X218800000Y-93025000D03*
X220300000Y-91375000D03*
X220300000Y-93025000D03*
D23*
X163209000Y-80450000D03*
X158891000Y-80450000D03*
D24*
X163846500Y-93918000D03*
X163846500Y-89600000D03*
D25*
X208605000Y-124480000D03*
D26*
X207855000Y-123080000D03*
X208355000Y-123080000D03*
X208855000Y-123080000D03*
X209355000Y-123080000D03*
D27*
X210005000Y-123730000D03*
X210005000Y-124230000D03*
X210005000Y-124730000D03*
X210005000Y-125230000D03*
D26*
X209355000Y-125880000D03*
X208855000Y-125880000D03*
X208355000Y-125880000D03*
X207855000Y-125880000D03*
D27*
X207205000Y-125230000D03*
X207205000Y-124730000D03*
D28*
X207205000Y-124230000D03*
D27*
X207205000Y-123730000D03*
D29*
X154500000Y-124475000D03*
X154500000Y-122925000D03*
D30*
X143756250Y-94100000D03*
X142206250Y-94100000D03*
D31*
X208100000Y-127920000D03*
X208100000Y-129470000D03*
D32*
X151106250Y-89300000D03*
X152656250Y-89300000D03*
D29*
X159446500Y-87884000D03*
X159446500Y-89434000D03*
X162846500Y-87434000D03*
X162846500Y-85884000D03*
X161246500Y-87434000D03*
X161246500Y-85884000D03*
D32*
X151106250Y-90900000D03*
X152656250Y-90900000D03*
D31*
X164900000Y-74675000D03*
X164900000Y-76225000D03*
X163300000Y-74675000D03*
X163300000Y-76225000D03*
X134600000Y-81225000D03*
X134600000Y-82775000D03*
D29*
X143900000Y-76175000D03*
X143900000Y-74625000D03*
X145400000Y-76175000D03*
X145400000Y-74625000D03*
D33*
X201400000Y-74225000D03*
X201400000Y-72575000D03*
D34*
X156300000Y-52415816D03*
X156300000Y-54955816D03*
X153760000Y-52415816D03*
X153760000Y-54955816D03*
X151300000Y-52415816D03*
X151300000Y-54955816D03*
X148760000Y-52415816D03*
X148760000Y-54955816D03*
D35*
X215670000Y-108000000D03*
X136330000Y-108000000D03*
D36*
X140180000Y-100000000D03*
D37*
X148400000Y-116000000D03*
X203600000Y-100000000D03*
D38*
X195925000Y-129412500D03*
X196575000Y-129412500D03*
X197225000Y-129412500D03*
X197875000Y-129412500D03*
X197875000Y-125012500D03*
X197225000Y-125012500D03*
X196575000Y-125012500D03*
X195925000Y-125012500D03*
X190650000Y-129387500D03*
X191300000Y-129387500D03*
X191950000Y-129387500D03*
X192600000Y-129387500D03*
X192600000Y-124987500D03*
X191950000Y-124987500D03*
X191300000Y-124987500D03*
X190650000Y-124987500D03*
X185387500Y-129420000D03*
X186037500Y-129420000D03*
X186687500Y-129420000D03*
X187337500Y-129420000D03*
X187337500Y-125020000D03*
X186687500Y-125020000D03*
X186037500Y-125020000D03*
X185387500Y-125020000D03*
D39*
X145537500Y-90743750D03*
X145537500Y-88843750D03*
X147812500Y-88843750D03*
X147812500Y-89793750D03*
X147812500Y-90743750D03*
D40*
X149906250Y-87300000D03*
X148256250Y-87300000D03*
D33*
X149581250Y-89168750D03*
X149581250Y-90818750D03*
D41*
X148281250Y-93193750D03*
X145481250Y-93193750D03*
D42*
X150381250Y-94350000D03*
X150381250Y-92250000D03*
D43*
X210449999Y-55484000D03*
X211550000Y-55484000D03*
X212650000Y-55484000D03*
X213750000Y-55484000D03*
X214850001Y-55484000D03*
X215950001Y-55484000D03*
X217050002Y-55484000D03*
X218149999Y-55484000D03*
D44*
X219225001Y-51844000D03*
X219225001Y-54434000D03*
D45*
X208824999Y-53994001D03*
D46*
X208600001Y-52844000D03*
D47*
X208800000Y-51694000D03*
D48*
X160300000Y-75300000D03*
X160300000Y-75800000D03*
X160300000Y-76300000D03*
X161800000Y-76300000D03*
X161800000Y-75800000D03*
X161800000Y-75300000D03*
D49*
X191525000Y-90225000D03*
X191525000Y-90875000D03*
X191525000Y-91525000D03*
X191525000Y-92175000D03*
X191525000Y-92825000D03*
X191525000Y-93475000D03*
X191525000Y-94125000D03*
X191525000Y-94775000D03*
X197250000Y-94775000D03*
X197250000Y-94125000D03*
X197250000Y-93475000D03*
X197250000Y-92825000D03*
X197250000Y-92175000D03*
X197250000Y-91525000D03*
X197250000Y-90875000D03*
X197250000Y-90225000D03*
D39*
X159284000Y-92909000D03*
X159284000Y-91959000D03*
X159284000Y-91009000D03*
X157009000Y-91009000D03*
X157009000Y-91959000D03*
X157009000Y-92909000D03*
D50*
X135310000Y-91305000D03*
D51*
X134310000Y-89867500D03*
X134810000Y-89867500D03*
X135310000Y-89867500D03*
X135810000Y-89867500D03*
X136310000Y-89867500D03*
X136310000Y-92742500D03*
X135810000Y-92742500D03*
X135310000Y-92742500D03*
X134810000Y-92742500D03*
X134310000Y-92742500D03*
D40*
X140425000Y-125200000D03*
X138775000Y-125200000D03*
D52*
X146045000Y-123615000D03*
X147695000Y-123615000D03*
D33*
X144500000Y-129225000D03*
X144500000Y-127575000D03*
D40*
X147695000Y-122115000D03*
X146045000Y-122115000D03*
D52*
X149975000Y-120600000D03*
X151625000Y-120600000D03*
D22*
X146000000Y-127575000D03*
X146000000Y-129225000D03*
X227500000Y-91675000D03*
X227500000Y-93325000D03*
D33*
X226000000Y-93325000D03*
X226000000Y-91675000D03*
D40*
X224425000Y-62900000D03*
X222775000Y-62900000D03*
X171825000Y-90700000D03*
X170175000Y-90700000D03*
X158825000Y-74700000D03*
X157175000Y-74700000D03*
D52*
X177275000Y-120200000D03*
X178925000Y-120200000D03*
D40*
X161825000Y-73800000D03*
X160175000Y-73800000D03*
X175825000Y-121400000D03*
X174175000Y-121400000D03*
D52*
X208075000Y-64300000D03*
X209725000Y-64300000D03*
D22*
X139781250Y-88725000D03*
X139781250Y-87075000D03*
X155146500Y-90934000D03*
X155146500Y-92584000D03*
D33*
X214600000Y-64525000D03*
X214600000Y-62875000D03*
D40*
X221325000Y-64500000D03*
X219675000Y-64500000D03*
D33*
X139781250Y-90075000D03*
X139781250Y-91725000D03*
D22*
X155146500Y-87834000D03*
X155146500Y-89484000D03*
X139781250Y-94725000D03*
X139781250Y-93075000D03*
D33*
X135800000Y-88425000D03*
X135800000Y-86775000D03*
X137300000Y-88425000D03*
X137300000Y-86775000D03*
D40*
X151525000Y-78800000D03*
X149875000Y-78800000D03*
D33*
X150400000Y-76425000D03*
X150400000Y-74775000D03*
D22*
X134400000Y-78175000D03*
X134400000Y-79825000D03*
X153000000Y-77175000D03*
X153000000Y-78825000D03*
D33*
X135800000Y-95725000D03*
X135800000Y-94075000D03*
X152900000Y-75825000D03*
X152900000Y-74175000D03*
D52*
X146875000Y-78800000D03*
X148525000Y-78800000D03*
X143875000Y-82800000D03*
X145525000Y-82800000D03*
D22*
X142400000Y-81175000D03*
X142400000Y-82825000D03*
D52*
X208075000Y-62075000D03*
X209725000Y-62075000D03*
D33*
X185700000Y-79375000D03*
X185700000Y-81025000D03*
X189100000Y-78225000D03*
X189100000Y-76575000D03*
D52*
X192275000Y-78200000D03*
X193925000Y-78200000D03*
D22*
X190700000Y-76575000D03*
X190700000Y-78225000D03*
D52*
X192275000Y-76600000D03*
X193925000Y-76600000D03*
D22*
X155100000Y-64950000D03*
X155100000Y-66600000D03*
D53*
X140825000Y-127250000D03*
X140825000Y-129150000D03*
X142700000Y-128200000D03*
X149462500Y-122150000D03*
X149462500Y-124050000D03*
X151337500Y-123100000D03*
D54*
X147650000Y-128837500D03*
X149550000Y-128837500D03*
X148600000Y-126962500D03*
D55*
X191162500Y-87900000D03*
X193037500Y-86950000D03*
X193037500Y-88850000D03*
D56*
X172075000Y-92462500D03*
X170175000Y-92462500D03*
X171125000Y-94337500D03*
X176150000Y-123125000D03*
X174250000Y-123125000D03*
X175200000Y-125000000D03*
D53*
X143481250Y-88100000D03*
X141606250Y-89050000D03*
X141606250Y-87150000D03*
D54*
X216250000Y-64237500D03*
X218150000Y-64237500D03*
X217200000Y-62362500D03*
D53*
X143481250Y-91600000D03*
X141606250Y-92550000D03*
X141606250Y-90650000D03*
D56*
X148850000Y-75125000D03*
X146950000Y-75125000D03*
X147900000Y-77000000D03*
X148950000Y-80562500D03*
X147050000Y-80562500D03*
X148000000Y-82437500D03*
D54*
X135950000Y-79437500D03*
X137850000Y-79437500D03*
X136900000Y-77562500D03*
D53*
X143300000Y-77700000D03*
X143300000Y-79600000D03*
X145175000Y-78650000D03*
D55*
X193637500Y-74950000D03*
X193637500Y-73050000D03*
X191762500Y-74000000D03*
D57*
X143200000Y-124275000D03*
D58*
X143200000Y-121735000D03*
X225000000Y-116660000D03*
X222460000Y-116660000D03*
X225000000Y-114120000D03*
X222460000Y-114120000D03*
X225000000Y-111580000D03*
X222460000Y-111580000D03*
X225000000Y-109040000D03*
X222460000Y-109040000D03*
X225000000Y-106500000D03*
X222460000Y-106500000D03*
X225000000Y-103960000D03*
X222460000Y-103960000D03*
X225000000Y-101420000D03*
X222460000Y-101420000D03*
X225000000Y-98880000D03*
D57*
X222460000Y-98880000D03*
X222600000Y-59400000D03*
D58*
X225140000Y-59400000D03*
X227680000Y-59400000D03*
D59*
X151600000Y-129000000D03*
X151600000Y-126200000D03*
D60*
X140400000Y-78900000D03*
X140400000Y-74900000D03*
D32*
X199112500Y-90500000D03*
X200662500Y-90500000D03*
D30*
X158775000Y-76200000D03*
X157225000Y-76200000D03*
D29*
X164446500Y-87434000D03*
X164446500Y-85884000D03*
D32*
X219725000Y-62900000D03*
X221275000Y-62900000D03*
D30*
X159521500Y-94459000D03*
X157971500Y-94459000D03*
D29*
X157846500Y-87884000D03*
X157846500Y-89434000D03*
D30*
X137875000Y-75700000D03*
X136325000Y-75700000D03*
D31*
X134300000Y-94125000D03*
X134300000Y-95675000D03*
D29*
X134300000Y-88375000D03*
X134300000Y-86825000D03*
D32*
X143925000Y-81200000D03*
X145475000Y-81200000D03*
D31*
X140800000Y-81225000D03*
X140800000Y-82775000D03*
X172200000Y-125275000D03*
X172200000Y-123725000D03*
D29*
X196125000Y-123275000D03*
X196125000Y-121725000D03*
D40*
X194775000Y-88800000D03*
X196425000Y-88800000D03*
D57*
X166800000Y-127325000D03*
D58*
X166800000Y-124785000D03*
X166800000Y-122245000D03*
D61*
X186000000Y-89500000D03*
D62*
X178400000Y-89500000D03*
D32*
X227025000Y-63604394D03*
X228575000Y-63604394D03*
D22*
X198100000Y-59175000D03*
X198100000Y-60825000D03*
D52*
X138775000Y-123700000D03*
X140425000Y-123700000D03*
D63*
X205100000Y-70500000D03*
X206675000Y-70500000D03*
D52*
X181825000Y-124950000D03*
X183475000Y-124950000D03*
D64*
X145300000Y-143200000D03*
X142700000Y-143200000D03*
X147400000Y-143200000D03*
X140600000Y-143200000D03*
X147400000Y-140700000D03*
X140600000Y-140700000D03*
X145300000Y-136200000D03*
X142700000Y-136200000D03*
X147400000Y-136200000D03*
X140600000Y-136200000D03*
X147400000Y-133700000D03*
X140600000Y-133700000D03*
D65*
X137250000Y-136200000D03*
X137250000Y-146200000D03*
X144000000Y-147000000D03*
X150750000Y-136200000D03*
X150750000Y-146200000D03*
D33*
X219500000Y-60500000D03*
X219500000Y-58850000D03*
D66*
X195680000Y-51925000D03*
D67*
X195680000Y-56105000D03*
D66*
X204320000Y-51925000D03*
D67*
X204320000Y-56105000D03*
D68*
X203200000Y-56680000D03*
X202400000Y-56680000D03*
D69*
X201750000Y-56680000D03*
X200750000Y-56680000D03*
X199250000Y-56680000D03*
X198250000Y-56680000D03*
D68*
X197600000Y-56680000D03*
X196800000Y-56680000D03*
X196800000Y-56680000D03*
X197600000Y-56680000D03*
D69*
X198750000Y-56680000D03*
X199750000Y-56680000D03*
X200250000Y-56680000D03*
X201250000Y-56680000D03*
D68*
X202400000Y-56680000D03*
X203200000Y-56680000D03*
D70*
X197110000Y-55605000D03*
X202890000Y-55605000D03*
D40*
X203100000Y-124900000D03*
X201450000Y-124900000D03*
D33*
X220300000Y-87575000D03*
X220300000Y-89225000D03*
D71*
X139100000Y-81600000D03*
X136300000Y-81600000D03*
D29*
X156800000Y-63450000D03*
X156800000Y-61900000D03*
D33*
X208300000Y-83125000D03*
X208300000Y-81475000D03*
D22*
X199900000Y-63275000D03*
X199900000Y-64925000D03*
D33*
X217000000Y-87575000D03*
X217000000Y-89225000D03*
D22*
X201400000Y-63275000D03*
X201400000Y-64925000D03*
D52*
X151256250Y-87300000D03*
X152906250Y-87300000D03*
D29*
X185825000Y-123175000D03*
X185825000Y-121625000D03*
D64*
X181300000Y-143200000D03*
X178700000Y-143200000D03*
X183400000Y-143200000D03*
X176600000Y-143200000D03*
X183400000Y-140700000D03*
X176600000Y-140700000D03*
X181300000Y-136200000D03*
X178700000Y-136200000D03*
X183400000Y-136200000D03*
X176600000Y-136200000D03*
X183400000Y-133700000D03*
X176600000Y-133700000D03*
D65*
X173250000Y-136200000D03*
X173250000Y-146200000D03*
X180000000Y-147000000D03*
X186750000Y-136200000D03*
X186750000Y-146200000D03*
D72*
X179000000Y-75650000D03*
D73*
X181000000Y-75650000D03*
D58*
X176420000Y-79950000D03*
X178960000Y-79950000D03*
D57*
X181500000Y-79950000D03*
D32*
X227025000Y-65200000D03*
X228575000Y-65200000D03*
D22*
X133500000Y-144575000D03*
X133500000Y-146225000D03*
D32*
X192475000Y-121700000D03*
X194025000Y-121700000D03*
D31*
X211300000Y-127925000D03*
X211300000Y-129475000D03*
D22*
X163625000Y-125810000D03*
X163625000Y-127460000D03*
D32*
X199212500Y-81400000D03*
X200762500Y-81400000D03*
D52*
X205075000Y-73500000D03*
X206725000Y-73500000D03*
X160375000Y-121900000D03*
X162025000Y-121900000D03*
D22*
X148700000Y-61850000D03*
X148700000Y-63500000D03*
D32*
X181875000Y-126450000D03*
X183425000Y-126450000D03*
D31*
X214600000Y-58900000D03*
X214600000Y-60450000D03*
D65*
X222750000Y-146200000D03*
X222750000Y-136200000D03*
X216000000Y-147000000D03*
X209250000Y-146200000D03*
X209250000Y-136200000D03*
D64*
X212600000Y-133700000D03*
X219400000Y-133700000D03*
X212600000Y-136200000D03*
X219400000Y-136200000D03*
X214700000Y-136200000D03*
X217300000Y-136200000D03*
X212600000Y-140700000D03*
X219400000Y-140700000D03*
X212600000Y-143200000D03*
X219400000Y-143200000D03*
X214700000Y-143200000D03*
X217300000Y-143200000D03*
D40*
X135625000Y-123000000D03*
X133975000Y-123000000D03*
D31*
X212125000Y-124625000D03*
X212125000Y-126175000D03*
D22*
X226800000Y-139375000D03*
X226800000Y-141025000D03*
D64*
X163300000Y-143200000D03*
X160700000Y-143200000D03*
X165400000Y-143200000D03*
X158600000Y-143200000D03*
X165400000Y-140700000D03*
X158600000Y-140700000D03*
X163300000Y-136200000D03*
X160700000Y-136200000D03*
X165400000Y-136200000D03*
X158600000Y-136200000D03*
X165400000Y-133700000D03*
X158600000Y-133700000D03*
D65*
X155250000Y-136200000D03*
X155250000Y-146200000D03*
X162000000Y-147000000D03*
X168750000Y-136200000D03*
X168750000Y-146200000D03*
D33*
X209800000Y-60500000D03*
X209800000Y-58850000D03*
D74*
X226000000Y-54000000D03*
D32*
X187350000Y-121700000D03*
X188900000Y-121700000D03*
D33*
X217900000Y-60500000D03*
X217900000Y-58850000D03*
D22*
X184120000Y-81025000D03*
X184120000Y-79375000D03*
X176200000Y-127575000D03*
X176200000Y-129225000D03*
D30*
X161700000Y-128935000D03*
X160150000Y-128935000D03*
D31*
X179600000Y-125275000D03*
X179600000Y-123725000D03*
D75*
X179862500Y-122100000D03*
X177737500Y-122100000D03*
D74*
X134000000Y-54000000D03*
D40*
X217000000Y-126862500D03*
X215350000Y-126862500D03*
D76*
X195860000Y-77455552D03*
X197130000Y-77455552D03*
X198400000Y-77455552D03*
X199670000Y-77455552D03*
X199670000Y-72505552D03*
X198400000Y-72505552D03*
X197130000Y-72505552D03*
X195860000Y-72505552D03*
D31*
X213500000Y-92625000D03*
X213500000Y-94175000D03*
D33*
X226400000Y-89525000D03*
X226400000Y-87875000D03*
D40*
X206725000Y-69000000D03*
X205075000Y-69000000D03*
D32*
X197650000Y-121800000D03*
X199200000Y-121800000D03*
D31*
X178100000Y-125275000D03*
X178100000Y-123725000D03*
D22*
X201400000Y-75675000D03*
X201400000Y-77325000D03*
D74*
X226000000Y-127000000D03*
D77*
X156550000Y-123530000D03*
X156550000Y-124800000D03*
X156550000Y-126070000D03*
X156550000Y-127340000D03*
X161500000Y-127340000D03*
X161500000Y-126070000D03*
X161500000Y-124800000D03*
X161500000Y-123530000D03*
D29*
X190950000Y-123250000D03*
X190950000Y-121700000D03*
D30*
X203025000Y-129400000D03*
X201475000Y-129400000D03*
D33*
X156800000Y-66600000D03*
X156800000Y-64950000D03*
D30*
X203025000Y-123400000D03*
X201475000Y-123400000D03*
D52*
X187325000Y-123200000D03*
X188975000Y-123200000D03*
D22*
X150400000Y-61850000D03*
X150400000Y-63500000D03*
D40*
X211825000Y-120900000D03*
X210175000Y-120900000D03*
D33*
X206300000Y-79025000D03*
X206300000Y-77375000D03*
D31*
X170700000Y-125275000D03*
X170700000Y-123725000D03*
D32*
X194930001Y-60800000D03*
X196480001Y-60800000D03*
D40*
X203075000Y-121900000D03*
X201425000Y-121900000D03*
D33*
X211400000Y-60500000D03*
X211400000Y-58850000D03*
X215000000Y-94225000D03*
X215000000Y-92575000D03*
D53*
X150762500Y-80350000D03*
X150762500Y-82250000D03*
X152637500Y-81300000D03*
D78*
X201550000Y-59425000D03*
X200600000Y-59425000D03*
X199650000Y-59425000D03*
X199650000Y-61700000D03*
X200600000Y-61700000D03*
X201550000Y-61700000D03*
D33*
X193100000Y-70325000D03*
X193100000Y-68675000D03*
X215400000Y-89225000D03*
X215400000Y-87575000D03*
D79*
X215025000Y-125200000D03*
X215975000Y-125200000D03*
X216925000Y-125200000D03*
X216925000Y-122925000D03*
X215025000Y-122925000D03*
D74*
X134000000Y-127000000D03*
D40*
X203100000Y-127900000D03*
X201450000Y-127900000D03*
D31*
X209700000Y-127925000D03*
X209700000Y-129475000D03*
D22*
X206900000Y-53975000D03*
X206900000Y-55625000D03*
D52*
X197600000Y-123300000D03*
X199250000Y-123300000D03*
D33*
X188925000Y-126425000D03*
X188925000Y-124775000D03*
X226800000Y-137725000D03*
X226800000Y-136075000D03*
D30*
X203050000Y-126400000D03*
X201500000Y-126400000D03*
D75*
X172562500Y-122100000D03*
X170437500Y-122100000D03*
D80*
X196487500Y-59300000D03*
X194912500Y-59300000D03*
D33*
X227100000Y-132825000D03*
X227100000Y-131175000D03*
X208200000Y-60500000D03*
X208200000Y-58850000D03*
D40*
X134955000Y-58210000D03*
X133305000Y-58210000D03*
D33*
X194250000Y-126325000D03*
X194250000Y-124675000D03*
X216300000Y-60500000D03*
X216300000Y-58850000D03*
D81*
X208200000Y-92400000D03*
X212200000Y-92400000D03*
X208200000Y-94550000D03*
X212200000Y-94550000D03*
D22*
X201400000Y-69475000D03*
X201400000Y-71125000D03*
D65*
X204750000Y-146200000D03*
X204750000Y-136200000D03*
X198000000Y-147000000D03*
X191250000Y-146200000D03*
X191250000Y-136200000D03*
D64*
X194600000Y-133700000D03*
X201400000Y-133700000D03*
X194600000Y-136200000D03*
X201400000Y-136200000D03*
X196700000Y-136200000D03*
X199300000Y-136200000D03*
X194600000Y-140700000D03*
X201400000Y-140700000D03*
X194600000Y-143200000D03*
X201400000Y-143200000D03*
X196700000Y-143200000D03*
X199300000Y-143200000D03*
D49*
X191525000Y-81125000D03*
X191525000Y-81775000D03*
X191525000Y-82425000D03*
X191525000Y-83075000D03*
X191525000Y-83725000D03*
X191525000Y-84375000D03*
X191525000Y-85025000D03*
X191525000Y-85675000D03*
X197250000Y-85675000D03*
X197250000Y-85025000D03*
X197250000Y-84375000D03*
X197250000Y-83725000D03*
X197250000Y-83075000D03*
X197250000Y-82425000D03*
X197250000Y-81775000D03*
X197250000Y-81125000D03*
D33*
X204600000Y-60825000D03*
X204600000Y-59175000D03*
X222000000Y-54825000D03*
X222000000Y-53175000D03*
D78*
X223850000Y-90762500D03*
X222900000Y-90762500D03*
X221950000Y-90762500D03*
X221950000Y-93037500D03*
X222900000Y-93037500D03*
X223850000Y-93037500D03*
D33*
X218700000Y-87575000D03*
X218700000Y-89225000D03*
D31*
X154425000Y-125960000D03*
X154425000Y-127510000D03*
D32*
X146850000Y-87293750D03*
X145300000Y-87293750D03*
D31*
X213800000Y-87625000D03*
X213800000Y-89175000D03*
D22*
X155100000Y-61850000D03*
X155100000Y-63500000D03*
X203100000Y-59175000D03*
X203100000Y-60825000D03*
D52*
X215350000Y-128362500D03*
X217000000Y-128362500D03*
D22*
X228000000Y-87875000D03*
X228000000Y-89525000D03*
D32*
X181875000Y-123450000D03*
X183425000Y-123450000D03*
D52*
X205925000Y-75100000D03*
X204275000Y-75100000D03*
D33*
X199525000Y-126425000D03*
X199525000Y-124775000D03*
D22*
X194700000Y-68675000D03*
X194700000Y-70325000D03*
X199000000Y-68675000D03*
X199000000Y-70325000D03*
D33*
X213000000Y-60500000D03*
X213000000Y-58850000D03*
D52*
X192425000Y-123200000D03*
X194075000Y-123200000D03*
D22*
X197400000Y-68675000D03*
X197400000Y-70325000D03*
X153400000Y-61850000D03*
X153400000Y-63500000D03*
D52*
X181825000Y-121950000D03*
X183475000Y-121950000D03*
D22*
X174300000Y-127575000D03*
X174300000Y-129225000D03*
D52*
X205075000Y-72000000D03*
X206725000Y-72000000D03*
D81*
X208200000Y-87400000D03*
X212200000Y-87400000D03*
X208200000Y-89550000D03*
X212200000Y-89550000D03*
D22*
X134400000Y-75175000D03*
X134400000Y-76825000D03*
D56*
X213050000Y-62225000D03*
X211150000Y-62225000D03*
X212100000Y-64100000D03*
%LPD*%
M02*
