%TF.GenerationSoftware,KiCad,Pcbnew,8.0.4*%
%TF.CreationDate,2025-03-13T03:49:58-05:00*%
%TF.ProjectId,Unify_1,556e6966-795f-4312-9e6b-696361645f70,rev?*%
%TF.SameCoordinates,Original*%
%TF.FileFunction,Drillmap*%
%TF.FilePolarity,Positive*%
%FSLAX45Y45*%
G04 Gerber Fmt 4.5, Leading zero omitted, Abs format (unit mm)*
G04 Created by KiCad (PCBNEW 8.0.4) date 2025-03-13 03:49:58*
%MOMM*%
%LPD*%
G01*
G04 APERTURE LIST*
%ADD10C,0.050000*%
%ADD11C,0.200000*%
%ADD12C,0.100000*%
%ADD13C,0.239000*%
%ADD14C,0.345000*%
G04 APERTURE END LIST*
D10*
X17000000Y-7000000D02*
X19000000Y-7000000D01*
X19000000Y-5000000D01*
X19500000Y-5000000D01*
X23000000Y-5000000D01*
X23000000Y-15000000D01*
X13000000Y-15000000D01*
X13000000Y-5000000D01*
X17000000Y-5000000D01*
X17000000Y-7000000D01*
D11*
D12*
X19678500Y-5528000D02*
X19743500Y-5593000D01*
X19743500Y-5528000D02*
X19678500Y-5593000D01*
X20256500Y-5528000D02*
X20321500Y-5593000D01*
X20321500Y-5528000D02*
X20256500Y-5593000D01*
D13*
X14137500Y-10000000D02*
G75*
G02*
X13898500Y-10000000I-119500J0D01*
G01*
X13898500Y-10000000D02*
G75*
G02*
X14137500Y-10000000I119500J0D01*
G01*
D14*
X14840000Y-11427500D02*
X14840000Y-11772500D01*
X14667500Y-11600000D02*
X15012500Y-11600000D01*
X20360000Y-9827500D02*
X20360000Y-10172500D01*
X20187500Y-10000000D02*
X20532500Y-10000000D01*
D11*
X13258277Y-15313984D02*
X13258277Y-15113984D01*
X13258277Y-15113984D02*
X13305896Y-15113984D01*
X13305896Y-15113984D02*
X13334467Y-15123508D01*
X13334467Y-15123508D02*
X13353515Y-15142555D01*
X13353515Y-15142555D02*
X13363039Y-15161603D01*
X13363039Y-15161603D02*
X13372562Y-15199698D01*
X13372562Y-15199698D02*
X13372562Y-15228269D01*
X13372562Y-15228269D02*
X13363039Y-15266365D01*
X13363039Y-15266365D02*
X13353515Y-15285412D01*
X13353515Y-15285412D02*
X13334467Y-15304460D01*
X13334467Y-15304460D02*
X13305896Y-15313984D01*
X13305896Y-15313984D02*
X13258277Y-15313984D01*
X13458277Y-15313984D02*
X13458277Y-15180650D01*
X13458277Y-15218746D02*
X13467801Y-15199698D01*
X13467801Y-15199698D02*
X13477324Y-15190174D01*
X13477324Y-15190174D02*
X13496372Y-15180650D01*
X13496372Y-15180650D02*
X13515420Y-15180650D01*
X13582086Y-15313984D02*
X13582086Y-15180650D01*
X13582086Y-15113984D02*
X13572562Y-15123508D01*
X13572562Y-15123508D02*
X13582086Y-15133031D01*
X13582086Y-15133031D02*
X13591610Y-15123508D01*
X13591610Y-15123508D02*
X13582086Y-15113984D01*
X13582086Y-15113984D02*
X13582086Y-15133031D01*
X13705896Y-15313984D02*
X13686848Y-15304460D01*
X13686848Y-15304460D02*
X13677324Y-15285412D01*
X13677324Y-15285412D02*
X13677324Y-15113984D01*
X13810658Y-15313984D02*
X13791610Y-15304460D01*
X13791610Y-15304460D02*
X13782086Y-15285412D01*
X13782086Y-15285412D02*
X13782086Y-15113984D01*
X14039229Y-15313984D02*
X14039229Y-15113984D01*
X14039229Y-15113984D02*
X14105896Y-15256841D01*
X14105896Y-15256841D02*
X14172562Y-15113984D01*
X14172562Y-15113984D02*
X14172562Y-15313984D01*
X14353515Y-15313984D02*
X14353515Y-15209222D01*
X14353515Y-15209222D02*
X14343991Y-15190174D01*
X14343991Y-15190174D02*
X14324943Y-15180650D01*
X14324943Y-15180650D02*
X14286848Y-15180650D01*
X14286848Y-15180650D02*
X14267801Y-15190174D01*
X14353515Y-15304460D02*
X14334467Y-15313984D01*
X14334467Y-15313984D02*
X14286848Y-15313984D01*
X14286848Y-15313984D02*
X14267801Y-15304460D01*
X14267801Y-15304460D02*
X14258277Y-15285412D01*
X14258277Y-15285412D02*
X14258277Y-15266365D01*
X14258277Y-15266365D02*
X14267801Y-15247317D01*
X14267801Y-15247317D02*
X14286848Y-15237793D01*
X14286848Y-15237793D02*
X14334467Y-15237793D01*
X14334467Y-15237793D02*
X14353515Y-15228269D01*
X14448753Y-15180650D02*
X14448753Y-15380650D01*
X14448753Y-15190174D02*
X14467801Y-15180650D01*
X14467801Y-15180650D02*
X14505896Y-15180650D01*
X14505896Y-15180650D02*
X14524943Y-15190174D01*
X14524943Y-15190174D02*
X14534467Y-15199698D01*
X14534467Y-15199698D02*
X14543991Y-15218746D01*
X14543991Y-15218746D02*
X14543991Y-15275888D01*
X14543991Y-15275888D02*
X14534467Y-15294936D01*
X14534467Y-15294936D02*
X14524943Y-15304460D01*
X14524943Y-15304460D02*
X14505896Y-15313984D01*
X14505896Y-15313984D02*
X14467801Y-15313984D01*
X14467801Y-15313984D02*
X14448753Y-15304460D01*
X14629705Y-15294936D02*
X14639229Y-15304460D01*
X14639229Y-15304460D02*
X14629705Y-15313984D01*
X14629705Y-15313984D02*
X14620182Y-15304460D01*
X14620182Y-15304460D02*
X14629705Y-15294936D01*
X14629705Y-15294936D02*
X14629705Y-15313984D01*
X14629705Y-15190174D02*
X14639229Y-15199698D01*
X14639229Y-15199698D02*
X14629705Y-15209222D01*
X14629705Y-15209222D02*
X14620182Y-15199698D01*
X14620182Y-15199698D02*
X14629705Y-15190174D01*
X14629705Y-15190174D02*
X14629705Y-15209222D01*
D12*
X12932500Y-15610000D02*
X12997500Y-15675000D01*
X12997500Y-15610000D02*
X12932500Y-15675000D01*
D11*
X13296372Y-15533984D02*
X13315420Y-15533984D01*
X13315420Y-15533984D02*
X13334467Y-15543508D01*
X13334467Y-15543508D02*
X13343991Y-15553031D01*
X13343991Y-15553031D02*
X13353515Y-15572079D01*
X13353515Y-15572079D02*
X13363039Y-15610174D01*
X13363039Y-15610174D02*
X13363039Y-15657793D01*
X13363039Y-15657793D02*
X13353515Y-15695888D01*
X13353515Y-15695888D02*
X13343991Y-15714936D01*
X13343991Y-15714936D02*
X13334467Y-15724460D01*
X13334467Y-15724460D02*
X13315420Y-15733984D01*
X13315420Y-15733984D02*
X13296372Y-15733984D01*
X13296372Y-15733984D02*
X13277324Y-15724460D01*
X13277324Y-15724460D02*
X13267801Y-15714936D01*
X13267801Y-15714936D02*
X13258277Y-15695888D01*
X13258277Y-15695888D02*
X13248753Y-15657793D01*
X13248753Y-15657793D02*
X13248753Y-15610174D01*
X13248753Y-15610174D02*
X13258277Y-15572079D01*
X13258277Y-15572079D02*
X13267801Y-15553031D01*
X13267801Y-15553031D02*
X13277324Y-15543508D01*
X13277324Y-15543508D02*
X13296372Y-15533984D01*
X13448753Y-15714936D02*
X13458277Y-15724460D01*
X13458277Y-15724460D02*
X13448753Y-15733984D01*
X13448753Y-15733984D02*
X13439229Y-15724460D01*
X13439229Y-15724460D02*
X13448753Y-15714936D01*
X13448753Y-15714936D02*
X13448753Y-15733984D01*
X13629705Y-15533984D02*
X13591610Y-15533984D01*
X13591610Y-15533984D02*
X13572562Y-15543508D01*
X13572562Y-15543508D02*
X13563039Y-15553031D01*
X13563039Y-15553031D02*
X13543991Y-15581603D01*
X13543991Y-15581603D02*
X13534467Y-15619698D01*
X13534467Y-15619698D02*
X13534467Y-15695888D01*
X13534467Y-15695888D02*
X13543991Y-15714936D01*
X13543991Y-15714936D02*
X13553515Y-15724460D01*
X13553515Y-15724460D02*
X13572562Y-15733984D01*
X13572562Y-15733984D02*
X13610658Y-15733984D01*
X13610658Y-15733984D02*
X13629705Y-15724460D01*
X13629705Y-15724460D02*
X13639229Y-15714936D01*
X13639229Y-15714936D02*
X13648753Y-15695888D01*
X13648753Y-15695888D02*
X13648753Y-15648269D01*
X13648753Y-15648269D02*
X13639229Y-15629222D01*
X13639229Y-15629222D02*
X13629705Y-15619698D01*
X13629705Y-15619698D02*
X13610658Y-15610174D01*
X13610658Y-15610174D02*
X13572562Y-15610174D01*
X13572562Y-15610174D02*
X13553515Y-15619698D01*
X13553515Y-15619698D02*
X13543991Y-15629222D01*
X13543991Y-15629222D02*
X13534467Y-15648269D01*
X13829705Y-15533984D02*
X13734467Y-15533984D01*
X13734467Y-15533984D02*
X13724943Y-15629222D01*
X13724943Y-15629222D02*
X13734467Y-15619698D01*
X13734467Y-15619698D02*
X13753515Y-15610174D01*
X13753515Y-15610174D02*
X13801134Y-15610174D01*
X13801134Y-15610174D02*
X13820182Y-15619698D01*
X13820182Y-15619698D02*
X13829705Y-15629222D01*
X13829705Y-15629222D02*
X13839229Y-15648269D01*
X13839229Y-15648269D02*
X13839229Y-15695888D01*
X13839229Y-15695888D02*
X13829705Y-15714936D01*
X13829705Y-15714936D02*
X13820182Y-15724460D01*
X13820182Y-15724460D02*
X13801134Y-15733984D01*
X13801134Y-15733984D02*
X13753515Y-15733984D01*
X13753515Y-15733984D02*
X13734467Y-15724460D01*
X13734467Y-15724460D02*
X13724943Y-15714936D01*
X13963039Y-15533984D02*
X13982086Y-15533984D01*
X13982086Y-15533984D02*
X14001134Y-15543508D01*
X14001134Y-15543508D02*
X14010658Y-15553031D01*
X14010658Y-15553031D02*
X14020182Y-15572079D01*
X14020182Y-15572079D02*
X14029705Y-15610174D01*
X14029705Y-15610174D02*
X14029705Y-15657793D01*
X14029705Y-15657793D02*
X14020182Y-15695888D01*
X14020182Y-15695888D02*
X14010658Y-15714936D01*
X14010658Y-15714936D02*
X14001134Y-15724460D01*
X14001134Y-15724460D02*
X13982086Y-15733984D01*
X13982086Y-15733984D02*
X13963039Y-15733984D01*
X13963039Y-15733984D02*
X13943991Y-15724460D01*
X13943991Y-15724460D02*
X13934467Y-15714936D01*
X13934467Y-15714936D02*
X13924943Y-15695888D01*
X13924943Y-15695888D02*
X13915420Y-15657793D01*
X13915420Y-15657793D02*
X13915420Y-15610174D01*
X13915420Y-15610174D02*
X13924943Y-15572079D01*
X13924943Y-15572079D02*
X13934467Y-15553031D01*
X13934467Y-15553031D02*
X13943991Y-15543508D01*
X13943991Y-15543508D02*
X13963039Y-15533984D01*
X14115420Y-15733984D02*
X14115420Y-15600650D01*
X14115420Y-15619698D02*
X14124943Y-15610174D01*
X14124943Y-15610174D02*
X14143991Y-15600650D01*
X14143991Y-15600650D02*
X14172563Y-15600650D01*
X14172563Y-15600650D02*
X14191610Y-15610174D01*
X14191610Y-15610174D02*
X14201134Y-15629222D01*
X14201134Y-15629222D02*
X14201134Y-15733984D01*
X14201134Y-15629222D02*
X14210658Y-15610174D01*
X14210658Y-15610174D02*
X14229705Y-15600650D01*
X14229705Y-15600650D02*
X14258277Y-15600650D01*
X14258277Y-15600650D02*
X14277324Y-15610174D01*
X14277324Y-15610174D02*
X14286848Y-15629222D01*
X14286848Y-15629222D02*
X14286848Y-15733984D01*
X14382086Y-15733984D02*
X14382086Y-15600650D01*
X14382086Y-15619698D02*
X14391610Y-15610174D01*
X14391610Y-15610174D02*
X14410658Y-15600650D01*
X14410658Y-15600650D02*
X14439229Y-15600650D01*
X14439229Y-15600650D02*
X14458277Y-15610174D01*
X14458277Y-15610174D02*
X14467801Y-15629222D01*
X14467801Y-15629222D02*
X14467801Y-15733984D01*
X14467801Y-15629222D02*
X14477324Y-15610174D01*
X14477324Y-15610174D02*
X14496372Y-15600650D01*
X14496372Y-15600650D02*
X14524943Y-15600650D01*
X14524943Y-15600650D02*
X14543991Y-15610174D01*
X14543991Y-15610174D02*
X14553515Y-15629222D01*
X14553515Y-15629222D02*
X14553515Y-15733984D01*
X14943991Y-15524460D02*
X14772563Y-15781603D01*
X15201134Y-15533984D02*
X15220182Y-15533984D01*
X15220182Y-15533984D02*
X15239229Y-15543508D01*
X15239229Y-15543508D02*
X15248753Y-15553031D01*
X15248753Y-15553031D02*
X15258277Y-15572079D01*
X15258277Y-15572079D02*
X15267801Y-15610174D01*
X15267801Y-15610174D02*
X15267801Y-15657793D01*
X15267801Y-15657793D02*
X15258277Y-15695888D01*
X15258277Y-15695888D02*
X15248753Y-15714936D01*
X15248753Y-15714936D02*
X15239229Y-15724460D01*
X15239229Y-15724460D02*
X15220182Y-15733984D01*
X15220182Y-15733984D02*
X15201134Y-15733984D01*
X15201134Y-15733984D02*
X15182086Y-15724460D01*
X15182086Y-15724460D02*
X15172563Y-15714936D01*
X15172563Y-15714936D02*
X15163039Y-15695888D01*
X15163039Y-15695888D02*
X15153515Y-15657793D01*
X15153515Y-15657793D02*
X15153515Y-15610174D01*
X15153515Y-15610174D02*
X15163039Y-15572079D01*
X15163039Y-15572079D02*
X15172563Y-15553031D01*
X15172563Y-15553031D02*
X15182086Y-15543508D01*
X15182086Y-15543508D02*
X15201134Y-15533984D01*
X15353515Y-15714936D02*
X15363039Y-15724460D01*
X15363039Y-15724460D02*
X15353515Y-15733984D01*
X15353515Y-15733984D02*
X15343991Y-15724460D01*
X15343991Y-15724460D02*
X15353515Y-15714936D01*
X15353515Y-15714936D02*
X15353515Y-15733984D01*
X15486848Y-15533984D02*
X15505896Y-15533984D01*
X15505896Y-15533984D02*
X15524944Y-15543508D01*
X15524944Y-15543508D02*
X15534467Y-15553031D01*
X15534467Y-15553031D02*
X15543991Y-15572079D01*
X15543991Y-15572079D02*
X15553515Y-15610174D01*
X15553515Y-15610174D02*
X15553515Y-15657793D01*
X15553515Y-15657793D02*
X15543991Y-15695888D01*
X15543991Y-15695888D02*
X15534467Y-15714936D01*
X15534467Y-15714936D02*
X15524944Y-15724460D01*
X15524944Y-15724460D02*
X15505896Y-15733984D01*
X15505896Y-15733984D02*
X15486848Y-15733984D01*
X15486848Y-15733984D02*
X15467801Y-15724460D01*
X15467801Y-15724460D02*
X15458277Y-15714936D01*
X15458277Y-15714936D02*
X15448753Y-15695888D01*
X15448753Y-15695888D02*
X15439229Y-15657793D01*
X15439229Y-15657793D02*
X15439229Y-15610174D01*
X15439229Y-15610174D02*
X15448753Y-15572079D01*
X15448753Y-15572079D02*
X15458277Y-15553031D01*
X15458277Y-15553031D02*
X15467801Y-15543508D01*
X15467801Y-15543508D02*
X15486848Y-15533984D01*
X15629706Y-15553031D02*
X15639229Y-15543508D01*
X15639229Y-15543508D02*
X15658277Y-15533984D01*
X15658277Y-15533984D02*
X15705896Y-15533984D01*
X15705896Y-15533984D02*
X15724944Y-15543508D01*
X15724944Y-15543508D02*
X15734467Y-15553031D01*
X15734467Y-15553031D02*
X15743991Y-15572079D01*
X15743991Y-15572079D02*
X15743991Y-15591127D01*
X15743991Y-15591127D02*
X15734467Y-15619698D01*
X15734467Y-15619698D02*
X15620182Y-15733984D01*
X15620182Y-15733984D02*
X15743991Y-15733984D01*
X15924944Y-15533984D02*
X15829706Y-15533984D01*
X15829706Y-15533984D02*
X15820182Y-15629222D01*
X15820182Y-15629222D02*
X15829706Y-15619698D01*
X15829706Y-15619698D02*
X15848753Y-15610174D01*
X15848753Y-15610174D02*
X15896372Y-15610174D01*
X15896372Y-15610174D02*
X15915420Y-15619698D01*
X15915420Y-15619698D02*
X15924944Y-15629222D01*
X15924944Y-15629222D02*
X15934467Y-15648269D01*
X15934467Y-15648269D02*
X15934467Y-15695888D01*
X15934467Y-15695888D02*
X15924944Y-15714936D01*
X15924944Y-15714936D02*
X15915420Y-15724460D01*
X15915420Y-15724460D02*
X15896372Y-15733984D01*
X15896372Y-15733984D02*
X15848753Y-15733984D01*
X15848753Y-15733984D02*
X15829706Y-15724460D01*
X15829706Y-15724460D02*
X15820182Y-15714936D01*
X16105896Y-15533984D02*
X16067801Y-15533984D01*
X16067801Y-15533984D02*
X16048753Y-15543508D01*
X16048753Y-15543508D02*
X16039229Y-15553031D01*
X16039229Y-15553031D02*
X16020182Y-15581603D01*
X16020182Y-15581603D02*
X16010658Y-15619698D01*
X16010658Y-15619698D02*
X16010658Y-15695888D01*
X16010658Y-15695888D02*
X16020182Y-15714936D01*
X16020182Y-15714936D02*
X16029706Y-15724460D01*
X16029706Y-15724460D02*
X16048753Y-15733984D01*
X16048753Y-15733984D02*
X16086848Y-15733984D01*
X16086848Y-15733984D02*
X16105896Y-15724460D01*
X16105896Y-15724460D02*
X16115420Y-15714936D01*
X16115420Y-15714936D02*
X16124944Y-15695888D01*
X16124944Y-15695888D02*
X16124944Y-15648269D01*
X16124944Y-15648269D02*
X16115420Y-15629222D01*
X16115420Y-15629222D02*
X16105896Y-15619698D01*
X16105896Y-15619698D02*
X16086848Y-15610174D01*
X16086848Y-15610174D02*
X16048753Y-15610174D01*
X16048753Y-15610174D02*
X16029706Y-15619698D01*
X16029706Y-15619698D02*
X16020182Y-15629222D01*
X16020182Y-15629222D02*
X16010658Y-15648269D01*
X16201134Y-15533984D02*
X16201134Y-15572079D01*
X16277325Y-15533984D02*
X16277325Y-15572079D01*
X16572563Y-15810174D02*
X16563039Y-15800650D01*
X16563039Y-15800650D02*
X16543991Y-15772079D01*
X16543991Y-15772079D02*
X16534468Y-15753031D01*
X16534468Y-15753031D02*
X16524944Y-15724460D01*
X16524944Y-15724460D02*
X16515420Y-15676841D01*
X16515420Y-15676841D02*
X16515420Y-15638746D01*
X16515420Y-15638746D02*
X16524944Y-15591127D01*
X16524944Y-15591127D02*
X16534468Y-15562555D01*
X16534468Y-15562555D02*
X16543991Y-15543508D01*
X16543991Y-15543508D02*
X16563039Y-15514936D01*
X16563039Y-15514936D02*
X16572563Y-15505412D01*
X16639229Y-15553031D02*
X16648753Y-15543508D01*
X16648753Y-15543508D02*
X16667801Y-15533984D01*
X16667801Y-15533984D02*
X16715420Y-15533984D01*
X16715420Y-15533984D02*
X16734468Y-15543508D01*
X16734468Y-15543508D02*
X16743991Y-15553031D01*
X16743991Y-15553031D02*
X16753515Y-15572079D01*
X16753515Y-15572079D02*
X16753515Y-15591127D01*
X16753515Y-15591127D02*
X16743991Y-15619698D01*
X16743991Y-15619698D02*
X16629706Y-15733984D01*
X16629706Y-15733984D02*
X16753515Y-15733984D01*
X16991611Y-15733984D02*
X16991611Y-15533984D01*
X17077325Y-15733984D02*
X17077325Y-15629222D01*
X17077325Y-15629222D02*
X17067801Y-15610174D01*
X17067801Y-15610174D02*
X17048753Y-15600650D01*
X17048753Y-15600650D02*
X17020182Y-15600650D01*
X17020182Y-15600650D02*
X17001134Y-15610174D01*
X17001134Y-15610174D02*
X16991611Y-15619698D01*
X17201134Y-15733984D02*
X17182087Y-15724460D01*
X17182087Y-15724460D02*
X17172563Y-15714936D01*
X17172563Y-15714936D02*
X17163039Y-15695888D01*
X17163039Y-15695888D02*
X17163039Y-15638746D01*
X17163039Y-15638746D02*
X17172563Y-15619698D01*
X17172563Y-15619698D02*
X17182087Y-15610174D01*
X17182087Y-15610174D02*
X17201134Y-15600650D01*
X17201134Y-15600650D02*
X17229706Y-15600650D01*
X17229706Y-15600650D02*
X17248753Y-15610174D01*
X17248753Y-15610174D02*
X17258277Y-15619698D01*
X17258277Y-15619698D02*
X17267801Y-15638746D01*
X17267801Y-15638746D02*
X17267801Y-15695888D01*
X17267801Y-15695888D02*
X17258277Y-15714936D01*
X17258277Y-15714936D02*
X17248753Y-15724460D01*
X17248753Y-15724460D02*
X17229706Y-15733984D01*
X17229706Y-15733984D02*
X17201134Y-15733984D01*
X17382087Y-15733984D02*
X17363039Y-15724460D01*
X17363039Y-15724460D02*
X17353515Y-15705412D01*
X17353515Y-15705412D02*
X17353515Y-15533984D01*
X17534468Y-15724460D02*
X17515420Y-15733984D01*
X17515420Y-15733984D02*
X17477325Y-15733984D01*
X17477325Y-15733984D02*
X17458277Y-15724460D01*
X17458277Y-15724460D02*
X17448753Y-15705412D01*
X17448753Y-15705412D02*
X17448753Y-15629222D01*
X17448753Y-15629222D02*
X17458277Y-15610174D01*
X17458277Y-15610174D02*
X17477325Y-15600650D01*
X17477325Y-15600650D02*
X17515420Y-15600650D01*
X17515420Y-15600650D02*
X17534468Y-15610174D01*
X17534468Y-15610174D02*
X17543992Y-15629222D01*
X17543992Y-15629222D02*
X17543992Y-15648269D01*
X17543992Y-15648269D02*
X17448753Y-15667317D01*
X17620182Y-15724460D02*
X17639230Y-15733984D01*
X17639230Y-15733984D02*
X17677325Y-15733984D01*
X17677325Y-15733984D02*
X17696373Y-15724460D01*
X17696373Y-15724460D02*
X17705896Y-15705412D01*
X17705896Y-15705412D02*
X17705896Y-15695888D01*
X17705896Y-15695888D02*
X17696373Y-15676841D01*
X17696373Y-15676841D02*
X17677325Y-15667317D01*
X17677325Y-15667317D02*
X17648753Y-15667317D01*
X17648753Y-15667317D02*
X17629706Y-15657793D01*
X17629706Y-15657793D02*
X17620182Y-15638746D01*
X17620182Y-15638746D02*
X17620182Y-15629222D01*
X17620182Y-15629222D02*
X17629706Y-15610174D01*
X17629706Y-15610174D02*
X17648753Y-15600650D01*
X17648753Y-15600650D02*
X17677325Y-15600650D01*
X17677325Y-15600650D02*
X17696373Y-15610174D01*
X17772563Y-15810174D02*
X17782087Y-15800650D01*
X17782087Y-15800650D02*
X17801134Y-15772079D01*
X17801134Y-15772079D02*
X17810658Y-15753031D01*
X17810658Y-15753031D02*
X17820182Y-15724460D01*
X17820182Y-15724460D02*
X17829706Y-15676841D01*
X17829706Y-15676841D02*
X17829706Y-15638746D01*
X17829706Y-15638746D02*
X17820182Y-15591127D01*
X17820182Y-15591127D02*
X17810658Y-15562555D01*
X17810658Y-15562555D02*
X17801134Y-15543508D01*
X17801134Y-15543508D02*
X17782087Y-15514936D01*
X17782087Y-15514936D02*
X17772563Y-15505412D01*
X18134468Y-15810174D02*
X18124944Y-15800650D01*
X18124944Y-15800650D02*
X18105896Y-15772079D01*
X18105896Y-15772079D02*
X18096373Y-15753031D01*
X18096373Y-15753031D02*
X18086849Y-15724460D01*
X18086849Y-15724460D02*
X18077325Y-15676841D01*
X18077325Y-15676841D02*
X18077325Y-15638746D01*
X18077325Y-15638746D02*
X18086849Y-15591127D01*
X18086849Y-15591127D02*
X18096373Y-15562555D01*
X18096373Y-15562555D02*
X18105896Y-15543508D01*
X18105896Y-15543508D02*
X18124944Y-15514936D01*
X18124944Y-15514936D02*
X18134468Y-15505412D01*
X18210658Y-15600650D02*
X18210658Y-15733984D01*
X18210658Y-15619698D02*
X18220182Y-15610174D01*
X18220182Y-15610174D02*
X18239230Y-15600650D01*
X18239230Y-15600650D02*
X18267801Y-15600650D01*
X18267801Y-15600650D02*
X18286849Y-15610174D01*
X18286849Y-15610174D02*
X18296373Y-15629222D01*
X18296373Y-15629222D02*
X18296373Y-15733984D01*
X18420182Y-15733984D02*
X18401134Y-15724460D01*
X18401134Y-15724460D02*
X18391611Y-15714936D01*
X18391611Y-15714936D02*
X18382087Y-15695888D01*
X18382087Y-15695888D02*
X18382087Y-15638746D01*
X18382087Y-15638746D02*
X18391611Y-15619698D01*
X18391611Y-15619698D02*
X18401134Y-15610174D01*
X18401134Y-15610174D02*
X18420182Y-15600650D01*
X18420182Y-15600650D02*
X18448754Y-15600650D01*
X18448754Y-15600650D02*
X18467801Y-15610174D01*
X18467801Y-15610174D02*
X18477325Y-15619698D01*
X18477325Y-15619698D02*
X18486849Y-15638746D01*
X18486849Y-15638746D02*
X18486849Y-15695888D01*
X18486849Y-15695888D02*
X18477325Y-15714936D01*
X18477325Y-15714936D02*
X18467801Y-15724460D01*
X18467801Y-15724460D02*
X18448754Y-15733984D01*
X18448754Y-15733984D02*
X18420182Y-15733984D01*
X18543992Y-15600650D02*
X18620182Y-15600650D01*
X18572563Y-15533984D02*
X18572563Y-15705412D01*
X18572563Y-15705412D02*
X18582087Y-15724460D01*
X18582087Y-15724460D02*
X18601134Y-15733984D01*
X18601134Y-15733984D02*
X18620182Y-15733984D01*
X18839230Y-15600650D02*
X18839230Y-15800650D01*
X18839230Y-15610174D02*
X18858277Y-15600650D01*
X18858277Y-15600650D02*
X18896373Y-15600650D01*
X18896373Y-15600650D02*
X18915420Y-15610174D01*
X18915420Y-15610174D02*
X18924944Y-15619698D01*
X18924944Y-15619698D02*
X18934468Y-15638746D01*
X18934468Y-15638746D02*
X18934468Y-15695888D01*
X18934468Y-15695888D02*
X18924944Y-15714936D01*
X18924944Y-15714936D02*
X18915420Y-15724460D01*
X18915420Y-15724460D02*
X18896373Y-15733984D01*
X18896373Y-15733984D02*
X18858277Y-15733984D01*
X18858277Y-15733984D02*
X18839230Y-15724460D01*
X19048754Y-15733984D02*
X19029706Y-15724460D01*
X19029706Y-15724460D02*
X19020182Y-15705412D01*
X19020182Y-15705412D02*
X19020182Y-15533984D01*
X19210658Y-15733984D02*
X19210658Y-15629222D01*
X19210658Y-15629222D02*
X19201135Y-15610174D01*
X19201135Y-15610174D02*
X19182087Y-15600650D01*
X19182087Y-15600650D02*
X19143992Y-15600650D01*
X19143992Y-15600650D02*
X19124944Y-15610174D01*
X19210658Y-15724460D02*
X19191611Y-15733984D01*
X19191611Y-15733984D02*
X19143992Y-15733984D01*
X19143992Y-15733984D02*
X19124944Y-15724460D01*
X19124944Y-15724460D02*
X19115420Y-15705412D01*
X19115420Y-15705412D02*
X19115420Y-15686365D01*
X19115420Y-15686365D02*
X19124944Y-15667317D01*
X19124944Y-15667317D02*
X19143992Y-15657793D01*
X19143992Y-15657793D02*
X19191611Y-15657793D01*
X19191611Y-15657793D02*
X19210658Y-15648269D01*
X19277325Y-15600650D02*
X19353515Y-15600650D01*
X19305896Y-15533984D02*
X19305896Y-15705412D01*
X19305896Y-15705412D02*
X19315420Y-15724460D01*
X19315420Y-15724460D02*
X19334468Y-15733984D01*
X19334468Y-15733984D02*
X19353515Y-15733984D01*
X19496373Y-15724460D02*
X19477325Y-15733984D01*
X19477325Y-15733984D02*
X19439230Y-15733984D01*
X19439230Y-15733984D02*
X19420182Y-15724460D01*
X19420182Y-15724460D02*
X19410658Y-15705412D01*
X19410658Y-15705412D02*
X19410658Y-15629222D01*
X19410658Y-15629222D02*
X19420182Y-15610174D01*
X19420182Y-15610174D02*
X19439230Y-15600650D01*
X19439230Y-15600650D02*
X19477325Y-15600650D01*
X19477325Y-15600650D02*
X19496373Y-15610174D01*
X19496373Y-15610174D02*
X19505896Y-15629222D01*
X19505896Y-15629222D02*
X19505896Y-15648269D01*
X19505896Y-15648269D02*
X19410658Y-15667317D01*
X19677325Y-15733984D02*
X19677325Y-15533984D01*
X19677325Y-15724460D02*
X19658277Y-15733984D01*
X19658277Y-15733984D02*
X19620182Y-15733984D01*
X19620182Y-15733984D02*
X19601135Y-15724460D01*
X19601135Y-15724460D02*
X19591611Y-15714936D01*
X19591611Y-15714936D02*
X19582087Y-15695888D01*
X19582087Y-15695888D02*
X19582087Y-15638746D01*
X19582087Y-15638746D02*
X19591611Y-15619698D01*
X19591611Y-15619698D02*
X19601135Y-15610174D01*
X19601135Y-15610174D02*
X19620182Y-15600650D01*
X19620182Y-15600650D02*
X19658277Y-15600650D01*
X19658277Y-15600650D02*
X19677325Y-15610174D01*
X19753516Y-15810174D02*
X19763039Y-15800650D01*
X19763039Y-15800650D02*
X19782087Y-15772079D01*
X19782087Y-15772079D02*
X19791611Y-15753031D01*
X19791611Y-15753031D02*
X19801135Y-15724460D01*
X19801135Y-15724460D02*
X19810658Y-15676841D01*
X19810658Y-15676841D02*
X19810658Y-15638746D01*
X19810658Y-15638746D02*
X19801135Y-15591127D01*
X19801135Y-15591127D02*
X19791611Y-15562555D01*
X19791611Y-15562555D02*
X19782087Y-15543508D01*
X19782087Y-15543508D02*
X19763039Y-15514936D01*
X19763039Y-15514936D02*
X19753516Y-15505412D01*
X12997500Y-15906500D02*
G75*
G02*
X12797500Y-15906500I-100000J0D01*
G01*
X12797500Y-15906500D02*
G75*
G02*
X12997500Y-15906500I100000J0D01*
G01*
X13248753Y-15817031D02*
X13258277Y-15807508D01*
X13258277Y-15807508D02*
X13277324Y-15797984D01*
X13277324Y-15797984D02*
X13324943Y-15797984D01*
X13324943Y-15797984D02*
X13343991Y-15807508D01*
X13343991Y-15807508D02*
X13353515Y-15817031D01*
X13353515Y-15817031D02*
X13363039Y-15836079D01*
X13363039Y-15836079D02*
X13363039Y-15855127D01*
X13363039Y-15855127D02*
X13353515Y-15883698D01*
X13353515Y-15883698D02*
X13239229Y-15997984D01*
X13239229Y-15997984D02*
X13363039Y-15997984D01*
X13448753Y-15978936D02*
X13458277Y-15988460D01*
X13458277Y-15988460D02*
X13448753Y-15997984D01*
X13448753Y-15997984D02*
X13439229Y-15988460D01*
X13439229Y-15988460D02*
X13448753Y-15978936D01*
X13448753Y-15978936D02*
X13448753Y-15997984D01*
X13524943Y-15797984D02*
X13648753Y-15797984D01*
X13648753Y-15797984D02*
X13582086Y-15874174D01*
X13582086Y-15874174D02*
X13610658Y-15874174D01*
X13610658Y-15874174D02*
X13629705Y-15883698D01*
X13629705Y-15883698D02*
X13639229Y-15893222D01*
X13639229Y-15893222D02*
X13648753Y-15912269D01*
X13648753Y-15912269D02*
X13648753Y-15959888D01*
X13648753Y-15959888D02*
X13639229Y-15978936D01*
X13639229Y-15978936D02*
X13629705Y-15988460D01*
X13629705Y-15988460D02*
X13610658Y-15997984D01*
X13610658Y-15997984D02*
X13553515Y-15997984D01*
X13553515Y-15997984D02*
X13534467Y-15988460D01*
X13534467Y-15988460D02*
X13524943Y-15978936D01*
X13743991Y-15997984D02*
X13782086Y-15997984D01*
X13782086Y-15997984D02*
X13801134Y-15988460D01*
X13801134Y-15988460D02*
X13810658Y-15978936D01*
X13810658Y-15978936D02*
X13829705Y-15950365D01*
X13829705Y-15950365D02*
X13839229Y-15912269D01*
X13839229Y-15912269D02*
X13839229Y-15836079D01*
X13839229Y-15836079D02*
X13829705Y-15817031D01*
X13829705Y-15817031D02*
X13820182Y-15807508D01*
X13820182Y-15807508D02*
X13801134Y-15797984D01*
X13801134Y-15797984D02*
X13763039Y-15797984D01*
X13763039Y-15797984D02*
X13743991Y-15807508D01*
X13743991Y-15807508D02*
X13734467Y-15817031D01*
X13734467Y-15817031D02*
X13724943Y-15836079D01*
X13724943Y-15836079D02*
X13724943Y-15883698D01*
X13724943Y-15883698D02*
X13734467Y-15902746D01*
X13734467Y-15902746D02*
X13743991Y-15912269D01*
X13743991Y-15912269D02*
X13763039Y-15921793D01*
X13763039Y-15921793D02*
X13801134Y-15921793D01*
X13801134Y-15921793D02*
X13820182Y-15912269D01*
X13820182Y-15912269D02*
X13829705Y-15902746D01*
X13829705Y-15902746D02*
X13839229Y-15883698D01*
X13963039Y-15797984D02*
X13982086Y-15797984D01*
X13982086Y-15797984D02*
X14001134Y-15807508D01*
X14001134Y-15807508D02*
X14010658Y-15817031D01*
X14010658Y-15817031D02*
X14020182Y-15836079D01*
X14020182Y-15836079D02*
X14029705Y-15874174D01*
X14029705Y-15874174D02*
X14029705Y-15921793D01*
X14029705Y-15921793D02*
X14020182Y-15959888D01*
X14020182Y-15959888D02*
X14010658Y-15978936D01*
X14010658Y-15978936D02*
X14001134Y-15988460D01*
X14001134Y-15988460D02*
X13982086Y-15997984D01*
X13982086Y-15997984D02*
X13963039Y-15997984D01*
X13963039Y-15997984D02*
X13943991Y-15988460D01*
X13943991Y-15988460D02*
X13934467Y-15978936D01*
X13934467Y-15978936D02*
X13924943Y-15959888D01*
X13924943Y-15959888D02*
X13915420Y-15921793D01*
X13915420Y-15921793D02*
X13915420Y-15874174D01*
X13915420Y-15874174D02*
X13924943Y-15836079D01*
X13924943Y-15836079D02*
X13934467Y-15817031D01*
X13934467Y-15817031D02*
X13943991Y-15807508D01*
X13943991Y-15807508D02*
X13963039Y-15797984D01*
X14115420Y-15997984D02*
X14115420Y-15864650D01*
X14115420Y-15883698D02*
X14124943Y-15874174D01*
X14124943Y-15874174D02*
X14143991Y-15864650D01*
X14143991Y-15864650D02*
X14172563Y-15864650D01*
X14172563Y-15864650D02*
X14191610Y-15874174D01*
X14191610Y-15874174D02*
X14201134Y-15893222D01*
X14201134Y-15893222D02*
X14201134Y-15997984D01*
X14201134Y-15893222D02*
X14210658Y-15874174D01*
X14210658Y-15874174D02*
X14229705Y-15864650D01*
X14229705Y-15864650D02*
X14258277Y-15864650D01*
X14258277Y-15864650D02*
X14277324Y-15874174D01*
X14277324Y-15874174D02*
X14286848Y-15893222D01*
X14286848Y-15893222D02*
X14286848Y-15997984D01*
X14382086Y-15997984D02*
X14382086Y-15864650D01*
X14382086Y-15883698D02*
X14391610Y-15874174D01*
X14391610Y-15874174D02*
X14410658Y-15864650D01*
X14410658Y-15864650D02*
X14439229Y-15864650D01*
X14439229Y-15864650D02*
X14458277Y-15874174D01*
X14458277Y-15874174D02*
X14467801Y-15893222D01*
X14467801Y-15893222D02*
X14467801Y-15997984D01*
X14467801Y-15893222D02*
X14477324Y-15874174D01*
X14477324Y-15874174D02*
X14496372Y-15864650D01*
X14496372Y-15864650D02*
X14524943Y-15864650D01*
X14524943Y-15864650D02*
X14543991Y-15874174D01*
X14543991Y-15874174D02*
X14553515Y-15893222D01*
X14553515Y-15893222D02*
X14553515Y-15997984D01*
X14943991Y-15788460D02*
X14772563Y-16045603D01*
X15201134Y-15797984D02*
X15220182Y-15797984D01*
X15220182Y-15797984D02*
X15239229Y-15807508D01*
X15239229Y-15807508D02*
X15248753Y-15817031D01*
X15248753Y-15817031D02*
X15258277Y-15836079D01*
X15258277Y-15836079D02*
X15267801Y-15874174D01*
X15267801Y-15874174D02*
X15267801Y-15921793D01*
X15267801Y-15921793D02*
X15258277Y-15959888D01*
X15258277Y-15959888D02*
X15248753Y-15978936D01*
X15248753Y-15978936D02*
X15239229Y-15988460D01*
X15239229Y-15988460D02*
X15220182Y-15997984D01*
X15220182Y-15997984D02*
X15201134Y-15997984D01*
X15201134Y-15997984D02*
X15182086Y-15988460D01*
X15182086Y-15988460D02*
X15172563Y-15978936D01*
X15172563Y-15978936D02*
X15163039Y-15959888D01*
X15163039Y-15959888D02*
X15153515Y-15921793D01*
X15153515Y-15921793D02*
X15153515Y-15874174D01*
X15153515Y-15874174D02*
X15163039Y-15836079D01*
X15163039Y-15836079D02*
X15172563Y-15817031D01*
X15172563Y-15817031D02*
X15182086Y-15807508D01*
X15182086Y-15807508D02*
X15201134Y-15797984D01*
X15353515Y-15978936D02*
X15363039Y-15988460D01*
X15363039Y-15988460D02*
X15353515Y-15997984D01*
X15353515Y-15997984D02*
X15343991Y-15988460D01*
X15343991Y-15988460D02*
X15353515Y-15978936D01*
X15353515Y-15978936D02*
X15353515Y-15997984D01*
X15486848Y-15797984D02*
X15505896Y-15797984D01*
X15505896Y-15797984D02*
X15524944Y-15807508D01*
X15524944Y-15807508D02*
X15534467Y-15817031D01*
X15534467Y-15817031D02*
X15543991Y-15836079D01*
X15543991Y-15836079D02*
X15553515Y-15874174D01*
X15553515Y-15874174D02*
X15553515Y-15921793D01*
X15553515Y-15921793D02*
X15543991Y-15959888D01*
X15543991Y-15959888D02*
X15534467Y-15978936D01*
X15534467Y-15978936D02*
X15524944Y-15988460D01*
X15524944Y-15988460D02*
X15505896Y-15997984D01*
X15505896Y-15997984D02*
X15486848Y-15997984D01*
X15486848Y-15997984D02*
X15467801Y-15988460D01*
X15467801Y-15988460D02*
X15458277Y-15978936D01*
X15458277Y-15978936D02*
X15448753Y-15959888D01*
X15448753Y-15959888D02*
X15439229Y-15921793D01*
X15439229Y-15921793D02*
X15439229Y-15874174D01*
X15439229Y-15874174D02*
X15448753Y-15836079D01*
X15448753Y-15836079D02*
X15458277Y-15817031D01*
X15458277Y-15817031D02*
X15467801Y-15807508D01*
X15467801Y-15807508D02*
X15486848Y-15797984D01*
X15648753Y-15997984D02*
X15686848Y-15997984D01*
X15686848Y-15997984D02*
X15705896Y-15988460D01*
X15705896Y-15988460D02*
X15715420Y-15978936D01*
X15715420Y-15978936D02*
X15734467Y-15950365D01*
X15734467Y-15950365D02*
X15743991Y-15912269D01*
X15743991Y-15912269D02*
X15743991Y-15836079D01*
X15743991Y-15836079D02*
X15734467Y-15817031D01*
X15734467Y-15817031D02*
X15724944Y-15807508D01*
X15724944Y-15807508D02*
X15705896Y-15797984D01*
X15705896Y-15797984D02*
X15667801Y-15797984D01*
X15667801Y-15797984D02*
X15648753Y-15807508D01*
X15648753Y-15807508D02*
X15639229Y-15817031D01*
X15639229Y-15817031D02*
X15629706Y-15836079D01*
X15629706Y-15836079D02*
X15629706Y-15883698D01*
X15629706Y-15883698D02*
X15639229Y-15902746D01*
X15639229Y-15902746D02*
X15648753Y-15912269D01*
X15648753Y-15912269D02*
X15667801Y-15921793D01*
X15667801Y-15921793D02*
X15705896Y-15921793D01*
X15705896Y-15921793D02*
X15724944Y-15912269D01*
X15724944Y-15912269D02*
X15734467Y-15902746D01*
X15734467Y-15902746D02*
X15743991Y-15883698D01*
X15915420Y-15864650D02*
X15915420Y-15997984D01*
X15867801Y-15788460D02*
X15820182Y-15931317D01*
X15820182Y-15931317D02*
X15943991Y-15931317D01*
X16124944Y-15997984D02*
X16010658Y-15997984D01*
X16067801Y-15997984D02*
X16067801Y-15797984D01*
X16067801Y-15797984D02*
X16048753Y-15826555D01*
X16048753Y-15826555D02*
X16029706Y-15845603D01*
X16029706Y-15845603D02*
X16010658Y-15855127D01*
X16201134Y-15797984D02*
X16201134Y-15836079D01*
X16277325Y-15797984D02*
X16277325Y-15836079D01*
X16572563Y-16074174D02*
X16563039Y-16064650D01*
X16563039Y-16064650D02*
X16543991Y-16036079D01*
X16543991Y-16036079D02*
X16534468Y-16017031D01*
X16534468Y-16017031D02*
X16524944Y-15988460D01*
X16524944Y-15988460D02*
X16515420Y-15940841D01*
X16515420Y-15940841D02*
X16515420Y-15902746D01*
X16515420Y-15902746D02*
X16524944Y-15855127D01*
X16524944Y-15855127D02*
X16534468Y-15826555D01*
X16534468Y-15826555D02*
X16543991Y-15807508D01*
X16543991Y-15807508D02*
X16563039Y-15778936D01*
X16563039Y-15778936D02*
X16572563Y-15769412D01*
X16753515Y-15997984D02*
X16639229Y-15997984D01*
X16696372Y-15997984D02*
X16696372Y-15797984D01*
X16696372Y-15797984D02*
X16677325Y-15826555D01*
X16677325Y-15826555D02*
X16658277Y-15845603D01*
X16658277Y-15845603D02*
X16639229Y-15855127D01*
X16991611Y-15997984D02*
X16991611Y-15797984D01*
X17077325Y-15997984D02*
X17077325Y-15893222D01*
X17077325Y-15893222D02*
X17067801Y-15874174D01*
X17067801Y-15874174D02*
X17048753Y-15864650D01*
X17048753Y-15864650D02*
X17020182Y-15864650D01*
X17020182Y-15864650D02*
X17001134Y-15874174D01*
X17001134Y-15874174D02*
X16991611Y-15883698D01*
X17201134Y-15997984D02*
X17182087Y-15988460D01*
X17182087Y-15988460D02*
X17172563Y-15978936D01*
X17172563Y-15978936D02*
X17163039Y-15959888D01*
X17163039Y-15959888D02*
X17163039Y-15902746D01*
X17163039Y-15902746D02*
X17172563Y-15883698D01*
X17172563Y-15883698D02*
X17182087Y-15874174D01*
X17182087Y-15874174D02*
X17201134Y-15864650D01*
X17201134Y-15864650D02*
X17229706Y-15864650D01*
X17229706Y-15864650D02*
X17248753Y-15874174D01*
X17248753Y-15874174D02*
X17258277Y-15883698D01*
X17258277Y-15883698D02*
X17267801Y-15902746D01*
X17267801Y-15902746D02*
X17267801Y-15959888D01*
X17267801Y-15959888D02*
X17258277Y-15978936D01*
X17258277Y-15978936D02*
X17248753Y-15988460D01*
X17248753Y-15988460D02*
X17229706Y-15997984D01*
X17229706Y-15997984D02*
X17201134Y-15997984D01*
X17382087Y-15997984D02*
X17363039Y-15988460D01*
X17363039Y-15988460D02*
X17353515Y-15969412D01*
X17353515Y-15969412D02*
X17353515Y-15797984D01*
X17534468Y-15988460D02*
X17515420Y-15997984D01*
X17515420Y-15997984D02*
X17477325Y-15997984D01*
X17477325Y-15997984D02*
X17458277Y-15988460D01*
X17458277Y-15988460D02*
X17448753Y-15969412D01*
X17448753Y-15969412D02*
X17448753Y-15893222D01*
X17448753Y-15893222D02*
X17458277Y-15874174D01*
X17458277Y-15874174D02*
X17477325Y-15864650D01*
X17477325Y-15864650D02*
X17515420Y-15864650D01*
X17515420Y-15864650D02*
X17534468Y-15874174D01*
X17534468Y-15874174D02*
X17543992Y-15893222D01*
X17543992Y-15893222D02*
X17543992Y-15912269D01*
X17543992Y-15912269D02*
X17448753Y-15931317D01*
X17610658Y-16074174D02*
X17620182Y-16064650D01*
X17620182Y-16064650D02*
X17639230Y-16036079D01*
X17639230Y-16036079D02*
X17648753Y-16017031D01*
X17648753Y-16017031D02*
X17658277Y-15988460D01*
X17658277Y-15988460D02*
X17667801Y-15940841D01*
X17667801Y-15940841D02*
X17667801Y-15902746D01*
X17667801Y-15902746D02*
X17658277Y-15855127D01*
X17658277Y-15855127D02*
X17648753Y-15826555D01*
X17648753Y-15826555D02*
X17639230Y-15807508D01*
X17639230Y-15807508D02*
X17620182Y-15778936D01*
X17620182Y-15778936D02*
X17610658Y-15769412D01*
X17972563Y-16074174D02*
X17963039Y-16064650D01*
X17963039Y-16064650D02*
X17943992Y-16036079D01*
X17943992Y-16036079D02*
X17934468Y-16017031D01*
X17934468Y-16017031D02*
X17924944Y-15988460D01*
X17924944Y-15988460D02*
X17915420Y-15940841D01*
X17915420Y-15940841D02*
X17915420Y-15902746D01*
X17915420Y-15902746D02*
X17924944Y-15855127D01*
X17924944Y-15855127D02*
X17934468Y-15826555D01*
X17934468Y-15826555D02*
X17943992Y-15807508D01*
X17943992Y-15807508D02*
X17963039Y-15778936D01*
X17963039Y-15778936D02*
X17972563Y-15769412D01*
X18048753Y-15864650D02*
X18048753Y-15997984D01*
X18048753Y-15883698D02*
X18058277Y-15874174D01*
X18058277Y-15874174D02*
X18077325Y-15864650D01*
X18077325Y-15864650D02*
X18105896Y-15864650D01*
X18105896Y-15864650D02*
X18124944Y-15874174D01*
X18124944Y-15874174D02*
X18134468Y-15893222D01*
X18134468Y-15893222D02*
X18134468Y-15997984D01*
X18258277Y-15997984D02*
X18239230Y-15988460D01*
X18239230Y-15988460D02*
X18229706Y-15978936D01*
X18229706Y-15978936D02*
X18220182Y-15959888D01*
X18220182Y-15959888D02*
X18220182Y-15902746D01*
X18220182Y-15902746D02*
X18229706Y-15883698D01*
X18229706Y-15883698D02*
X18239230Y-15874174D01*
X18239230Y-15874174D02*
X18258277Y-15864650D01*
X18258277Y-15864650D02*
X18286849Y-15864650D01*
X18286849Y-15864650D02*
X18305896Y-15874174D01*
X18305896Y-15874174D02*
X18315420Y-15883698D01*
X18315420Y-15883698D02*
X18324944Y-15902746D01*
X18324944Y-15902746D02*
X18324944Y-15959888D01*
X18324944Y-15959888D02*
X18315420Y-15978936D01*
X18315420Y-15978936D02*
X18305896Y-15988460D01*
X18305896Y-15988460D02*
X18286849Y-15997984D01*
X18286849Y-15997984D02*
X18258277Y-15997984D01*
X18382087Y-15864650D02*
X18458277Y-15864650D01*
X18410658Y-15797984D02*
X18410658Y-15969412D01*
X18410658Y-15969412D02*
X18420182Y-15988460D01*
X18420182Y-15988460D02*
X18439230Y-15997984D01*
X18439230Y-15997984D02*
X18458277Y-15997984D01*
X18677325Y-15864650D02*
X18677325Y-16064650D01*
X18677325Y-15874174D02*
X18696373Y-15864650D01*
X18696373Y-15864650D02*
X18734468Y-15864650D01*
X18734468Y-15864650D02*
X18753515Y-15874174D01*
X18753515Y-15874174D02*
X18763039Y-15883698D01*
X18763039Y-15883698D02*
X18772563Y-15902746D01*
X18772563Y-15902746D02*
X18772563Y-15959888D01*
X18772563Y-15959888D02*
X18763039Y-15978936D01*
X18763039Y-15978936D02*
X18753515Y-15988460D01*
X18753515Y-15988460D02*
X18734468Y-15997984D01*
X18734468Y-15997984D02*
X18696373Y-15997984D01*
X18696373Y-15997984D02*
X18677325Y-15988460D01*
X18886849Y-15997984D02*
X18867801Y-15988460D01*
X18867801Y-15988460D02*
X18858277Y-15969412D01*
X18858277Y-15969412D02*
X18858277Y-15797984D01*
X19048754Y-15997984D02*
X19048754Y-15893222D01*
X19048754Y-15893222D02*
X19039230Y-15874174D01*
X19039230Y-15874174D02*
X19020182Y-15864650D01*
X19020182Y-15864650D02*
X18982087Y-15864650D01*
X18982087Y-15864650D02*
X18963039Y-15874174D01*
X19048754Y-15988460D02*
X19029706Y-15997984D01*
X19029706Y-15997984D02*
X18982087Y-15997984D01*
X18982087Y-15997984D02*
X18963039Y-15988460D01*
X18963039Y-15988460D02*
X18953515Y-15969412D01*
X18953515Y-15969412D02*
X18953515Y-15950365D01*
X18953515Y-15950365D02*
X18963039Y-15931317D01*
X18963039Y-15931317D02*
X18982087Y-15921793D01*
X18982087Y-15921793D02*
X19029706Y-15921793D01*
X19029706Y-15921793D02*
X19048754Y-15912269D01*
X19115420Y-15864650D02*
X19191611Y-15864650D01*
X19143992Y-15797984D02*
X19143992Y-15969412D01*
X19143992Y-15969412D02*
X19153515Y-15988460D01*
X19153515Y-15988460D02*
X19172563Y-15997984D01*
X19172563Y-15997984D02*
X19191611Y-15997984D01*
X19334468Y-15988460D02*
X19315420Y-15997984D01*
X19315420Y-15997984D02*
X19277325Y-15997984D01*
X19277325Y-15997984D02*
X19258277Y-15988460D01*
X19258277Y-15988460D02*
X19248754Y-15969412D01*
X19248754Y-15969412D02*
X19248754Y-15893222D01*
X19248754Y-15893222D02*
X19258277Y-15874174D01*
X19258277Y-15874174D02*
X19277325Y-15864650D01*
X19277325Y-15864650D02*
X19315420Y-15864650D01*
X19315420Y-15864650D02*
X19334468Y-15874174D01*
X19334468Y-15874174D02*
X19343992Y-15893222D01*
X19343992Y-15893222D02*
X19343992Y-15912269D01*
X19343992Y-15912269D02*
X19248754Y-15931317D01*
X19515420Y-15997984D02*
X19515420Y-15797984D01*
X19515420Y-15988460D02*
X19496373Y-15997984D01*
X19496373Y-15997984D02*
X19458277Y-15997984D01*
X19458277Y-15997984D02*
X19439230Y-15988460D01*
X19439230Y-15988460D02*
X19429706Y-15978936D01*
X19429706Y-15978936D02*
X19420182Y-15959888D01*
X19420182Y-15959888D02*
X19420182Y-15902746D01*
X19420182Y-15902746D02*
X19429706Y-15883698D01*
X19429706Y-15883698D02*
X19439230Y-15874174D01*
X19439230Y-15874174D02*
X19458277Y-15864650D01*
X19458277Y-15864650D02*
X19496373Y-15864650D01*
X19496373Y-15864650D02*
X19515420Y-15874174D01*
X19591611Y-16074174D02*
X19601135Y-16064650D01*
X19601135Y-16064650D02*
X19620182Y-16036079D01*
X19620182Y-16036079D02*
X19629706Y-16017031D01*
X19629706Y-16017031D02*
X19639230Y-15988460D01*
X19639230Y-15988460D02*
X19648754Y-15940841D01*
X19648754Y-15940841D02*
X19648754Y-15902746D01*
X19648754Y-15902746D02*
X19639230Y-15855127D01*
X19639230Y-15855127D02*
X19629706Y-15826555D01*
X19629706Y-15826555D02*
X19620182Y-15807508D01*
X19620182Y-15807508D02*
X19601135Y-15778936D01*
X19601135Y-15778936D02*
X19591611Y-15769412D01*
X12897500Y-16126500D02*
X12897500Y-16326500D01*
X12797500Y-16226500D02*
X12997500Y-16226500D01*
X13239229Y-16117984D02*
X13363039Y-16117984D01*
X13363039Y-16117984D02*
X13296372Y-16194174D01*
X13296372Y-16194174D02*
X13324943Y-16194174D01*
X13324943Y-16194174D02*
X13343991Y-16203698D01*
X13343991Y-16203698D02*
X13353515Y-16213222D01*
X13353515Y-16213222D02*
X13363039Y-16232269D01*
X13363039Y-16232269D02*
X13363039Y-16279888D01*
X13363039Y-16279888D02*
X13353515Y-16298936D01*
X13353515Y-16298936D02*
X13343991Y-16308460D01*
X13343991Y-16308460D02*
X13324943Y-16317984D01*
X13324943Y-16317984D02*
X13267801Y-16317984D01*
X13267801Y-16317984D02*
X13248753Y-16308460D01*
X13248753Y-16308460D02*
X13239229Y-16298936D01*
X13448753Y-16298936D02*
X13458277Y-16308460D01*
X13458277Y-16308460D02*
X13448753Y-16317984D01*
X13448753Y-16317984D02*
X13439229Y-16308460D01*
X13439229Y-16308460D02*
X13448753Y-16298936D01*
X13448753Y-16298936D02*
X13448753Y-16317984D01*
X13629705Y-16184650D02*
X13629705Y-16317984D01*
X13582086Y-16108460D02*
X13534467Y-16251317D01*
X13534467Y-16251317D02*
X13658277Y-16251317D01*
X13829705Y-16117984D02*
X13734467Y-16117984D01*
X13734467Y-16117984D02*
X13724943Y-16213222D01*
X13724943Y-16213222D02*
X13734467Y-16203698D01*
X13734467Y-16203698D02*
X13753515Y-16194174D01*
X13753515Y-16194174D02*
X13801134Y-16194174D01*
X13801134Y-16194174D02*
X13820182Y-16203698D01*
X13820182Y-16203698D02*
X13829705Y-16213222D01*
X13829705Y-16213222D02*
X13839229Y-16232269D01*
X13839229Y-16232269D02*
X13839229Y-16279888D01*
X13839229Y-16279888D02*
X13829705Y-16298936D01*
X13829705Y-16298936D02*
X13820182Y-16308460D01*
X13820182Y-16308460D02*
X13801134Y-16317984D01*
X13801134Y-16317984D02*
X13753515Y-16317984D01*
X13753515Y-16317984D02*
X13734467Y-16308460D01*
X13734467Y-16308460D02*
X13724943Y-16298936D01*
X13963039Y-16117984D02*
X13982086Y-16117984D01*
X13982086Y-16117984D02*
X14001134Y-16127508D01*
X14001134Y-16127508D02*
X14010658Y-16137031D01*
X14010658Y-16137031D02*
X14020182Y-16156079D01*
X14020182Y-16156079D02*
X14029705Y-16194174D01*
X14029705Y-16194174D02*
X14029705Y-16241793D01*
X14029705Y-16241793D02*
X14020182Y-16279888D01*
X14020182Y-16279888D02*
X14010658Y-16298936D01*
X14010658Y-16298936D02*
X14001134Y-16308460D01*
X14001134Y-16308460D02*
X13982086Y-16317984D01*
X13982086Y-16317984D02*
X13963039Y-16317984D01*
X13963039Y-16317984D02*
X13943991Y-16308460D01*
X13943991Y-16308460D02*
X13934467Y-16298936D01*
X13934467Y-16298936D02*
X13924943Y-16279888D01*
X13924943Y-16279888D02*
X13915420Y-16241793D01*
X13915420Y-16241793D02*
X13915420Y-16194174D01*
X13915420Y-16194174D02*
X13924943Y-16156079D01*
X13924943Y-16156079D02*
X13934467Y-16137031D01*
X13934467Y-16137031D02*
X13943991Y-16127508D01*
X13943991Y-16127508D02*
X13963039Y-16117984D01*
X14115420Y-16317984D02*
X14115420Y-16184650D01*
X14115420Y-16203698D02*
X14124943Y-16194174D01*
X14124943Y-16194174D02*
X14143991Y-16184650D01*
X14143991Y-16184650D02*
X14172563Y-16184650D01*
X14172563Y-16184650D02*
X14191610Y-16194174D01*
X14191610Y-16194174D02*
X14201134Y-16213222D01*
X14201134Y-16213222D02*
X14201134Y-16317984D01*
X14201134Y-16213222D02*
X14210658Y-16194174D01*
X14210658Y-16194174D02*
X14229705Y-16184650D01*
X14229705Y-16184650D02*
X14258277Y-16184650D01*
X14258277Y-16184650D02*
X14277324Y-16194174D01*
X14277324Y-16194174D02*
X14286848Y-16213222D01*
X14286848Y-16213222D02*
X14286848Y-16317984D01*
X14382086Y-16317984D02*
X14382086Y-16184650D01*
X14382086Y-16203698D02*
X14391610Y-16194174D01*
X14391610Y-16194174D02*
X14410658Y-16184650D01*
X14410658Y-16184650D02*
X14439229Y-16184650D01*
X14439229Y-16184650D02*
X14458277Y-16194174D01*
X14458277Y-16194174D02*
X14467801Y-16213222D01*
X14467801Y-16213222D02*
X14467801Y-16317984D01*
X14467801Y-16213222D02*
X14477324Y-16194174D01*
X14477324Y-16194174D02*
X14496372Y-16184650D01*
X14496372Y-16184650D02*
X14524943Y-16184650D01*
X14524943Y-16184650D02*
X14543991Y-16194174D01*
X14543991Y-16194174D02*
X14553515Y-16213222D01*
X14553515Y-16213222D02*
X14553515Y-16317984D01*
X14943991Y-16108460D02*
X14772563Y-16365603D01*
X15201134Y-16117984D02*
X15220182Y-16117984D01*
X15220182Y-16117984D02*
X15239229Y-16127508D01*
X15239229Y-16127508D02*
X15248753Y-16137031D01*
X15248753Y-16137031D02*
X15258277Y-16156079D01*
X15258277Y-16156079D02*
X15267801Y-16194174D01*
X15267801Y-16194174D02*
X15267801Y-16241793D01*
X15267801Y-16241793D02*
X15258277Y-16279888D01*
X15258277Y-16279888D02*
X15248753Y-16298936D01*
X15248753Y-16298936D02*
X15239229Y-16308460D01*
X15239229Y-16308460D02*
X15220182Y-16317984D01*
X15220182Y-16317984D02*
X15201134Y-16317984D01*
X15201134Y-16317984D02*
X15182086Y-16308460D01*
X15182086Y-16308460D02*
X15172563Y-16298936D01*
X15172563Y-16298936D02*
X15163039Y-16279888D01*
X15163039Y-16279888D02*
X15153515Y-16241793D01*
X15153515Y-16241793D02*
X15153515Y-16194174D01*
X15153515Y-16194174D02*
X15163039Y-16156079D01*
X15163039Y-16156079D02*
X15172563Y-16137031D01*
X15172563Y-16137031D02*
X15182086Y-16127508D01*
X15182086Y-16127508D02*
X15201134Y-16117984D01*
X15353515Y-16298936D02*
X15363039Y-16308460D01*
X15363039Y-16308460D02*
X15353515Y-16317984D01*
X15353515Y-16317984D02*
X15343991Y-16308460D01*
X15343991Y-16308460D02*
X15353515Y-16298936D01*
X15353515Y-16298936D02*
X15353515Y-16317984D01*
X15553515Y-16317984D02*
X15439229Y-16317984D01*
X15496372Y-16317984D02*
X15496372Y-16117984D01*
X15496372Y-16117984D02*
X15477325Y-16146555D01*
X15477325Y-16146555D02*
X15458277Y-16165603D01*
X15458277Y-16165603D02*
X15439229Y-16175127D01*
X15620182Y-16117984D02*
X15743991Y-16117984D01*
X15743991Y-16117984D02*
X15677325Y-16194174D01*
X15677325Y-16194174D02*
X15705896Y-16194174D01*
X15705896Y-16194174D02*
X15724944Y-16203698D01*
X15724944Y-16203698D02*
X15734467Y-16213222D01*
X15734467Y-16213222D02*
X15743991Y-16232269D01*
X15743991Y-16232269D02*
X15743991Y-16279888D01*
X15743991Y-16279888D02*
X15734467Y-16298936D01*
X15734467Y-16298936D02*
X15724944Y-16308460D01*
X15724944Y-16308460D02*
X15705896Y-16317984D01*
X15705896Y-16317984D02*
X15648753Y-16317984D01*
X15648753Y-16317984D02*
X15629706Y-16308460D01*
X15629706Y-16308460D02*
X15620182Y-16298936D01*
X15924944Y-16117984D02*
X15829706Y-16117984D01*
X15829706Y-16117984D02*
X15820182Y-16213222D01*
X15820182Y-16213222D02*
X15829706Y-16203698D01*
X15829706Y-16203698D02*
X15848753Y-16194174D01*
X15848753Y-16194174D02*
X15896372Y-16194174D01*
X15896372Y-16194174D02*
X15915420Y-16203698D01*
X15915420Y-16203698D02*
X15924944Y-16213222D01*
X15924944Y-16213222D02*
X15934467Y-16232269D01*
X15934467Y-16232269D02*
X15934467Y-16279888D01*
X15934467Y-16279888D02*
X15924944Y-16298936D01*
X15924944Y-16298936D02*
X15915420Y-16308460D01*
X15915420Y-16308460D02*
X15896372Y-16317984D01*
X15896372Y-16317984D02*
X15848753Y-16317984D01*
X15848753Y-16317984D02*
X15829706Y-16308460D01*
X15829706Y-16308460D02*
X15820182Y-16298936D01*
X16048753Y-16203698D02*
X16029706Y-16194174D01*
X16029706Y-16194174D02*
X16020182Y-16184650D01*
X16020182Y-16184650D02*
X16010658Y-16165603D01*
X16010658Y-16165603D02*
X16010658Y-16156079D01*
X16010658Y-16156079D02*
X16020182Y-16137031D01*
X16020182Y-16137031D02*
X16029706Y-16127508D01*
X16029706Y-16127508D02*
X16048753Y-16117984D01*
X16048753Y-16117984D02*
X16086848Y-16117984D01*
X16086848Y-16117984D02*
X16105896Y-16127508D01*
X16105896Y-16127508D02*
X16115420Y-16137031D01*
X16115420Y-16137031D02*
X16124944Y-16156079D01*
X16124944Y-16156079D02*
X16124944Y-16165603D01*
X16124944Y-16165603D02*
X16115420Y-16184650D01*
X16115420Y-16184650D02*
X16105896Y-16194174D01*
X16105896Y-16194174D02*
X16086848Y-16203698D01*
X16086848Y-16203698D02*
X16048753Y-16203698D01*
X16048753Y-16203698D02*
X16029706Y-16213222D01*
X16029706Y-16213222D02*
X16020182Y-16222746D01*
X16020182Y-16222746D02*
X16010658Y-16241793D01*
X16010658Y-16241793D02*
X16010658Y-16279888D01*
X16010658Y-16279888D02*
X16020182Y-16298936D01*
X16020182Y-16298936D02*
X16029706Y-16308460D01*
X16029706Y-16308460D02*
X16048753Y-16317984D01*
X16048753Y-16317984D02*
X16086848Y-16317984D01*
X16086848Y-16317984D02*
X16105896Y-16308460D01*
X16105896Y-16308460D02*
X16115420Y-16298936D01*
X16115420Y-16298936D02*
X16124944Y-16279888D01*
X16124944Y-16279888D02*
X16124944Y-16241793D01*
X16124944Y-16241793D02*
X16115420Y-16222746D01*
X16115420Y-16222746D02*
X16105896Y-16213222D01*
X16105896Y-16213222D02*
X16086848Y-16203698D01*
X16201134Y-16117984D02*
X16201134Y-16156079D01*
X16277325Y-16117984D02*
X16277325Y-16156079D01*
X16572563Y-16394174D02*
X16563039Y-16384650D01*
X16563039Y-16384650D02*
X16543991Y-16356079D01*
X16543991Y-16356079D02*
X16534468Y-16337031D01*
X16534468Y-16337031D02*
X16524944Y-16308460D01*
X16524944Y-16308460D02*
X16515420Y-16260841D01*
X16515420Y-16260841D02*
X16515420Y-16222746D01*
X16515420Y-16222746D02*
X16524944Y-16175127D01*
X16524944Y-16175127D02*
X16534468Y-16146555D01*
X16534468Y-16146555D02*
X16543991Y-16127508D01*
X16543991Y-16127508D02*
X16563039Y-16098936D01*
X16563039Y-16098936D02*
X16572563Y-16089412D01*
X16639229Y-16137031D02*
X16648753Y-16127508D01*
X16648753Y-16127508D02*
X16667801Y-16117984D01*
X16667801Y-16117984D02*
X16715420Y-16117984D01*
X16715420Y-16117984D02*
X16734468Y-16127508D01*
X16734468Y-16127508D02*
X16743991Y-16137031D01*
X16743991Y-16137031D02*
X16753515Y-16156079D01*
X16753515Y-16156079D02*
X16753515Y-16175127D01*
X16753515Y-16175127D02*
X16743991Y-16203698D01*
X16743991Y-16203698D02*
X16629706Y-16317984D01*
X16629706Y-16317984D02*
X16753515Y-16317984D01*
X16991611Y-16317984D02*
X16991611Y-16117984D01*
X17077325Y-16317984D02*
X17077325Y-16213222D01*
X17077325Y-16213222D02*
X17067801Y-16194174D01*
X17067801Y-16194174D02*
X17048753Y-16184650D01*
X17048753Y-16184650D02*
X17020182Y-16184650D01*
X17020182Y-16184650D02*
X17001134Y-16194174D01*
X17001134Y-16194174D02*
X16991611Y-16203698D01*
X17201134Y-16317984D02*
X17182087Y-16308460D01*
X17182087Y-16308460D02*
X17172563Y-16298936D01*
X17172563Y-16298936D02*
X17163039Y-16279888D01*
X17163039Y-16279888D02*
X17163039Y-16222746D01*
X17163039Y-16222746D02*
X17172563Y-16203698D01*
X17172563Y-16203698D02*
X17182087Y-16194174D01*
X17182087Y-16194174D02*
X17201134Y-16184650D01*
X17201134Y-16184650D02*
X17229706Y-16184650D01*
X17229706Y-16184650D02*
X17248753Y-16194174D01*
X17248753Y-16194174D02*
X17258277Y-16203698D01*
X17258277Y-16203698D02*
X17267801Y-16222746D01*
X17267801Y-16222746D02*
X17267801Y-16279888D01*
X17267801Y-16279888D02*
X17258277Y-16298936D01*
X17258277Y-16298936D02*
X17248753Y-16308460D01*
X17248753Y-16308460D02*
X17229706Y-16317984D01*
X17229706Y-16317984D02*
X17201134Y-16317984D01*
X17382087Y-16317984D02*
X17363039Y-16308460D01*
X17363039Y-16308460D02*
X17353515Y-16289412D01*
X17353515Y-16289412D02*
X17353515Y-16117984D01*
X17534468Y-16308460D02*
X17515420Y-16317984D01*
X17515420Y-16317984D02*
X17477325Y-16317984D01*
X17477325Y-16317984D02*
X17458277Y-16308460D01*
X17458277Y-16308460D02*
X17448753Y-16289412D01*
X17448753Y-16289412D02*
X17448753Y-16213222D01*
X17448753Y-16213222D02*
X17458277Y-16194174D01*
X17458277Y-16194174D02*
X17477325Y-16184650D01*
X17477325Y-16184650D02*
X17515420Y-16184650D01*
X17515420Y-16184650D02*
X17534468Y-16194174D01*
X17534468Y-16194174D02*
X17543992Y-16213222D01*
X17543992Y-16213222D02*
X17543992Y-16232269D01*
X17543992Y-16232269D02*
X17448753Y-16251317D01*
X17620182Y-16308460D02*
X17639230Y-16317984D01*
X17639230Y-16317984D02*
X17677325Y-16317984D01*
X17677325Y-16317984D02*
X17696373Y-16308460D01*
X17696373Y-16308460D02*
X17705896Y-16289412D01*
X17705896Y-16289412D02*
X17705896Y-16279888D01*
X17705896Y-16279888D02*
X17696373Y-16260841D01*
X17696373Y-16260841D02*
X17677325Y-16251317D01*
X17677325Y-16251317D02*
X17648753Y-16251317D01*
X17648753Y-16251317D02*
X17629706Y-16241793D01*
X17629706Y-16241793D02*
X17620182Y-16222746D01*
X17620182Y-16222746D02*
X17620182Y-16213222D01*
X17620182Y-16213222D02*
X17629706Y-16194174D01*
X17629706Y-16194174D02*
X17648753Y-16184650D01*
X17648753Y-16184650D02*
X17677325Y-16184650D01*
X17677325Y-16184650D02*
X17696373Y-16194174D01*
X17772563Y-16394174D02*
X17782087Y-16384650D01*
X17782087Y-16384650D02*
X17801134Y-16356079D01*
X17801134Y-16356079D02*
X17810658Y-16337031D01*
X17810658Y-16337031D02*
X17820182Y-16308460D01*
X17820182Y-16308460D02*
X17829706Y-16260841D01*
X17829706Y-16260841D02*
X17829706Y-16222746D01*
X17829706Y-16222746D02*
X17820182Y-16175127D01*
X17820182Y-16175127D02*
X17810658Y-16146555D01*
X17810658Y-16146555D02*
X17801134Y-16127508D01*
X17801134Y-16127508D02*
X17782087Y-16098936D01*
X17782087Y-16098936D02*
X17772563Y-16089412D01*
X18134468Y-16394174D02*
X18124944Y-16384650D01*
X18124944Y-16384650D02*
X18105896Y-16356079D01*
X18105896Y-16356079D02*
X18096373Y-16337031D01*
X18096373Y-16337031D02*
X18086849Y-16308460D01*
X18086849Y-16308460D02*
X18077325Y-16260841D01*
X18077325Y-16260841D02*
X18077325Y-16222746D01*
X18077325Y-16222746D02*
X18086849Y-16175127D01*
X18086849Y-16175127D02*
X18096373Y-16146555D01*
X18096373Y-16146555D02*
X18105896Y-16127508D01*
X18105896Y-16127508D02*
X18124944Y-16098936D01*
X18124944Y-16098936D02*
X18134468Y-16089412D01*
X18210658Y-16184650D02*
X18210658Y-16317984D01*
X18210658Y-16203698D02*
X18220182Y-16194174D01*
X18220182Y-16194174D02*
X18239230Y-16184650D01*
X18239230Y-16184650D02*
X18267801Y-16184650D01*
X18267801Y-16184650D02*
X18286849Y-16194174D01*
X18286849Y-16194174D02*
X18296373Y-16213222D01*
X18296373Y-16213222D02*
X18296373Y-16317984D01*
X18420182Y-16317984D02*
X18401134Y-16308460D01*
X18401134Y-16308460D02*
X18391611Y-16298936D01*
X18391611Y-16298936D02*
X18382087Y-16279888D01*
X18382087Y-16279888D02*
X18382087Y-16222746D01*
X18382087Y-16222746D02*
X18391611Y-16203698D01*
X18391611Y-16203698D02*
X18401134Y-16194174D01*
X18401134Y-16194174D02*
X18420182Y-16184650D01*
X18420182Y-16184650D02*
X18448754Y-16184650D01*
X18448754Y-16184650D02*
X18467801Y-16194174D01*
X18467801Y-16194174D02*
X18477325Y-16203698D01*
X18477325Y-16203698D02*
X18486849Y-16222746D01*
X18486849Y-16222746D02*
X18486849Y-16279888D01*
X18486849Y-16279888D02*
X18477325Y-16298936D01*
X18477325Y-16298936D02*
X18467801Y-16308460D01*
X18467801Y-16308460D02*
X18448754Y-16317984D01*
X18448754Y-16317984D02*
X18420182Y-16317984D01*
X18543992Y-16184650D02*
X18620182Y-16184650D01*
X18572563Y-16117984D02*
X18572563Y-16289412D01*
X18572563Y-16289412D02*
X18582087Y-16308460D01*
X18582087Y-16308460D02*
X18601134Y-16317984D01*
X18601134Y-16317984D02*
X18620182Y-16317984D01*
X18839230Y-16184650D02*
X18839230Y-16384650D01*
X18839230Y-16194174D02*
X18858277Y-16184650D01*
X18858277Y-16184650D02*
X18896373Y-16184650D01*
X18896373Y-16184650D02*
X18915420Y-16194174D01*
X18915420Y-16194174D02*
X18924944Y-16203698D01*
X18924944Y-16203698D02*
X18934468Y-16222746D01*
X18934468Y-16222746D02*
X18934468Y-16279888D01*
X18934468Y-16279888D02*
X18924944Y-16298936D01*
X18924944Y-16298936D02*
X18915420Y-16308460D01*
X18915420Y-16308460D02*
X18896373Y-16317984D01*
X18896373Y-16317984D02*
X18858277Y-16317984D01*
X18858277Y-16317984D02*
X18839230Y-16308460D01*
X19048754Y-16317984D02*
X19029706Y-16308460D01*
X19029706Y-16308460D02*
X19020182Y-16289412D01*
X19020182Y-16289412D02*
X19020182Y-16117984D01*
X19210658Y-16317984D02*
X19210658Y-16213222D01*
X19210658Y-16213222D02*
X19201135Y-16194174D01*
X19201135Y-16194174D02*
X19182087Y-16184650D01*
X19182087Y-16184650D02*
X19143992Y-16184650D01*
X19143992Y-16184650D02*
X19124944Y-16194174D01*
X19210658Y-16308460D02*
X19191611Y-16317984D01*
X19191611Y-16317984D02*
X19143992Y-16317984D01*
X19143992Y-16317984D02*
X19124944Y-16308460D01*
X19124944Y-16308460D02*
X19115420Y-16289412D01*
X19115420Y-16289412D02*
X19115420Y-16270365D01*
X19115420Y-16270365D02*
X19124944Y-16251317D01*
X19124944Y-16251317D02*
X19143992Y-16241793D01*
X19143992Y-16241793D02*
X19191611Y-16241793D01*
X19191611Y-16241793D02*
X19210658Y-16232269D01*
X19277325Y-16184650D02*
X19353515Y-16184650D01*
X19305896Y-16117984D02*
X19305896Y-16289412D01*
X19305896Y-16289412D02*
X19315420Y-16308460D01*
X19315420Y-16308460D02*
X19334468Y-16317984D01*
X19334468Y-16317984D02*
X19353515Y-16317984D01*
X19496373Y-16308460D02*
X19477325Y-16317984D01*
X19477325Y-16317984D02*
X19439230Y-16317984D01*
X19439230Y-16317984D02*
X19420182Y-16308460D01*
X19420182Y-16308460D02*
X19410658Y-16289412D01*
X19410658Y-16289412D02*
X19410658Y-16213222D01*
X19410658Y-16213222D02*
X19420182Y-16194174D01*
X19420182Y-16194174D02*
X19439230Y-16184650D01*
X19439230Y-16184650D02*
X19477325Y-16184650D01*
X19477325Y-16184650D02*
X19496373Y-16194174D01*
X19496373Y-16194174D02*
X19505896Y-16213222D01*
X19505896Y-16213222D02*
X19505896Y-16232269D01*
X19505896Y-16232269D02*
X19410658Y-16251317D01*
X19677325Y-16317984D02*
X19677325Y-16117984D01*
X19677325Y-16308460D02*
X19658277Y-16317984D01*
X19658277Y-16317984D02*
X19620182Y-16317984D01*
X19620182Y-16317984D02*
X19601135Y-16308460D01*
X19601135Y-16308460D02*
X19591611Y-16298936D01*
X19591611Y-16298936D02*
X19582087Y-16279888D01*
X19582087Y-16279888D02*
X19582087Y-16222746D01*
X19582087Y-16222746D02*
X19591611Y-16203698D01*
X19591611Y-16203698D02*
X19601135Y-16194174D01*
X19601135Y-16194174D02*
X19620182Y-16184650D01*
X19620182Y-16184650D02*
X19658277Y-16184650D01*
X19658277Y-16184650D02*
X19677325Y-16194174D01*
X19753516Y-16394174D02*
X19763039Y-16384650D01*
X19763039Y-16384650D02*
X19782087Y-16356079D01*
X19782087Y-16356079D02*
X19791611Y-16337031D01*
X19791611Y-16337031D02*
X19801135Y-16308460D01*
X19801135Y-16308460D02*
X19810658Y-16260841D01*
X19810658Y-16260841D02*
X19810658Y-16222746D01*
X19810658Y-16222746D02*
X19801135Y-16175127D01*
X19801135Y-16175127D02*
X19791611Y-16146555D01*
X19791611Y-16146555D02*
X19782087Y-16127508D01*
X19782087Y-16127508D02*
X19763039Y-16098936D01*
X19763039Y-16098936D02*
X19753516Y-16089412D01*
M02*
