M48
; DRILL file {KiCad 8.0.4} date 2025-03-13T03:49:57-0500
; FORMAT={-:-/ absolute / metric / decimal}
; #@! TF.CreationDate,2025-03-13T03:49:57-05:00
; #@! TF.GenerationSoftware,Kicad,Pcbnew,8.0.4
; #@! TF.FileFunction,Plated,1,4,PTH
FMAT,2
METRIC
; #@! TA.AperFunction,Plated,PTH,ViaDrill
T1C0.300
; #@! TA.AperFunction,Plated,PTH,ComponentDrill
T2C0.600
; #@! TA.AperFunction,Plated,PTH,ComponentDrill
T3C0.700
; #@! TA.AperFunction,Plated,PTH,ComponentDrill
T4C0.750
; #@! TA.AperFunction,Plated,PTH,ComponentDrill
T5C0.900
; #@! TA.AperFunction,Plated,PTH,ComponentDrill
T6C1.000
; #@! TA.AperFunction,Plated,PTH,ComponentDrill
T7C1.100
; #@! TA.AperFunction,Plated,PTH,ComponentDrill
T8C2.300
; #@! TA.AperFunction,Plated,PTH,ComponentDrill
T9C2.700
%
G90
G05
T1
X131.0Y-51.0
X131.0Y-58.0
X131.0Y-64.0
X131.0Y-69.0
X131.0Y-76.0
X131.0Y-82.0
X131.0Y-88.0
X131.0Y-95.0
X131.0Y-100.0
X131.0Y-107.0
X131.0Y-113.0
X131.0Y-118.0
X131.0Y-124.0
X131.0Y-132.0
X131.0Y-138.0
X131.0Y-144.0
X131.0Y-149.0
X131.05Y-91.4
X133.2Y-87.8
X133.2Y-88.95
X133.22Y-95.7
X133.3Y-92.6
X133.3Y-94.1
X133.3Y-110.7
X133.4Y-79.8
X133.4Y-81.6
X133.4Y-105.5
X133.42Y-86.8
X133.5Y-143.8
X133.7Y-82.8
X135.0Y-87.7
X135.31Y-91.305
X135.6Y-75.8
X135.7Y-83.1
X135.7Y-122.0
X135.75Y-76.85
X135.75Y-78.1
X136.0Y-58.2
X136.1Y-143.85
X136.2Y-108.0
X136.25Y-138.5
X136.6Y-95.725
X136.9Y-78.65
X136.95Y-92.8
X137.0Y-83.0
X137.0Y-94.1
X137.0Y-149.0
X137.1Y-76.6
X137.3Y-86.1
X138.25Y-73.7
X138.4Y-143.7
X138.55Y-133.55
X138.6Y-83.7
X138.6Y-91.0
X138.7Y-80.6
X138.8Y-94.5
X138.8Y-122.2
X138.8Y-126.2
X138.833Y-92.675
X139.25Y-82.75
X139.25Y-85.65
X139.3Y-105.5
X139.4Y-137.7
X139.5Y-110.6
X139.9Y-83.8
X139.95Y-145.95
X140.0Y-51.0
X140.4Y-74.9
X140.575Y-92.4
X140.8Y-94.7
X141.081Y-93.581
X141.7Y-82.0
X142.0Y-149.0
X142.1Y-129.1
X142.181Y-95.0
X142.2Y-88.4
X142.4Y-141.45
X142.6Y-133.05
X142.65Y-127.0
X143.0Y-74.6
X143.3Y-76.8
X144.7Y-77.6
X145.25Y-126.2
X145.4Y-79.5
X145.475Y-80.45
X146.4Y-73.55
X146.4Y-130.7
X146.6Y-69.5
X146.7Y-76.9
X146.85Y-88.194
X146.9Y-85.95
X146.9Y-127.6
X147.0Y-51.0
X147.0Y-124.85
X147.1Y-81.8
X147.183Y-77.909
X147.3Y-112.4
X147.45Y-56.45
X147.6Y-121.2
X147.8Y-75.1
X148.0Y-149.0
X148.1Y-111.2
X148.3Y-145.25
X148.6Y-130.1
X148.7Y-64.4
X148.9Y-90.0
X149.2Y-83.25
X149.6Y-127.0
X149.65Y-138.85
X149.75Y-125.65
X150.4Y-64.4
X150.7Y-124.1
X150.9Y-77.9
X151.0Y-126.4
X151.2Y-69.5
X151.2Y-81.3
X151.4Y-91.95
X151.5Y-76.5
X151.681Y-93.1
X151.8Y-90.05
X151.8Y-127.55
X152.05Y-64.45
X152.2Y-126.0
X152.4Y-56.2
X152.681Y-91.8
X152.8Y-120.5
X153.0Y-64.6
X153.0Y-124.55
X153.0Y-144.65
X153.1Y-119.15
X153.4Y-125.9
X153.525Y-127.535
X154.0Y-64.6
X154.0Y-74.2
X154.0Y-75.9
X154.0Y-138.5
X154.0Y-149.0
X154.1Y-143.65
X154.4Y-86.55
X154.5Y-81.65
X155.0Y-77.6
X155.126Y-68.174
X155.147Y-93.459
X155.85Y-75.4
X155.917Y-91.884
X156.1Y-122.15
X156.25Y-56.85
X156.25Y-138.7
X156.4Y-143.65
X156.7Y-89.4
X156.8Y-67.4
X157.75Y-145.2
X158.0Y-51.0
X158.0Y-61.975
X158.0Y-124.8
X158.05Y-118.45
X158.1Y-127.3
X158.121Y-91.889
X158.171Y-92.956
X158.3Y-78.0
X158.5Y-78.9
X158.647Y-87.884
X159.0Y-73.3
X159.2Y-138.85
X159.3Y-79.6
X159.325Y-128.935
X159.35Y-127.6
X159.45Y-78.0
X159.5Y-66.1
X159.8Y-86.1
X159.8Y-90.3
X159.8Y-120.3
X160.0Y-149.0
X160.2Y-117.7
X160.6Y-112.4
X161.2Y-111.3
X161.6Y-97.1
X161.7Y-88.25
X162.042Y-85.858
X162.3Y-91.2
X162.45Y-130.3
X162.501Y-76.599
X163.0Y-51.0
X163.0Y-73.65
X163.5Y-123.75
X163.55Y-112.35
X164.45Y-130.1
X164.6Y-111.4
X164.95Y-126.8
X164.984Y-75.275
X165.0Y-81.9
X165.0Y-91.2
X165.4Y-79.1
X165.4Y-82.9
X165.6Y-85.85
X166.0Y-149.0
X166.25Y-76.8
X166.5Y-87.2
X166.6Y-142.0
X167.05Y-73.7
X168.1Y-91.0
X168.3Y-94.55
X168.4Y-89.2
X168.55Y-69.65
X169.0Y-51.0
X169.0Y-56.0
X169.0Y-60.0
X169.0Y-65.0
X169.35Y-122.1
X170.0Y-98.2
X170.0Y-105.9
X170.35Y-131.4
X170.925Y-92.5
X170.95Y-137.6
X171.4Y-122.2
X171.463Y-124.5
X171.6Y-82.3
X171.8Y-83.7
X172.0Y-149.0
X172.1Y-143.6
X172.5Y-103.7
X173.25Y-92.35
X174.15Y-98.35
X174.2Y-88.2
X174.2Y-96.5
X174.35Y-143.5
X174.9Y-134.1
X175.1Y-123.0
X175.2Y-127.575
X175.75Y-95.0
X176.0Y-71.0
X176.0Y-119.85
X176.2Y-88.0
X176.4Y-138.0
X176.9Y-119.05
X177.7Y-115.8
X177.95Y-132.35
X178.0Y-149.0
X178.889Y-124.513
X179.9Y-85.15
X180.1Y-117.5
X180.775Y-127.712
X180.8Y-122.1
X180.825Y-124.5
X181.25Y-133.2
X181.3Y-130.95
X182.0Y-71.0
X182.1Y-91.7
X183.05Y-94.9
X183.25Y-88.65
X184.0Y-149.0
X184.1Y-78.4
X184.15Y-145.05
X184.35Y-126.5
X184.4Y-94.8
X184.45Y-130.9
X184.662Y-121.737
X184.8Y-123.175
X185.4Y-138.75
X186.2Y-94.35
X186.35Y-85.4
X187.15Y-82.45
X187.3Y-128.3
X187.325Y-120.7
X187.4Y-133.55
X187.8Y-138.85
X188.0Y-71.0
X188.2Y-94.125
X188.225Y-125.4
X188.8Y-93.475
X189.4Y-92.825
X189.825Y-121.7
X189.9Y-75.9
X189.987Y-82.4
X189.987Y-85.7
X189.987Y-90.1
X189.987Y-90.9
X190.0Y-149.0
X190.025Y-123.2
X190.087Y-94.8
X190.1Y-92.175
X190.1Y-143.65
X190.25Y-138.75
X190.4Y-126.3
X191.0Y-51.0
X191.0Y-57.0
X191.0Y-63.0
X191.0Y-68.0
X191.3Y-89.1
X191.9Y-80.0
X191.9Y-87.0
X192.05Y-72.75
X192.2Y-143.6
X192.3Y-138.75
X192.5Y-133.7
X192.6Y-128.3
X193.0Y-90.8
X193.0Y-95.9
X193.1Y-93.475
X193.2Y-71.4
X193.2Y-81.0
X193.5Y-120.6
X193.525Y-125.4
X193.775Y-94.2
X193.9Y-67.8
X194.5Y-86.6
X195.125Y-121.725
X195.125Y-123.2
X195.15Y-79.5
X195.2Y-91.5
X195.55Y-92.6
X195.68Y-60.044
X195.7Y-126.4
X195.9Y-82.5
X195.9Y-90.9
X196.0Y-57.9
X196.0Y-149.0
X196.2Y-64.45
X196.4Y-97.5
X196.5Y-61.7
X196.65Y-134.4
X196.9Y-87.5
X197.15Y-52.7
X197.6Y-88.8
X197.9Y-128.3
X198.1Y-61.7
X198.4Y-66.55
X198.7Y-89.1
X198.7Y-92.825
X198.825Y-125.4
X198.9Y-86.0
X199.0Y-83.9
X199.1Y-67.8
X199.1Y-91.5
X199.2Y-80.5
X199.6Y-134.4
X199.665Y-75.981
X199.9Y-95.5
X200.0Y-51.0
X200.0Y-82.4
X200.1Y-60.6
X200.125Y-121.8
X200.425Y-129.3
X200.5Y-58.2
X201.0Y-125.6
X201.787Y-90.5
X201.887Y-81.4
X202.0Y-149.0
X202.468Y-60.022
X202.9Y-96.5
X203.1Y-132.95
X203.2Y-57.8
X203.2Y-80.3
X203.2Y-85.8
X203.25Y-54.35
X203.4Y-81.7
X203.7Y-138.7
X203.7Y-143.6
X203.75Y-73.6
X204.0Y-68.9
X204.1Y-124.9
X204.25Y-128.6
X204.3Y-127.7
X204.6Y-61.6
X205.0Y-126.8
X205.75Y-143.45
X206.0Y-51.0
X206.025Y-123.0
X206.2Y-132.85
X206.55Y-138.2
X206.8Y-64.3
X206.8Y-76.0
X206.9Y-56.5
X207.15Y-122.2
X207.4Y-117.4
X207.45Y-110.6
X207.5Y-105.35
X207.55Y-130.95
X207.8Y-72.1
X207.85Y-67.4
X208.225Y-121.5
X208.25Y-85.95
X208.3Y-80.6
X208.3Y-84.6
X208.605Y-124.48
X208.867Y-127.925
X209.0Y-129.475
X209.0Y-149.0
X209.1Y-57.6
X209.1Y-69.3
X209.2Y-71.9
X209.3Y-78.2
X209.4Y-79.5
X209.4Y-80.7
X209.4Y-82.0
X209.7Y-62.9
X210.1Y-51.7
X210.3Y-126.2
X210.35Y-85.15
X210.4Y-57.6
X210.4Y-89.55
X210.4Y-94.55
X210.5Y-129.475
X210.6Y-140.15
X210.65Y-138.35
X211.325Y-126.2
X211.4Y-134.9
X211.75Y-123.45
X211.8Y-57.6
X212.0Y-103.65
X212.05Y-112.3
X212.2Y-62.2
X212.2Y-80.3
X212.2Y-117.5
X212.3Y-81.3
X212.4Y-69.1
X212.4Y-75.0
X212.4Y-82.2
X212.5Y-83.1
X213.0Y-51.0
X213.0Y-105.7
X213.1Y-110.3
X213.15Y-79.25
X213.3Y-83.7
X213.4Y-117.4
X213.5Y-91.6
X213.7Y-125.2
X213.9Y-86.45
X214.0Y-126.8
X214.0Y-149.0
X214.276Y-93.444
X214.325Y-128.325
X214.5Y-103.9
X214.55Y-121.35
X214.6Y-57.7
X214.6Y-61.375
X214.7Y-79.1
X214.7Y-90.0
X214.95Y-140.9
X215.5Y-70.65
X215.8Y-69.25
X215.9Y-54.5
X215.925Y-122.925
X216.0Y-62.7
X216.163Y-126.288
X216.3Y-57.6
X216.8Y-134.45
X217.1Y-68.9
X217.9Y-57.6
X218.1Y-110.4
X218.2Y-62.9
X218.371Y-105.729
X218.4Y-68.9
X219.5Y-57.6
X219.65Y-56.1
X219.7Y-68.9
X220.0Y-149.0
X220.4Y-90.0
X220.8Y-74.8
X220.8Y-108.85
X220.85Y-73.35
X220.85Y-76.2
X220.9Y-59.45
X220.9Y-68.9
X221.0Y-51.0
X221.1Y-142.15
X221.3Y-62.0
X221.65Y-138.8
X221.95Y-97.0
X222.0Y-55.7
X222.0Y-87.2
X222.15Y-76.2
X222.2Y-68.9
X222.2Y-73.4
X222.25Y-74.85
X222.35Y-71.25
X222.55Y-82.0
X222.8Y-65.9
X222.9Y-89.6
X222.9Y-94.2
X223.4Y-68.9
X223.85Y-138.75
X224.4Y-61.9
X224.71Y-68.9
X226.0Y-94.3
X226.4Y-86.6
X226.4Y-90.5
X226.6Y-69.0
X226.8Y-138.575
X227.0Y-62.6
X227.2Y-133.7
X227.5Y-94.3
X228.0Y-90.4
X228.5Y-83.696
X228.6Y-62.604
X229.0Y-51.0
X229.0Y-57.0
X229.0Y-61.0
X229.0Y-70.0
X229.0Y-75.0
X229.0Y-80.0
X229.0Y-87.0
X229.0Y-93.0
X229.0Y-98.0
X229.0Y-103.0
X229.0Y-108.0
X229.0Y-114.0
X229.0Y-120.0
X229.0Y-125.0
X229.0Y-133.0
X229.0Y-138.0
X229.0Y-144.0
X229.0Y-149.0
T3
X148.76Y-52.416
X148.76Y-54.956
X151.3Y-52.416
X151.3Y-54.956
X153.76Y-52.416
X153.76Y-54.956
X156.3Y-52.416
X156.3Y-54.956
T4
X179.0Y-75.65
X181.0Y-75.65
T5
X143.2Y-61.0
X143.2Y-63.5
X143.2Y-66.0
X162.0Y-60.85
X162.0Y-63.35
X162.0Y-65.85
T6
X143.2Y-121.735
X143.2Y-124.275
X166.8Y-122.245
X166.8Y-124.785
X166.8Y-127.325
X176.42Y-79.95
X178.4Y-89.5
X178.96Y-79.95
X181.5Y-79.95
X186.0Y-89.5
X222.46Y-98.88
X222.46Y-101.42
X222.46Y-103.96
X222.46Y-106.5
X222.46Y-109.04
X222.46Y-111.58
X222.46Y-114.12
X222.46Y-116.66
X222.6Y-59.4
X225.0Y-98.88
X225.0Y-101.42
X225.0Y-103.96
X225.0Y-106.5
X225.0Y-109.04
X225.0Y-111.58
X225.0Y-114.12
X225.0Y-116.66
X225.14Y-59.4
X227.68Y-59.4
T7
X140.6Y-133.7
X140.6Y-136.2
X140.6Y-140.7
X140.6Y-143.2
X141.0Y-57.9
X142.7Y-136.2
X142.7Y-143.2
X144.4Y-69.2
X145.3Y-136.2
X145.3Y-143.2
X147.4Y-133.7
X147.4Y-136.2
X147.4Y-140.7
X147.4Y-143.2
X158.6Y-133.7
X158.6Y-136.2
X158.6Y-140.7
X158.6Y-143.2
X159.8Y-57.75
X160.7Y-136.2
X160.7Y-143.2
X163.2Y-69.05
X163.3Y-136.2
X163.3Y-143.2
X165.4Y-133.7
X165.4Y-136.2
X165.4Y-140.7
X165.4Y-143.2
X176.6Y-133.7
X176.6Y-136.2
X176.6Y-140.7
X176.6Y-143.2
X178.7Y-136.2
X178.7Y-143.2
X181.3Y-136.2
X181.3Y-143.2
X183.4Y-133.7
X183.4Y-136.2
X183.4Y-140.7
X183.4Y-143.2
X194.6Y-133.7
X194.6Y-136.2
X194.6Y-140.7
X194.6Y-143.2
X196.7Y-136.2
X196.7Y-143.2
X199.3Y-136.2
X199.3Y-143.2
X201.4Y-133.7
X201.4Y-136.2
X201.4Y-140.7
X201.4Y-143.2
X212.6Y-133.7
X212.6Y-136.2
X212.6Y-140.7
X212.6Y-143.2
X214.7Y-136.2
X214.7Y-143.2
X217.3Y-136.2
X217.3Y-143.2
X219.4Y-133.7
X219.4Y-136.2
X219.4Y-140.7
X219.4Y-143.2
T8
X137.25Y-136.2
X137.25Y-146.2
X144.0Y-147.0
X150.75Y-136.2
X150.75Y-146.2
X155.25Y-136.2
X155.25Y-146.2
X162.0Y-147.0
X168.75Y-136.2
X168.75Y-146.2
X173.25Y-136.2
X173.25Y-146.2
X180.0Y-147.0
X186.75Y-136.2
X186.75Y-146.2
X191.25Y-136.2
X191.25Y-146.2
X198.0Y-147.0
X204.75Y-136.2
X204.75Y-146.2
X209.25Y-136.2
X209.25Y-146.2
X216.0Y-147.0
X222.75Y-136.2
X222.75Y-146.2
T9
X134.0Y-54.0
X134.0Y-127.0
X226.0Y-54.0
X226.0Y-127.0
T2
X195.68Y-52.325G85X195.68Y-51.525
G05
X195.68Y-56.655G85X195.68Y-55.555
G05
X204.32Y-52.325G85X204.32Y-51.525
G05
X204.32Y-56.655G85X204.32Y-55.555
G05
M30
