G04 #@! TF.GenerationSoftware,KiCad,Pcbnew,8.0.4*
G04 #@! TF.CreationDate,2025-03-13T03:49:55-05:00*
G04 #@! TF.ProjectId,Unify_1,556e6966-795f-4312-9e6b-696361645f70,rev?*
G04 #@! TF.SameCoordinates,Original*
G04 #@! TF.FileFunction,Soldermask,Bot*
G04 #@! TF.FilePolarity,Negative*
%FSLAX46Y46*%
G04 Gerber Fmt 4.6, Leading zero omitted, Abs format (unit mm)*
G04 Created by KiCad (PCBNEW 8.0.4) date 2025-03-13 03:49:55*
%MOMM*%
%LPD*%
G01*
G04 APERTURE LIST*
G04 Aperture macros list*
%AMRoundRect*
0 Rectangle with rounded corners*
0 $1 Rounding radius*
0 $2 $3 $4 $5 $6 $7 $8 $9 X,Y pos of 4 corners*
0 Add a 4 corners polygon primitive as box body*
4,1,4,$2,$3,$4,$5,$6,$7,$8,$9,$2,$3,0*
0 Add four circle primitives for the rounded corners*
1,1,$1+$1,$2,$3*
1,1,$1+$1,$4,$5*
1,1,$1+$1,$6,$7*
1,1,$1+$1,$8,$9*
0 Add four rect primitives between the rounded corners*
20,1,$1+$1,$2,$3,$4,$5,0*
20,1,$1+$1,$4,$5,$6,$7,0*
20,1,$1+$1,$6,$7,$8,$9,0*
20,1,$1+$1,$8,$9,$2,$3,0*%
G04 Aperture macros list end*
%ADD10C,1.800000*%
%ADD11C,2.200000*%
%ADD12C,1.400000*%
%ADD13C,2.390000*%
%ADD14C,3.450000*%
%ADD15R,1.700000X1.700000*%
%ADD16O,1.700000X1.700000*%
%ADD17C,2.000000*%
%ADD18R,2.000000X2.000000*%
%ADD19C,1.600000*%
%ADD20C,3.300000*%
%ADD21O,1.000000X1.800000*%
%ADD22O,1.000000X2.100000*%
%ADD23C,0.650000*%
%ADD24O,1.200000X1.750000*%
%ADD25RoundRect,0.250000X0.350000X0.625000X-0.350000X0.625000X-0.350000X-0.625000X0.350000X-0.625000X0*%
%ADD26C,5.400000*%
G04 APERTURE END LIST*
D10*
X143200000Y-66000000D03*
X143200000Y-63500000D03*
X143200000Y-61000000D03*
D11*
X144400000Y-69200000D03*
X141000000Y-57900000D03*
D10*
X162000000Y-65850000D03*
X162000000Y-63350000D03*
X162000000Y-60850000D03*
D11*
X163200000Y-69050000D03*
X159800000Y-57750000D03*
D12*
X156300000Y-52415816D03*
X156300000Y-54955816D03*
X153760000Y-52415816D03*
X153760000Y-54955816D03*
X151300000Y-52415816D03*
X151300000Y-54955816D03*
X148760000Y-52415816D03*
X148760000Y-54955816D03*
D13*
X140180000Y-100000000D03*
D14*
X148400000Y-116000000D03*
X203600000Y-100000000D03*
D15*
X143200000Y-124275000D03*
D16*
X143200000Y-121735000D03*
X225000000Y-116660000D03*
X222460000Y-116660000D03*
X225000000Y-114120000D03*
X222460000Y-114120000D03*
X225000000Y-111580000D03*
X222460000Y-111580000D03*
X225000000Y-109040000D03*
X222460000Y-109040000D03*
X225000000Y-106500000D03*
X222460000Y-106500000D03*
X225000000Y-103960000D03*
X222460000Y-103960000D03*
X225000000Y-101420000D03*
X222460000Y-101420000D03*
X225000000Y-98880000D03*
D15*
X222460000Y-98880000D03*
X222600000Y-59400000D03*
D16*
X225140000Y-59400000D03*
X227680000Y-59400000D03*
D15*
X166800000Y-127325000D03*
D16*
X166800000Y-124785000D03*
X166800000Y-122245000D03*
D17*
X186000000Y-89500000D03*
D18*
X178400000Y-89500000D03*
D19*
X145300000Y-143200000D03*
X142700000Y-143200000D03*
X147400000Y-143200000D03*
X140600000Y-143200000D03*
X147400000Y-140700000D03*
X140600000Y-140700000D03*
X145300000Y-136200000D03*
X142700000Y-136200000D03*
X147400000Y-136200000D03*
X140600000Y-136200000D03*
X147400000Y-133700000D03*
X140600000Y-133700000D03*
D20*
X137250000Y-136200000D03*
X137250000Y-146200000D03*
X144000000Y-147000000D03*
X150750000Y-136200000D03*
X150750000Y-146200000D03*
D21*
X195680000Y-51925000D03*
D22*
X195680000Y-56105000D03*
D21*
X204320000Y-51925000D03*
D22*
X204320000Y-56105000D03*
D23*
X197110000Y-55605000D03*
X202890000Y-55605000D03*
D19*
X181300000Y-143200000D03*
X178700000Y-143200000D03*
X183400000Y-143200000D03*
X176600000Y-143200000D03*
X183400000Y-140700000D03*
X176600000Y-140700000D03*
X181300000Y-136200000D03*
X178700000Y-136200000D03*
X183400000Y-136200000D03*
X176600000Y-136200000D03*
X183400000Y-133700000D03*
X176600000Y-133700000D03*
D20*
X173250000Y-136200000D03*
X173250000Y-146200000D03*
X180000000Y-147000000D03*
X186750000Y-136200000D03*
X186750000Y-146200000D03*
D24*
X179000000Y-75650000D03*
D25*
X181000000Y-75650000D03*
D16*
X176420000Y-79950000D03*
X178960000Y-79950000D03*
D15*
X181500000Y-79950000D03*
D20*
X222750000Y-146200000D03*
X222750000Y-136200000D03*
X216000000Y-147000000D03*
X209250000Y-146200000D03*
X209250000Y-136200000D03*
D19*
X212600000Y-133700000D03*
X219400000Y-133700000D03*
X212600000Y-136200000D03*
X219400000Y-136200000D03*
X214700000Y-136200000D03*
X217300000Y-136200000D03*
X212600000Y-140700000D03*
X219400000Y-140700000D03*
X212600000Y-143200000D03*
X219400000Y-143200000D03*
X214700000Y-143200000D03*
X217300000Y-143200000D03*
X163300000Y-143200000D03*
X160700000Y-143200000D03*
X165400000Y-143200000D03*
X158600000Y-143200000D03*
X165400000Y-140700000D03*
X158600000Y-140700000D03*
X163300000Y-136200000D03*
X160700000Y-136200000D03*
X165400000Y-136200000D03*
X158600000Y-136200000D03*
X165400000Y-133700000D03*
X158600000Y-133700000D03*
D20*
X155250000Y-136200000D03*
X155250000Y-146200000D03*
X162000000Y-147000000D03*
X168750000Y-136200000D03*
X168750000Y-146200000D03*
D26*
X226000000Y-54000000D03*
X134000000Y-54000000D03*
X226000000Y-127000000D03*
X134000000Y-127000000D03*
D20*
X204750000Y-146200000D03*
X204750000Y-136200000D03*
X198000000Y-147000000D03*
X191250000Y-146200000D03*
X191250000Y-136200000D03*
D19*
X194600000Y-133700000D03*
X201400000Y-133700000D03*
X194600000Y-136200000D03*
X201400000Y-136200000D03*
X196700000Y-136200000D03*
X199300000Y-136200000D03*
X194600000Y-140700000D03*
X201400000Y-140700000D03*
X194600000Y-143200000D03*
X201400000Y-143200000D03*
X196700000Y-143200000D03*
X199300000Y-143200000D03*
M02*
